<?xml version="1.0" encoding="utf-8" standalone="yes"?>
<!DOCTYPE svg PUBLIC "-//W3C//DTD SVG 1.1//EN" "http://www.w3.org/Graphics/SVG/1.1/DTD/svg11.dtd">
<svg width="710" height="458" viewBox="0 0 710 458" style="fill:none;stroke:none;fill-rule:evenodd;clip-rule:evenodd;stroke-linecap:round;stroke-linejoin:round;stroke-miterlimit:1.5;" version="1.1" xmlns="http://www.w3.org/2000/svg" xmlns:xlink="http://www.w3.org/1999/xlink"><style class="text-font-style fontImports" data-font-family="Roboto">@import url('https://fonts.googleapis.com/css2?family=Roboto:wght@400;700&amp;display=block');</style><g id="items" style="isolation: isolate"><g id="blend" style="mix-blend-mode: normal"><g id="g-root--1.cu_sy_1ut1t6q5v4paf-fill" data-item-order="-110586" transform="translate(327, 111)"><g id="-1.cu_sy_1ut1t6q5v4paf-fill" stroke="none" fill="url(#gradient-cbcbcb-248399021)"><g><path d="M 65.766602 298C 80.754802 298 106.000002 233.529 106.000002 154C 106.000002 74.471 80.754802 10 65.766602 10C 80.775202 10.0075 92.941702 74.6668 92.941702 154C 92.941702 233.333 80.775202 297.992 65.766602 298ZM 65.765897 298C 80.774597 297.992 92.941097 233.333 92.941097 154C 92.941097 74.6668 80.774597 10.0075 65.765897 10L 51.957397 10C 66.060697 15.1659 77.199297 77.8539 77.199297 154C 77.199297 230.146 65.382597 292.834 51.279297 298L 65.765897 298ZM 77.2 154C 77.2 230.146 65.3833 292.834 51.28 298L 50.0615 298C 35.0734 298 10 233.529 10 154C 10 74.471 35.0734 10 50.0615 10C 50.6991 10 51.9581 10 51.9581 10C 66.0614 15.1659 77.2 77.8539 77.2 154Z"></path></g></g></g><g id="g-root-0.cr-medium_cr_1hi7rwi5v4npk-fill" data-item-order="-110582" transform="translate(495, 219)"><g id="0.cr-medium_cr_1hi7rwi5v4npk-fill" stroke="none" fill="url(#gradient-cbcbcb-248399021)"><g><path d="M 10 46C 10 65.882251 26.117749 82 46 82C 65.882251 82 82 65.882251 82 46C 82 26.117749 65.882251 10 46 10C 26.117749 10 10 26.117749 10 46"></path></g></g></g><g id="g-root-3.line_sy_1d2e9s25v4oht-fill" data-item-order="-110575" transform="translate(243.109375, 279)"></g><g id="g-root-3.cr-small_cr_146r9j65v4pai-fill" data-item-order="-110574" transform="translate(183, 308.99993896484375)"><g id="3.cr-small_cr_146r9j65v4pai-fill" stroke="none" fill="url(#gradient-ffed4b-499785973)"><g><path d="M 10 40C 10.000002 56.568544 23.431459 70.000002 40.000002 70.000002C 56.568544 70.000002 70.000002 56.568544 70.000002 40.000002C 70.000002 23.431459 56.568544 10.000002 40.000002 10.000002C 23.431459 10.000002 10.000002 23.431459 10.000002 40.000002"></path></g></g></g><g id="g-root-2.line_sy_zrk8hu5v4mwz-fill" data-item-order="-110567" transform="translate(243, 255)"></g><g id="g-root-2.cr-small_cr_qvx88y5v4npo-fill" data-item-order="-110566" transform="translate(183, 225)"><g id="2.cr-small_cr_qvx88y5v4npo-fill" stroke="none" fill="url(#gradient-64edab-240055791)"><g><path d="M 10 40C 10.000002 56.568544 23.431459 70.000002 40.000002 70.000002C 56.568544 70.000002 70.000002 56.568544 70.000002 40.000002C 70.000002 23.431459 56.568544 10.000002 40.000002 10.000002C 23.431459 10.000002 10.000002 23.431459 10.000002 40.000002"></path></g></g></g><g id="g-root-1.line_sy_dkgpvm5v4pal-fill" data-item-order="-110559" transform="translate(243, 171)"></g><g id="g-root-1.cr-small_cr_959oua5v4mx2-fill" data-item-order="-110558" transform="translate(183, 141)"><defs><linearGradient id="gradient-cbcbcb-248399021" x2="0" y2="1"><stop offset="0" stop-color="#d9d9d9"></stop><stop offset="1" stop-color="#bcbcbc"></stop></linearGradient><linearGradient id="gradient-ffed4b-499785973" x2="0" y2="1"><stop offset="0" stop-color="#fff282"></stop><stop offset="1" stop-color="#ffe714"></stop></linearGradient><linearGradient id="gradient-64edab-240055791" x2="0" y2="1"><stop offset="0" stop-color="#83fac1"></stop><stop offset="1" stop-color="#44e095"></stop></linearGradient><linearGradient id="gradient-fe8884-413551779" x2="0" y2="1"><stop offset="0" stop-color="#ffa6a3"></stop><stop offset="1" stop-color="#fd6a65"></stop></linearGradient></defs><g id="1.cr-small_cr_959oua5v4mx2-fill" stroke="none" fill="url(#gradient-fe8884-413551779)"><g><path d="M 10 40C 10.000002 56.568544 23.431459 70.000002 40.000002 70.000002C 56.568544 70.000002 70.000002 56.568544 70.000002 40.000002C 70.000002 23.431459 56.568544 10.000002 40.000002 10.000002C 23.431459 10.000002 10.000002 23.431459 10.000002 40.000002"></path></g></g></g><g id="g-root-tx_building_4lpiiq5v4paf-fill" data-item-order="0" transform="translate(255, 39)"><g id="tx_building_4lpiiq5v4paf-fill" stroke="none" fill="#484848"><g><text style="font: 20px Roboto, sans-serif; white-space: pre;" font-size="20px" font-family="Roboto, sans-serif"><tspan x="16.4" y="34" dominant-baseline="ideographic">Basic Web Development</tspan></text></g></g></g><g id="g-root-tx_htmlstru_4kgkci5v4n4c-fill" data-item-order="0" transform="translate(111, 159)"><g id="tx_htmlstru_4kgkci5v4n4c-fill" stroke="none" fill="#484848"><g><text style="font: 20px Roboto, sans-serif; white-space: pre;" font-size="20px" font-family="Roboto, sans-serif"><tspan x="13.84" y="34" dominant-baseline="ideographic">HTML</tspan></text></g></g></g><g id="g-root-1_1qduvb65vd53g-fill" data-item-order="0" transform="translate(195, 153)"></g><g id="g-root-tx_cssstyli_qqxlvm5v4nwi-fill" data-item-order="0" transform="translate(123, 243)"><g id="tx_cssstyli_qqxlvm5v4nwi-fill" stroke="none" fill="#484848"><g><text style="font: 20px Roboto, sans-serif; white-space: pre;" font-size="20px" font-family="Roboto, sans-serif"><tspan x="19.22" y="34" dominant-baseline="ideographic">CSS</tspan></text></g></g></g><g id="g-root-pale_1cz9wci5vliq6-fill" data-item-order="0" transform="translate(195, 237)"></g><g id="g-root-imag_1uux8g25v4oav-fill" data-item-order="0" transform="translate(507, 231)"></g><g id="g-root-tx_modernwe_140iozm5v4nb8-fill" data-item-order="0" transform="translate(579, 231)"><g id="tx_modernwe_140iozm5v4nb8-fill" stroke="none" fill="#969696"><g><text style="font: 20px Roboto, sans-serif; white-space: pre;" font-size="20px" font-family="Roboto, sans-serif"><tspan x="12" y="34" dominant-baseline="ideographic">Modern </tspan><tspan x="12" y="58" dominant-baseline="ideographic">Websites</tspan></text></g></g></g><g id="g-root-tx_javascri_4il5365v4o3z-fill" data-item-order="0" transform="translate(63, 327)"><g id="tx_javascri_4il5365v4o3z-fill" stroke="none" fill="#484848"><g><text style="font: 20px Roboto, sans-serif; white-space: pre;" font-size="20px" font-family="Roboto, sans-serif"><tspan x="22.05" y="34" dominant-baseline="ideographic">JavaScript</tspan></text></g></g></g><g id="g-root-robo_142dxxe5vli4j-fill" data-item-order="0" transform="translate(195, 321)"></g><g id="g-root--1.cu_sy_1ut1t6q5v4paf-stroke" data-item-order="-110586" transform="translate(327, 111)"><g id="-1.cu_sy_1ut1t6q5v4paf-stroke" fill="none" stroke-linecap="round" stroke-linejoin="round" stroke-miterlimit="4" stroke="#484848" stroke-width="2"><g><path d="M 65.766602 298C 80.754802 298 106.000002 233.529 106.000002 154C 106.000002 74.471 80.754802 10 65.766602 10C 80.775202 10.0075 92.941702 74.6668 92.941702 154C 92.941702 233.3332 80.775202 297.9925 65.766602 298ZM 65.765897 298C 80.774597 297.9925 92.941097 233.3332 92.941097 154C 92.941097 74.6668 80.774597 10.0075 65.765897 10L 51.957397 10C 66.060697 15.1659 77.199297 77.8539 77.199297 154C 77.199297 230.1462 65.382597 292.8341 51.279297 298L 65.765897 298ZM 77.2 154C 77.2 230.1462 65.3833 292.8341 51.28 298L 50.0615 298C 35.0734 298 10 233.529 10 154C 10 74.471 35.0734 10 50.0615 10C 50.6991 10 51.9581 10 51.9581 10C 66.0614 15.1659 77.2 77.8539 77.2 154Z"></path></g></g></g><g id="g-root-0.cr-medium_cr_1hi7rwi5v4npk-stroke" data-item-order="-110582" transform="translate(495, 219)"><g id="0.cr-medium_cr_1hi7rwi5v4npk-stroke" fill="none" stroke-linecap="round" stroke-linejoin="round" stroke-miterlimit="4" stroke="#484848" stroke-width="2"><g><path d="M 10 46C 10 65.882251 26.117749 82 46 82C 65.882251 82 82 65.882251 82 46C 82 26.117749 65.882251 10 46 10C 26.117749 10 10 26.117749 10 46"></path></g></g></g><g id="g-root-3.line_sy_1d2e9s25v4oht-stroke" data-item-order="-110575" transform="translate(243.109375, 279)"><g id="3.line_sy_1d2e9s25v4oht-stroke" fill="none" stroke-linecap="round" stroke-linejoin="round" stroke-miterlimit="4" stroke="#484848" stroke-width="2"><g><path d="M 254.08061 10.859985L 129.89061 69.999985L 10.00061 69.999985"></path><path d="M 251.50061 19.259985L 254.50061 10.659985L 245.90061 7.559985" stroke-dasharray="none"></path></g></g></g><g id="g-root-3.cr-small_cr_146r9j65v4pai-stroke" data-item-order="-110574" transform="translate(183, 308.99993896484375)"><g id="3.cr-small_cr_146r9j65v4pai-stroke" fill="none" stroke-linecap="round" stroke-linejoin="round" stroke-miterlimit="4" stroke="#484848" stroke-width="2"><g><path d="M 10 40C 10.000002 56.568544 23.431459 70.000002 40.000002 70.000002C 56.568544 70.000002 70.000002 56.568544 70.000002 40.000002C 70.000002 23.431459 56.568544 10.000002 40.000002 10.000002C 23.431459 10.000002 10.000002 23.431459 10.000002 40.000002"></path></g></g></g><g id="g-root-2.line_sy_zrk8hu5v4mwz-stroke" data-item-order="-110567" transform="translate(243, 255)"><g id="2.line_sy_zrk8hu5v4mwz-stroke" fill="none" stroke-linecap="round" stroke-linejoin="round" stroke-miterlimit="4" stroke="#484848" stroke-width="2"><g><path d="M 248 10L 130 10L 10 10"></path><path d="M 242 16.5L 248.5 10L 242 3.5" stroke-dasharray="none"></path></g></g></g><g id="g-root-2.cr-small_cr_qvx88y5v4npo-stroke" data-item-order="-110566" transform="translate(183, 225)"><g id="2.cr-small_cr_qvx88y5v4npo-stroke" fill="none" stroke-linecap="round" stroke-linejoin="round" stroke-miterlimit="4" stroke="#484848" stroke-width="2"><g><path d="M 10 40C 10.000002 56.568544 23.431459 70.000002 40.000002 70.000002C 56.568544 70.000002 70.000002 56.568544 70.000002 40.000002C 70.000002 23.431459 56.568544 10.000002 40.000002 10.000002C 23.431459 10.000002 10.000002 23.431459 10.000002 40.000002"></path></g></g></g><g id="g-root-1.line_sy_dkgpvm5v4pal-stroke" data-item-order="-110559" transform="translate(243, 171)"><g id="1.line_sy_dkgpvm5v4pal-stroke" fill="none" stroke-linecap="round" stroke-linejoin="round" stroke-miterlimit="4" stroke="#484848" stroke-width="2"><g><path d="M 254.19 69.14L 130 10L 10 10"></path><path d="M 246 72.4L 254.6 69.4L 251.6 60.7" stroke-dasharray="none"></path></g></g></g><g id="g-root-1.cr-small_cr_959oua5v4mx2-stroke" data-item-order="-110558" transform="translate(183, 141)"><g id="1.cr-small_cr_959oua5v4mx2-stroke" fill="none" stroke-linecap="round" stroke-linejoin="round" stroke-miterlimit="4" stroke="#484848" stroke-width="2"><g><path d="M 10 40C 10.000002 56.568544 23.431459 70.000002 40.000002 70.000002C 56.568544 70.000002 70.000002 56.568544 70.000002 40.000002C 70.000002 23.431459 56.568544 10.000002 40.000002 10.000002C 23.431459 10.000002 10.000002 23.431459 10.000002 40.000002"></path></g></g></g><g id="g-root-tx_building_4lpiiq5v4paf-stroke" data-item-order="0" transform="translate(255, 39)"></g><g id="g-root-tx_htmlstru_4kgkci5v4n4c-stroke" data-item-order="0" transform="translate(111, 159)"></g><g id="g-root-1_1qduvb65vd53g-stroke" data-item-order="0" transform="translate(195, 153)"><g id="1_1qduvb65vd53g-stroke" fill="none" stroke-linecap="round" stroke-linejoin="round" stroke-miterlimit="4" stroke="#484848" stroke-width="2"><g><path d="M 18.25 27.256001L 18.25 39.256001M 12.25 39.256001L 12.25 27.256001M 12.25 33.256001L 18.25 33.256001M 30.25 39.256001L 30.25 27.256001L 33.25 33.256001L 36.25 27.256001L 36.25 39.256001M 39.25 27.25L 39.25 37C 39.25 38.242641 40.257362 39.25 41.5 39.25L 45.25 39.25M 21.25 27.256001L 27.25 27.256001M 24.25 27.256001L 24.25 39.256001M 45.25 43.75C 45.25 44.578426 44.578426 45.25 43.75 45.25L 12.25 45.25C 11.421573 45.25 10.75 44.578426 10.75 43.75M 10.75 22.75L 10.75 12.25C 10.75 11.421573 11.421573 10.75 12.25 10.75L 43.75 10.75C 44.578426 10.75 45.25 11.421573 45.25 12.25L 45.25 22.75"></path></g></g></g><g id="g-root-tx_cssstyli_qqxlvm5v4nwi-stroke" data-item-order="0" transform="translate(123, 243)"></g><g id="g-root-pale_1cz9wci5vliq6-stroke" data-item-order="0" transform="translate(195, 237)"><g id="pale_1cz9wci5vliq6-stroke" fill="none" stroke-linecap="round" stroke-linejoin="round" stroke-miterlimit="4" stroke="#484848" stroke-width="2"><g><path d="M 15.805 41.5C 9.06635 34.764214 9.064803 23.840786 15.801544 17.10309C 22.538286 10.365394 33.461716 10.365394 40.198456 17.10309C 46.935196 23.840786 46.933651 34.764214 40.195 41.5C 36.972862 44.723652 31.747139 44.723652 28.525002 41.5L 22.164999 35.154999C 21.569859 34.645336 20.682709 34.679604 20.128654 35.233658C 19.574602 35.787708 19.540335 36.674858 20.049999 37.27C 21.121925 38.457172 21.073938 40.276543 19.940918 41.405556C 18.807901 42.534576 16.988371 42.576122 15.805 41.5ZM 36.610001 21.895C 36.610001 23.137642 35.602642 24.145 34.360001 24.145C 33.117359 24.145 32.110001 23.137642 32.110001 21.895C 32.110001 20.652359 33.117359 19.645 34.360001 19.645C 35.602642 19.645 36.610001 20.652359 36.610001 21.895ZM 37 29.32C 37 30.148426 37.671574 30.82 38.5 30.82C 39.328426 30.82 40 30.148426 40 29.32C 40 28.491573 39.328426 27.82 38.5 27.82C 37.671574 27.82 37 28.491573 37 29.32M 34.360001 39.744999C 32.703144 39.744999 31.360001 38.401855 31.360001 36.744999C 31.360001 35.088146 32.703144 33.744999 34.360001 33.744999C 36.016853 33.744999 37.360001 35.088146 37.360001 36.744999C 37.360001 38.401855 36.016853 39.744999 34.360001 39.744999ZM 25.344999 18.055C 26.587643 18.055 27.595001 19.062359 27.595001 20.305C 27.595001 21.547642 26.587643 22.555 25.345001 22.555C 24.10236 22.555 23.095001 21.547642 23.095001 20.305C 23.095001 19.062359 24.10236 18.055 25.345001 18.055Z"></path></g></g></g><g id="g-root-imag_1uux8g25v4oav-stroke" data-item-order="0" transform="translate(507, 231)"><g id="imag_1uux8g25v4oav-stroke" fill="none" stroke-linecap="round" stroke-linejoin="round" stroke-miterlimit="4" stroke="#484848" stroke-width="2"><g><path d="M 53 37L 53 53C 53 55.209141 51.209141 57 49 57L 15 57C 12.790861 57 11 55.209141 11 53L 11 25C 11 22.790861 12.790861 21 15 21L 39 21M 11 30L 39 30M 18.5 25C 18.776142 25 19 25.223858 19 25.5C 19 25.776142 18.776142 26 18.5 26C 18.223858 26 18 25.776142 18 25.5C 18 25.223858 18.223858 25 18.5 25M 24.5 25C 24.776142 25 25 25.223858 25 25.5C 25 25.776142 24.776142 26 24.5 26C 24.223858 26 24 25.776142 24 25.5C 24 25.223858 24.223858 25 24.5 25M 30.5 25C 30.776142 25 31 25.223858 31 25.5C 31 25.776142 30.776142 26 30.5 26C 30.223858 26 30 25.776142 30 25.5C 30 25.223858 30.223858 25 30.5 25M 43 52L 37.860001 40.18C 37.715683 39.805336 37.361275 39.553314 36.959999 39.540001C 36.55954 39.533211 36.195244 39.77079 36.040001 40.139999L 32 48L 28 44C 27.792429 43.754257 27.481102 43.620834 27.16 43.639999C 26.83663 43.661194 26.544645 43.840878 26.380001 44.119999L 21 52ZM 19 37C 19 38.656853 20.343147 40 22 40C 23.656855 40 25 38.656853 25 37C 25 35.343147 23.656855 34 22 34C 20.343147 34 19 35.343147 19 37M 45 11L 55 11C 55 11 57 11 57 13L 57 31C 57 31 57 33 55 33L 45 33C 45 33 43 33 43 31L 43 13C 43 13 43 11 45 11M 43 29L 57 29"></path></g></g></g><g id="g-root-tx_modernwe_140iozm5v4nb8-stroke" data-item-order="0" transform="translate(579, 231)"></g><g id="g-root-tx_javascri_4il5365v4o3z-stroke" data-item-order="0" transform="translate(63, 327)"></g><g id="g-root-robo_142dxxe5vli4j-stroke" data-item-order="0" transform="translate(195, 321)"><g id="robo_142dxxe5vli4j-stroke" fill="none" stroke-linecap="round" stroke-linejoin="round" stroke-miterlimit="4" stroke="#484848" stroke-width="2"><g><path d="M 41.300049 26.85235L 41.300049 15.818365C 41.300049 13.333075 39.2854 11.318359 36.800049 11.318359L 15.733405 11.318359C 13.248116 11.318359 11.233399 13.33309 11.233399 15.818365L 11.233399 32.485001C 11.233399 34.970352 13.248116 36.985001 15.733405 36.985001L 26.26675 36.985001M 23.68243 29.52145C 23.491076 29.61655 23.278616 29.661251 23.065165 29.65135C 22.851715 29.641451 22.644341 29.577101 22.46266 29.4646C 22.280994 29.3521 22.131041 29.1952 22.027 29.00845C 21.922976 28.82185 21.868299 28.6117 21.868164 28.3981L 21.868164 19.908985C 21.868299 19.695295 21.922976 19.485176 22.027 19.298531C 22.131041 19.111885 22.280994 18.95488 22.46266 18.842381C 22.644341 18.729879 22.851715 18.665606 23.065165 18.655661C 23.278616 18.645716 23.491076 18.690399 23.68243 18.785515L 32.173 23.031506C 32.3815 23.135574 32.55685 23.295685 32.679401 23.493881C 32.801949 23.69206 32.866901 23.920481 32.866901 24.153505C 32.866901 24.386545 32.801949 24.614965 32.679401 24.813145C 32.55685 25.0114 32.3815 25.17145 32.173 25.275549L 23.68243 29.52145ZM 35.186501 34.896999L 41.765499 34.896999C 41.765499 34.896999 44.765499 34.896999 44.765499 37.896999L 44.765499 41.682999C 44.765499 41.682999 44.765499 44.682999 41.765499 44.682999L 35.186501 44.682999C 35.186501 44.682999 32.186501 44.682999 32.186501 41.682999L 32.186501 37.896999C 32.186501 37.896999 32.186501 34.896999 35.186501 34.896999M 10 10M 38.476601 31.036751L 38.476601 34.896549M 10 10M 36.414101 38.919399L 36.414101 40.662102M 10 10M 40.539101 38.919399L 40.539101 40.662102"></path></g></g></g></g></g></svg>