<?xml version="1.0" encoding="utf-8" standalone="yes"?>
<!DOCTYPE svg PUBLIC "-//W3C//DTD SVG 1.1//EN" "http://www.w3.org/Graphics/SVG/1.1/DTD/svg11.dtd">
<svg width="674" height="650" viewBox="0 0 674 650" style="fill:none;stroke:none;fill-rule:evenodd;clip-rule:evenodd;stroke-linecap:round;stroke-linejoin:round;stroke-miterlimit:1.5;" version="1.1" xmlns="http://www.w3.org/2000/svg" xmlns:xlink="http://www.w3.org/1999/xlink"><style class="text-font-style fontImports" data-font-family="Roboto">@import url('https://fonts.googleapis.com/css2?family=Roboto:wght@400;700&amp;display=block');</style><g id="items" style="isolation: isolate"><g id="blend" style="mix-blend-mode: normal"><g id="g-root-2.sign-2_fr_dilk9qix2exa-fill" data-item-order="-351924" transform="translate(327, 243)"><g id="2.sign-2_fr_dilk9qix2exa-fill" stroke="none" fill="#e0cb15"><g><path d="M 10 10L 148 10L 148 106L 10 106L 10 10ZM 196 58C 196 31.4903 174.5097 10.000002 148.000008 10L 148 106C 174.5097 106 196 84.5097 196 58Z"></path></g></g></g><g id="g-root-4.sign-4_fr_92s25aix2fpk-fill" data-item-order="-351900" transform="translate(327, 483)"><g id="4.sign-4_fr_92s25aix2fpk-fill" stroke="none" fill="#e55753"><g><path d="M 10 10L 196 10L 196 106L 10 106L 10 10ZM 244 58C 244 31.4903 222.5097 10.000002 196.000008 10L 196 106C 222.5097 106 244 84.5097 244 58Z"></path></g></g></g><g id="g-root-1.sign-1_fr_4myk0uix2ghu-fill" data-item-order="-351880" transform="translate(117, 123)"><g id="1.sign-1_fr_4myk0uix2ghu-fill" stroke="none" fill="#92bd39"><g><path d="M 58 10L 220 10L 220 106L 58 106L 58 10ZM 10 58C 10 84.5097 31.4903 106 58 106L 58 10C 31.4903 10 10 31.4903 10 58Z"></path></g></g></g><g id="g-root-3.sign-3_fr_1usflr2ix2h3g-fill" data-item-order="-351856" transform="translate(129, 363)"><g id="3.sign-3_fr_1usflr2ix2h3g-fill" stroke="none" fill="#de8431"><g><path d="M 58 10L 208 10L 208 106L 58 106L 58 10ZM 10 58C 10 84.5097 31.4903 106 58 106L 58 10C 31.4903 10 10 31.4903 10 58Z"></path></g></g></g><g id="g-root-tx_technolo_1qd8kpqix2epy-fill" data-item-order="0" transform="translate(183, 39)"><g id="tx_technolo_1qd8kpqix2epy-fill" stroke="none" fill="#484848"><g><text style="font: 20px Roboto, sans-serif; white-space: pre;" font-size="20px" font-family="Roboto, sans-serif"><tspan x="27.67" y="40" dominant-baseline="ideographic">Full Stack Web Development</tspan></text></g></g></g><g id="g-root-code_1qegan2j6gydl-fill" data-item-order="0" transform="translate(147, 153)"></g><g id="g-root-tx_acollect_1hhlkguix2fin-fill" data-item-order="0" transform="translate(339, 141)"><g id="tx_acollect_1hhlkguix2fin-fill" stroke="none" fill="#484848"><g><text style="font: 15px Roboto, sans-serif; white-space: pre;" font-size="15px" font-family="Roboto, sans-serif"><tspan x="12" y="31" dominant-baseline="ideographic">Sekumpulan framework yang </tspan><tspan x="12" y="49" dominant-baseline="ideographic">digunakan dalam </tspan><tspan x="12" y="67" dominant-baseline="ideographic">pengembangan.</tspan></text></g></g></g><g id="g-root-tx_framewor_140hk2mj6z75v-fill" data-item-order="0" transform="translate(195, 159)"><g id="tx_framewor_140hk2mj6z75v-fill" stroke="none" fill="#ffffff"><g><text style="font: 20px Roboto, sans-serif; white-space: pre;" font-size="20px" font-family="Roboto, sans-serif"><tspan x="18.11" y="34" dominant-baseline="ideographic">Frameworks</tspan></text></g></g></g><g id="g-root-tx_platform_qp11paj6z8qs-fill" data-item-order="0" transform="translate(147, 261)"><g id="tx_platform_qp11paj6z8qs-fill" stroke="none" fill="#484848"><g><text style="font: 15px Roboto, sans-serif; white-space: pre;" font-size="15px" font-family="Roboto, sans-serif"><tspan x="76.75" y="40" dominant-baseline="ideographic">Platform untuk </tspan><tspan x="15.5" y="58" dominant-baseline="ideographic">deployment dan hosting</tspan></text></g></g></g><g id="g-root-tx_platform_1463qouj6nz7o-fill" data-item-order="0" transform="translate(339, 279)"><g id="tx_platform_1463qouj6nz7o-fill" stroke="none" fill="#ffffff"><g><text style="font: 20px Roboto, sans-serif; white-space: pre;" font-size="20px" font-family="Roboto, sans-serif"><tspan x="12" y="34" dominant-baseline="ideographic">Platforms</tspan></text></g></g></g><g id="g-root-driv_1d1s2ceix2gaw-fill" data-item-order="0" transform="translate(447, 273)"></g><g id="g-root-2_de70f2j6z75x-fill" data-item-order="0" transform="translate(159, 393)"></g><g id="g-root-tx_database_qun8bij6o0sm-fill" data-item-order="0" transform="translate(339, 381)"><g id="tx_database_qun8bij6o0sm-fill" stroke="none" fill="#484848"><g><text style="font: 15px Roboto, sans-serif; white-space: pre;" font-size="15px" font-family="Roboto, sans-serif"><tspan x="12" y="31" dominant-baseline="ideographic">Database yang digunakan </tspan><tspan x="12" y="49" dominant-baseline="ideographic">untuk penyimpanan dan </tspan><tspan x="12" y="67" dominant-baseline="ideographic">pengelolaan data.</tspan></text></g></g></g><g id="g-root-tx_database_13z8p26j6mmtp-fill" data-item-order="0" transform="translate(207, 399)"><g id="tx_database_13z8p26j6mmtp-fill" stroke="none" fill="#ffffff"><g><text style="font: 20px Roboto, sans-serif; white-space: pre;" font-size="20px" font-family="Roboto, sans-serif"><tspan x="21.2" y="34" dominant-baseline="ideographic">Databases</tspan></text></g></g></g><g id="g-root-tx_methodsf_qoenryj6ml8u-fill" data-item-order="0" transform="translate(111, 513)"><g id="tx_methodsf_qoenryj6ml8u-fill" stroke="none" fill="#484848"><g><text style="font: 15px Roboto, sans-serif; white-space: pre;" font-size="15px" font-family="Roboto, sans-serif"><tspan x="16.83" y="28" dominant-baseline="ideographic">Metode untuk mengamankan </tspan><tspan x="64.81" y="46" dominant-baseline="ideographic">autentikasi pengguna.</tspan></text></g></g></g><g id="g-root-tx_authenti_hvvxsuj6h0jx-fill" data-item-order="0" transform="translate(339, 519)"><g id="tx_authenti_hvvxsuj6h0jx-fill" stroke="none" fill="#ffffff"><g><text style="font: 20px Roboto, sans-serif; white-space: pre;" font-size="20px" font-family="Roboto, sans-serif"><tspan x="12" y="34" dominant-baseline="ideographic">Authentication</tspan></text></g></g></g><g id="g-root-lock_93zowuj6o000-fill" data-item-order="0" transform="translate(495, 513)"></g><g id="g-root-2.sign-2_fr_dilk9qix2exa-stroke" data-item-order="-351924" transform="translate(327, 243)"><g id="2.sign-2_fr_dilk9qix2exa-stroke" fill="none" stroke-linecap="round" stroke-linejoin="round" stroke-miterlimit="4" stroke="#ffffff" stroke-width="2"><g><path d="M 148 106L 10 106M 10 10L 148 10M 148 10C 174.5097 10 196 31.4903 196 58C 196 84.5097 174.5097 106 148 106M 10 106L 10 10"></path></g></g></g><g id="g-root-4.sign-4_fr_92s25aix2fpk-stroke" data-item-order="-351900" transform="translate(327, 483)"><g id="4.sign-4_fr_92s25aix2fpk-stroke" fill="none" stroke-linecap="round" stroke-linejoin="round" stroke-miterlimit="4" stroke="#ffffff" stroke-width="2"><g><path d="M 196 106L 10 106M 10 10L 196 10M 196 10C 222.5097 10 244 31.4903 244 58C 244 84.5097 222.5097 106 196 106M 10 106L 10 10"></path></g></g></g><g id="g-root-1.sign-1_fr_4myk0uix2ghu-stroke" data-item-order="-351880" transform="translate(117, 123)"><g id="1.sign-1_fr_4myk0uix2ghu-stroke" fill="none" stroke-linecap="round" stroke-linejoin="round" stroke-miterlimit="4" stroke="#ffffff" stroke-width="2"><g><path d="M 58 10L 220 10M 220 106L 58 106M 58 106C 31.4903 106 10 84.5097 10 58C 10 31.4903 31.4903 10 58 10M 220 10L 220 106"></path></g></g></g><g id="g-root-3.sign-3_fr_1usflr2ix2h3g-stroke" data-item-order="-351856" transform="translate(129, 363)"><g id="3.sign-3_fr_1usflr2ix2h3g-stroke" fill="none" stroke-linecap="round" stroke-linejoin="round" stroke-miterlimit="4" stroke="#ffffff" stroke-width="2"><g><path d="M 58 10L 208 10M 208 106L 58 106M 58 106C 31.4903 106 10 84.5097 10 58C 10 31.4903 31.4903 10 58 10M 208 10L 208 106"></path></g></g></g><g id="g-root-tx_technolo_1qd8kpqix2epy-stroke" data-item-order="0" transform="translate(183, 39)"></g><g id="g-root-code_1qegan2j6gydl-stroke" data-item-order="0" transform="translate(147, 153)"><g id="code_1qegan2j6gydl-stroke" fill="none" stroke-linecap="round" stroke-linejoin="round" stroke-miterlimit="4" stroke="#ffffff" stroke-width="2"><g><path d="M 10.75 14.5C 10.75 16.571068 12.428932 18.25 14.5 18.25C 16.571068 18.25 18.25 16.571068 18.25 14.5C 18.25 12.428932 16.571068 10.75 14.5 10.75C 12.428932 10.75 10.75 12.428932 10.75 14.5M 45.25 14.5C 45.25 16.571068 43.571068 18.25 41.5 18.25L 26.5 18.25C 24.428932 18.25 22.75 16.571068 22.75 14.5C 22.75 12.428932 24.428932 10.75 26.5 10.75L 41.5 10.75C 43.571068 10.75 45.25 12.428932 45.25 14.5ZM 10.75 28C 10.75 30.071068 12.428932 31.75 14.5 31.75C 16.571068 31.75 18.25 30.071068 18.25 28C 18.25 25.928932 16.571068 24.25 14.5 24.25C 12.428932 24.25 10.75 25.928932 10.75 28M 10.75 41.5C 10.75 43.571068 12.428932 45.25 14.5 45.25C 16.571068 45.25 18.25 43.571068 18.25 41.5C 18.25 39.428932 16.571068 37.75 14.5 37.75C 12.428932 37.75 10.75 39.428932 10.75 41.5M 36.25 28C 36.25 30.071068 34.571068 31.75 32.5 31.75L 26.5 31.75C 24.428932 31.75 22.75 30.071068 22.75 28C 22.75 25.928932 24.428932 24.25 26.5 24.25L 32.5 24.25C 34.571068 24.25 36.25 25.928932 36.25 28Z"></path></g></g></g><g id="g-root-tx_acollect_1hhlkguix2fin-stroke" data-item-order="0" transform="translate(339, 141)"></g><g id="g-root-tx_framewor_140hk2mj6z75v-stroke" data-item-order="0" transform="translate(195, 159)"></g><g id="g-root-tx_platform_qp11paj6z8qs-stroke" data-item-order="0" transform="translate(147, 261)"></g><g id="g-root-tx_platform_1463qouj6nz7o-stroke" data-item-order="0" transform="translate(339, 279)"></g><g id="g-root-driv_1d1s2ceix2gaw-stroke" data-item-order="0" transform="translate(447, 273)"><g id="driv_1d1s2ceix2gaw-stroke" fill="none" stroke-linecap="round" stroke-linejoin="round" stroke-miterlimit="4" stroke="#ffffff" stroke-width="2"><g><path d="M 38.726498 31.709499C 38.726498 31.709499 45.25 30.870998 45.25 24.25C 45.251869 22.214088 44.4245 20.265217 42.958534 18.852457C 41.492569 17.439695 39.514458 16.684902 37.480003 16.762001C 35.435555 12.427964 30.712566 10.031892 26.007721 10.941868C 21.302876 11.851844 17.813944 15.836205 17.533001 20.620001C 15.874207 20.271034 14.146497 20.688728 12.830317 21.756922C 11.514137 22.825119 10.749853 24.429897 10.75 26.125002C 10.75 31.838501 16.502501 31.741001 16.502501 31.741001M 42.25 41.5C 42.25 43.571068 40.571068 45.25 38.5 45.25L 17.5 45.25C 15.428932 45.25 13.75 43.571068 13.75 41.5L 13.75 37.75L 42.25 37.75ZM 13.75 37.75L 17.2495 30.112C 17.667812 29.314548 18.475712 28.796854 19.375 28.750002L 35.5 28.75C 36.411919 28.803396 37.245491 29.28298 37.75 30.0445L 42.25 37.75ZM 32.5 42.25L 37 42.25"></path></g></g></g><g id="g-root-2_de70f2j6z75x-stroke" data-item-order="0" transform="translate(159, 393)"><g id="2_de70f2j6z75x-stroke" fill="none" stroke-linecap="round" stroke-linejoin="round" stroke-miterlimit="4" stroke="#ffffff" stroke-width="2"><g><path d="M 13.7515 18.251499C 13.7515 21.565208 20.131443 24.251501 28.001501 24.251501C 35.871559 24.251501 42.251499 21.565208 42.251499 18.251499C 42.251499 14.937792 35.871559 12.2515 28.001501 12.2515C 20.131443 12.2515 13.7515 14.937792 13.7515 18.251499ZM 42.25 24.25C 42.25 27.565001 35.868999 30.25 28 30.25C 20.131001 30.25 13.75 27.565001 13.75 24.25M 42.25 31C 42.25 34.314999 35.868999 37 28 37C 20.131001 37 13.75 34.314999 13.75 31M 13.75 18.25L 13.75 37.75C 13.75 41.064999 20.131001 43.75 28 43.75C 35.868999 43.75 42.25 41.064999 42.25 37.75L 42.25 18.25"></path></g></g></g><g id="g-root-tx_database_qun8bij6o0sm-stroke" data-item-order="0" transform="translate(339, 381)"></g><g id="g-root-tx_database_13z8p26j6mmtp-stroke" data-item-order="0" transform="translate(207, 399)"></g><g id="g-root-tx_methodsf_qoenryj6ml8u-stroke" data-item-order="0" transform="translate(111, 513)"></g><g id="g-root-tx_authenti_hvvxsuj6h0jx-stroke" data-item-order="0" transform="translate(339, 519)"></g><g id="g-root-lock_93zowuj6o000-stroke" data-item-order="0" transform="translate(495, 513)"><g id="lock_93zowuj6o000-stroke" fill="none" stroke-linecap="round" stroke-linejoin="round" stroke-miterlimit="4" stroke="#ffffff" stroke-width="2"><g><path d="M 17.071428 17.071428C 17.071428 20.26679 19.661781 22.857143 22.857143 22.857143C 26.052504 22.857143 28.642857 20.26679 28.642857 17.071428C 28.642857 13.876067 26.052504 11.285714 22.857143 11.285714C 19.661781 11.285714 17.071428 13.876067 17.071428 17.071428M 25.428572 26.997143C 21.993437 26.204082 18.384209 27.023956 15.628821 29.223257C 12.873433 31.422558 11.273875 34.760239 11.285714 38.285713L 11.285714 42.142857L 21.571428 42.142857M 30.571428 33.142857L 43.42857 33.142857C 43.42857 33.142857 44.714287 33.142857 44.714287 34.42857L 44.714287 43.42857C 44.714287 43.42857 44.714287 44.714287 43.42857 44.714287L 30.571428 44.714287C 30.571428 44.714287 29.285713 44.714287 29.285713 43.42857L 29.285713 34.42857C 29.285713 34.42857 29.285713 33.142857 30.571428 33.142857M 31.857143 33.142857L 31.857143 30.571428C 31.857143 27.731108 34.159679 25.428572 37 25.428572C 39.840321 25.428572 42.142857 27.731108 42.142857 30.571428L 42.142857 33.142857"></path></g></g></g></g></g></svg>