<?xml version="1.0" encoding="utf-8" standalone="yes"?>
<!DOCTYPE svg PUBLIC "-//W3C//DTD SVG 1.1//EN" "http://www.w3.org/Graphics/SVG/1.1/DTD/svg11.dtd">
<svg width="761" height="742" viewBox="0 0 761 742" style="fill:none;stroke:none;fill-rule:evenodd;clip-rule:evenodd;stroke-linecap:round;stroke-linejoin:round;stroke-miterlimit:1.5;" version="1.1" xmlns="http://www.w3.org/2000/svg" xmlns:xlink="http://www.w3.org/1999/xlink"><style class="text-font-style fontImports" data-font-family="Roboto">@import url('https://fonts.googleapis.com/css2?family=Roboto:wght@400;700&amp;display=block');</style><g id="items" style="isolation: isolate"><g id="blend" style="mix-blend-mode: normal"><g id="g-root-4.cu_sy_1cwr7odicw749-fill" data-item-order="-186618" transform="translate(141, 147)"><g id="4.cu_sy_1cwr7odicw749-fill" stroke="none" fill="#1eabda"><g><path d="M 226 10C 106.7084 10 10.003 106.7035 10 225.994L 94 225.978C 94.0048 196.027 103.9854 168.406 120.8 146.257L 146.587 172.044C 153.395 162.044 162.042 153.396 172.043 146.588L 146.256 120.801C 168.41 103.9818 196.039 94 226 94L 226 10Z"></path></g></g></g><g id="g-root-3.cu_sy_v5h76licw9he-fill" data-item-order="-186614" transform="translate(141, 362.979736328125)"><g id="3.cu_sy_v5h76licw9he-fill" stroke="none" fill="#de58a9"><g><path d="M 10 10.0207C 10 129.314 106.7075 226.021 226.001 226.021L 226.001 142.021L 226 142.021C 196.04 142.021 168.411 132.039 146.257 115.22L 172.043 89.4343C 162.043 82.6264 153.395 73.9789 146.587 63.9785L 120.801 89.7646C 103.9817 67.6107 94 39.9814 94 10.0207L 94 10L 10 10.0162L 10 10.0207Z"></path></g></g></g><g id="g-root-2.cu_sy_hun5wdicw7wj-fill" data-item-order="-186610" transform="translate(357.0006103515625, 363.0040283203125)"><g id="2.cu_sy_hun5wdicw7wj-fill" stroke="none" fill="#de8431"><g><path d="M 10 225.997C 129.292 225.996 225.997 129.292 225.999 10L 141.999 10.0161C 141.995 39.9691 132.014 67.5911 115.198 89.7402L 89.412 63.9541C 82.604 73.9545 73.9565 82.6019 63.9561 89.4099L 89.7422 115.196C 67.5887 132.015 39.96 141.996 10.000011 141.997L 10 225.997Z"></path></g></g></g><g id="g-root-1.cu_sy_1uonp99icwa30-fill" data-item-order="-186606" transform="translate(356.99951171875, 147.00106811523438)"><g id="1.cu_sy_1uonp99icwa30-fill" stroke="none" fill="#3cc583"><g><path d="M 226 226L 226 226.002L 142 226.018L 142 226C 142 196.04 132.019 168.411 115.2 146.257L 89.4138 172.043C 82.6059 162.043 73.9583 153.395 63.958 146.587L 89.744 120.801C 67.5902 103.9818 39.961 94.0001 10.0004 94L 10 10C 129.294 10 226 106.7065 226 226Z"></path></g></g></g><g id="g-root-0.cu_sy_1hdtnz1icw8i5-fill" data-item-order="-186602" transform="translate(261, 267)"><g id="0.cu_sy_1hdtnz1icw8i5-fill" stroke="none" fill="#666666"><g><path d="M 202 106C 202 159.019 159.019 202 106 202C 52.9807 202 10 159.019 10 106C 10 52.9807 52.9807 10 106 10C 159.019 10 202 52.9807 202 106Z"></path></g></g></g><g id="g-root-robo_qrj4bhicw8i7-fill" data-item-order="-9216" transform="translate(309, 315)"><g id="robo_qrj4bhicw8i7-fill" stroke="none" fill="#484848"><g><path d="M 102.919998 57.68C 103.107292 57.874458 103.370544 57.976833 103.639999 57.959999C 103.907043 57.96257 104.164848 57.862312 104.359993 57.679996C 105.381454 56.594673 105.965569 55.170006 106 53.68L 106 22.48C 106.019966 20.393391 104.947189 18.448303 103.171715 17.351929C 101.396248 16.255554 99.176682 16.167583 97.320007 17.120001L 81.32 25.119999C 79.28154 26.127129 77.993675 28.206322 78 30.480001L 78 45.52C 77.992256 46.13142 78.086899 46.739822 78.279999 47.32C 78.407356 47.739155 78.802322 48.018921 79.239998 47.999996L 80 48C 88.632957 48.002892 96.898514 51.493752 102.919998 57.68ZM 73.199997 48.720001C 73.666946 48.641117 74.006615 48.233513 74 47.759998L 74 16C 74 12.686292 71.313705 10 68 10L 16 10C 12.686292 10 10 12.686292 10 16L 10 60C 10 63.313709 12.686292 66 16 66L 50.599998 66C 50.989582 66.00853 51.348637 65.789978 51.52 65.440002C 55.877232 56.900482 63.833607 50.764385 73.199997 48.720001ZM 80 54C 65.640594 54.000004 54.000004 65.640594 54.000004 80C 54.000004 94.359406 65.640594 106 80 106C 94.359406 106 106 94.359406 106 80C 105.977974 65.649734 94.350273 54.022026 80 54ZM 80 92C 73.372589 92 68 86.627419 68 80C 68 73.372589 73.372589 68 80 68C 86.627419 68 92 73.372589 92 80C 92 86.627419 86.627419 92 80 92Z"></path></g></g></g><g id="g-root-11_m9u6xpicxog1-fill" data-item-order="-2304" transform="translate(213, 219)"><g id="11_m9u6xpicxog1-fill" stroke="none" fill="#484848"><g><path d="M 58 25.84C 57.992756 20.70023 55.495258 15.88265 51.299202 12.914418C 47.103146 9.946186 41.728867 9.195379 36.879997 10.9L 11.559999 16.459999C 10.455431 16.581503 9.658498 17.57543 9.78 18.68C 9.901503 19.784569 10.895431 20.581501 12 20.459999C 12.139325 20.479435 12.280674 20.479435 12.42 20.459999L 29.24 16.68C 25.532095 21.863518 25.311087 28.770023 28.68 34.18L 34.68 28.18C 34.958576 27.894106 35.340828 27.732861 35.740002 27.732861C 36.139175 27.732861 36.521423 27.894106 36.800003 28.18C 37.384907 28.765636 37.384907 29.714365 36.800003 30.300001L 12.58 54.580002C 12.201375 54.955532 11.988403 55.466724 11.988403 56C 11.988403 56.533276 12.201375 57.044468 12.58 57.419998C 12.957438 57.794373 13.468394 58.003075 14 58C 14.524679 57.997791 15.027479 57.78949 15.4 57.419998L 33.620003 39.200001C 38.507858 42.28101 44.677139 42.487415 49.759998 39.739998L 44.200001 55.32C 43.824924 56.358273 44.362026 57.504093 45.400002 57.880001C 45.593143 57.948799 45.795246 57.98922 45.999996 57.999996C 46.84206 57.999641 47.5937 57.471893 47.880001 56.68L 56.860001 31.52C 57.588161 29.713509 57.974705 27.78756 58 25.84ZM 31.299999 17.119999C 31.091208 16.895527 30.946203 16.619331 30.879999 16.32L 34 15.62L 52 33.620003L 50.880001 36.760002Z"></path></g></g></g><g id="g-root-shut_4goxi5ics1zf-fill" data-item-order="-2304" transform="translate(453, 219)"><g id="shut_4goxi5ics1zf-fill" stroke="none" fill="#484848"><g><path d="M 58 34C 58 18.360001 44.700001 10.1 34 10C 20.745167 10.000001 10.000001 20.745167 10.000001 34C 10.000001 47.254833 20.745167 58 34 58C 47.232075 57.94521 57.94521 47.232075 58.000004 34ZM 34.620003 54C 34.535751 54.028954 34.444248 54.028954 34.360001 54C 31.408548 52.266052 29.254448 49.44418 28.359999 46.139999C 27.921278 44.657459 27.672623 43.125198 27.620001 41.580002C 27.623253 41.365112 27.758366 41.174366 27.959999 41.099998C 28.157476 41.023323 28.38184 41.079414 28.52 41.239998C 31.662626 45.054291 35.945713 47.760136 40.740002 48.960003C 42.247375 49.314625 43.7915 49.489178 45.34 49.48C 45.556793 49.47728 45.750637 49.614586 45.82 49.82C 45.902779 50.025654 45.827103 50.261093 45.639999 50.380001C 42.404915 52.648769 38.570278 53.908421 34.620003 54ZM 33.379997 14C 33.462166 13.960493 33.557838 13.960493 33.639999 14C 36.59145 15.733948 38.745552 18.55582 39.639999 21.860001C 40.07872 23.342543 40.327377 24.874802 40.380001 26.42C 40.376743 26.634886 40.241631 26.825632 40.039997 26.9C 39.842522 26.976675 39.61816 26.920586 39.48 26.76C 36.346565 22.989634 32.094856 20.313927 27.34 19.120001C 25.83305 18.762928 24.288631 18.588341 22.74 18.6C 22.519558 18.599348 22.321644 18.464767 22.240002 18.26C 22.176363 18.049665 22.257515 17.822433 22.439999 17.700001C 25.636848 15.404759 29.446245 14.116389 33.379997 14ZM 54 34C 54.004627 37.302055 53.186672 40.553261 51.619999 43.459999C 51.574932 43.545238 51.505238 43.614933 51.419998 43.66C 48.442364 45.380264 44.905743 45.854691 41.580002 44.98C 40.079029 44.630531 38.632477 44.078823 37.279999 43.34C 37.086281 43.244831 36.979897 43.032074 37.019997 42.82C 37.044113 42.606163 37.207596 42.434509 37.419998 42.399998C 42.294849 41.584496 46.780506 39.229523 50.219997 35.68C 51.281967 34.566521 52.208412 33.331264 52.98 32C 53.092636 31.815557 53.307613 31.720013 53.519997 31.759998C 53.739063 31.796471 53.904507 31.978458 53.919998 32.199997C 54 32.739998 54 33.360001 54 34ZM 14 34C 13.995371 30.697945 14.813328 27.446739 16.380001 24.540001C 16.430916 24.459251 16.499252 24.390915 16.58 24.34C 19.560469 22.628059 23.093721 22.154087 26.42 23.02C 27.920973 23.369469 29.367527 23.921177 30.720001 24.66C 30.913717 24.755165 31.020098 24.967924 30.98 25.18C 30.955885 25.393833 30.792404 25.565491 30.579998 25.599998C 25.705147 26.415504 21.21949 28.770475 17.779999 32.32C 16.718033 33.433479 15.791588 34.668739 15.02 36C 14.907362 36.184441 14.692384 36.279984 14.48 36.239998C 14.260934 36.203526 14.095491 36.021538 14.08 35.799999C 14 35.260002 14 34.639999 14 34ZM 51 23.48C 51.028954 23.564249 51.028954 23.65575 51 23.74C 50.98777 27.182226 49.631374 30.483509 47.220001 32.940002C 46.155815 34.056026 44.952629 35.030678 43.639999 35.84C 43.464619 35.957832 43.235378 35.957832 43.059998 35.839996C 42.899414 35.701839 42.843323 35.477478 42.919998 35.279999C 44.640591 30.649309 44.836796 25.590036 43.48 20.84C 43.044632 19.346336 42.419537 17.914663 41.620003 16.58C 41.479599 16.40464 41.479599 16.155359 41.619999 15.98C 41.769436 15.823046 42.000549 15.77523 42.199997 15.86C 45.81686 17.482471 48.877029 20.132301 51 23.48ZM 17 44.52C 16.971046 44.435753 16.971046 44.34425 17 44.260002C 17.01223 40.817772 18.368626 37.516495 20.779999 35.059998C 21.844185 33.943974 23.047371 32.969322 24.360001 32.16C 24.535378 32.042168 24.76462 32.042168 24.939999 32.159996C 25.100586 32.298161 25.156675 32.522522 25.08 32.720001C 23.359409 37.350693 23.163204 42.409966 24.52 47.16C 24.95537 48.653667 25.580467 50.085339 26.380001 51.420002C 26.520399 51.595356 26.520399 51.844639 26.379999 52.019997C 26.237331 52.188728 25.997908 52.238262 25.799999 52.139996C 22.18314 50.517529 19.122971 47.867699 17 44.52Z"></path></g></g></g><g id="g-root-robo_1ly0hp9icxogf-fill" data-item-order="-2304" transform="translate(213, 459)"><g id="robo_1ly0hp9icxogf-fill" stroke="none" fill="#484848"><g><path d="M 31 30L 37 30C 37 30 38 30 38 31L 38 37C 38 37 38 38 37 38L 31 38C 31 38 30 38 30 37L 30 31C 30 31 30 30 31 30M 31 44L 37 44C 37 44 38 44 38 45L 38 51C 38 51 38 52 37 52L 31 52C 31 52 30 52 30 51L 30 45C 30 45 30 44 31 44M 31 16L 37 16C 37 16 38 16 38 17L 38 23C 38 23 38 24 37 24L 31 24C 31 24 30 24 30 23L 30 17C 30 17 30 16 31 16M 47 30L 53 30C 53 30 54 30 54 31L 54 37C 54 37 54 38 53 38L 47 38C 47 38 46 38 46 37L 46 31C 46 31 46 30 47 30M 15 30L 21 30C 21 30 22 30 22 31L 22 37C 22 37 22 38 21 38L 15 38C 15 38 14 38 14 37L 14 31C 14 31 14 30 15 30M 12 23C 13.104569 23 14 22.104568 14 21L 14 18C 14 17.447716 14.447716 17 15 17L 18 17C 19.104568 17 20 16.104568 20 15C 20 13.895431 19.104568 13 18 13L 14 13C 11.790861 13 10 14.790861 10 17L 10 21C 10 22.104568 10.895431 23 12 23ZM 18 51L 15 51C 14.447716 51 14 50.552284 14 50L 14 47C 14 45.895432 13.104569 45 12 45C 10.895431 45 10 45.895432 10 47L 10 51C 10 53.209141 11.790861 55 14 55L 18 55C 19.104568 55 20 54.104568 20 53C 20 51.895432 19.104568 51 18 51ZM 54 13L 50 13C 48.895432 13 48 13.895431 48 15C 48 16.104568 48.895432 17 50 17L 53 17C 53.552284 17 54 17.447716 54 18L 54 21C 54 22.104568 54.895432 23 56 23C 57.104568 23 58 22.104568 58 21L 58 17C 58 14.790861 56.209141 13 54 13ZM 56 45C 54.895432 45 54 45.895432 54 47L 54 50C 54 50.552284 53.552284 51 53 51L 50 51C 48.895432 51 48 51.895432 48 53C 48 54.104568 48.895432 55 50 55L 54 55C 56.209141 55 58 53.209141 58 51L 58 47C 58 45.895432 57.104568 45 56 45Z"></path></g></g></g><g id="g-root-fram_8d199id1vke-fill" data-item-order="-2304" transform="translate(453, 459)"><g id="fram_8d199id1vke-fill" stroke="none" fill="#484848"><g><path d="M 10 10M 48.153999 18.486L 41.470001 21.372C 41.482002 21.492001 41.489998 21.612 41.493999 21.736L 49.664001 23.978001C 51.066856 22.429426 53.351128 22.050251 55.17907 23.062531C 57.007015 24.07481 57.897663 26.212193 57.329422 28.222961C 56.761185 30.233732 54.883575 31.588812 52.796181 31.494627C 50.708786 31.400442 48.960842 29.881773 48.576 27.828001L 40.419998 25.588001C 39.466003 27.032547 37.974731 28.036402 36.277359 28.376627C 34.579987 28.716852 32.817028 28.365286 31.380001 27.4L 23.200001 32.049999C 23.617832 33.377632 23.598202 34.804367 23.144001 36.119999L 31.218 40.711998C 32.678505 39.666428 34.506744 39.272247 36.268326 39.623123C 38.029911 39.974003 39.567589 41.038612 40.515999 42.563999L 48.57 40.194C 48.944054 38.138206 50.684036 36.610367 52.770939 36.505249C 54.857841 36.400131 56.742538 37.745403 57.32127 39.753208C 57.900005 41.761009 57.020489 43.903042 55.197811 44.924831C 53.37513 45.946617 51.088886 45.579304 49.678001 44.038002L 41.482002 46.448002C 41.478138 46.508057 41.473473 46.568066 41.467999 46.627998L 48.150002 49.514C 49.768154 48.191906 52.083515 48.157661 53.740059 49.431324C 55.396606 50.704983 55.958443 52.951401 55.096523 54.854939C 54.234604 56.758476 52.175732 57.818241 50.125706 57.41357C 48.07568 57.008896 46.573944 55.246277 46.5 53.158001L 39.874001 50.298C 37.83197 52.618614 34.438114 53.180107 31.757486 51.640835C 29.076859 50.101559 27.851082 46.887371 28.826 43.954002L 20.709999 39.335999C 17.986794 41.230293 14.274061 40.770035 12.095847 38.268112C 9.917633 35.766197 9.972895 32.025452 12.224062 29.588968C 14.475229 27.152485 18.199938 26.802092 20.866001 28.776001L 28.886 24.216C 27.819279 21.278763 28.993652 17.998148 31.682077 16.405153C 34.370502 14.812157 37.812012 15.357682 39.875999 17.704L 46.5 14.84C 46.5741 12.752007 48.0756 10.989654 50.12532 10.584862C 52.175037 10.18007 54.233768 11.239326 55.09605 13.142397C 55.958328 15.045467 55.397324 17.291723 53.741524 18.565901C 52.08572 19.840076 49.770706 19.806986 48.152 18.486Z"></path></g></g></g><g id="g-root-tx_computer_142d5lpicwa32-fill" data-item-order="0" transform="translate(279, 39)"><g id="tx_computer_142d5lpicwa32-fill" stroke="none" fill="#484848"><g><text style="font: bold 20px Roboto, sans-serif; white-space: pre;" font-weight="bold" font-size="20px" font-family="Roboto, sans-serif"><tspan x="12.77" y="34" dominant-baseline="ideographic">Computer Vision</tspan></text></g></g></g><g id="g-root-tx_pytorch_1lrrqu5icxmvi-fill" data-item-order="0" transform="translate(51, 99)"><g id="tx_pytorch_1lrrqu5icxmvi-fill" stroke="none" fill="#1eabda"><g><text style="font: bold 20px Roboto, sans-serif; white-space: pre;" font-weight="bold" font-size="20px" font-family="Roboto, sans-serif"><tspan x="17.16" y="34" dominant-baseline="ideographic">Pytorch</tspan></text></g></g></g><g id="g-root-tx_opencv_zlapb1icxmv4-fill" data-item-order="0" transform="translate(579, 99)"><g id="tx_opencv_zlapb1icxmv4-fill" stroke="none" fill="#3cc583"><g><text style="font: bold 20px Roboto, sans-serif; white-space: pre;" font-weight="bold" font-size="20px" font-family="Roboto, sans-serif"><tspan x="15.4" y="34" dominant-baseline="ideographic">OpenCV</tspan></text></g></g></g><g id="g-root-tx_aframewo_i0vwrhicw9hd-fill" data-item-order="0" transform="translate(21, 135)"><g id="tx_aframewo_i0vwrhicw9hd-fill" stroke="none" fill="#32444a"><g><text style="font: 20px Roboto, sans-serif; white-space: pre;" font-size="20px" font-family="Roboto, sans-serif"><tspan x="13.81" y="34" dominant-baseline="ideographic">Kerangka kerja </tspan><tspan x="27.28" y="58" dominant-baseline="ideographic">untuk grafik </tspan><tspan x="32.53" y="82" dominant-baseline="ideographic">komputasi </tspan><tspan x="41.47" y="106" dominant-baseline="ideographic">dinamis.</tspan></text></g></g></g><g id="g-root-tx_alibrary_qns9sticxong-fill" data-item-order="0" transform="translate(525, 135)"><g id="tx_alibrary_qns9sticxong-fill" stroke="none" fill="#374840"><g><text style="font: 20px Roboto, sans-serif; white-space: pre;" font-size="20px" font-family="Roboto, sans-serif"><tspan x="32.21" y="34" dominant-baseline="ideographic">Sebuah pustaka </tspan><tspan x="51.15" y="58" dominant-baseline="ideographic">untuk tugas </tspan><tspan x="51.41" y="82" dominant-baseline="ideographic">penglihatan </tspan><tspan x="28.63" y="106" dominant-baseline="ideographic">komputer secara </tspan><tspan x="61.87" y="130" dominant-baseline="ideographic">real-time.</tspan></text></g></g></g><g id="g-root-tx_keras_18gb8gticxogf-fill" data-item-order="0" transform="translate(63, 519)"><g id="tx_keras_18gb8gticxogf-fill" stroke="none" fill="#de58a9"><g><text style="font: bold 20px Roboto, sans-serif; white-space: pre;" font-weight="bold" font-size="20px" font-family="Roboto, sans-serif"><tspan x="14.38" y="34" dominant-baseline="ideographic">Keras</tspan></text></g></g></g><g id="g-root-tx_tensorfl_8x4qe5icxnut-fill" data-item-order="0" transform="translate(567, 519)"><g id="tx_tensorfl_8x4qe5icxnut-fill" stroke="none" fill="#de8431"><g><text style="font: bold 20px Roboto, sans-serif; white-space: pre;" font-weight="bold" font-size="20px" font-family="Roboto, sans-serif"><tspan x="13.69" y="34" dominant-baseline="ideographic">Tensorflow</tspan></text></g></g></g><g id="g-root-tx_auserfri_1uljbtpicxn2i-fill" data-item-order="0" transform="translate(15, 555)"><g id="tx_auserfri_1uljbtpicxn2i-fill" stroke="none" fill="#573e4d"><g><text style="font: 20px Roboto, sans-serif; white-space: pre;" font-size="20px" font-family="Roboto, sans-serif"><tspan x="15.41" y="34" dominant-baseline="ideographic">API yang ramah </tspan><tspan x="14" y="58" dominant-baseline="ideographic">pengguna untuk </tspan><tspan x="25.05" y="82" dominant-baseline="ideographic">pembelajaran </tspan><tspan x="35.56" y="106" dominant-baseline="ideographic">mendalam.</tspan></text></g></g></g><g id="g-root-tx_aplatfor_1cuvsf1icxm9v-fill" data-item-order="0" transform="translate(513, 555)"><g id="tx_aplatfor_1cuvsf1icxm9v-fill" stroke="none" fill="#4c4034"><g><text style="font: 20px Roboto, sans-serif; white-space: pre;" font-size="20px" font-family="Roboto, sans-serif"><tspan x="14.37" y="34" dominant-baseline="ideographic">Sebuah platform untuk </tspan><tspan x="40.48" y="58" dominant-baseline="ideographic">membangun dan </tspan><tspan x="30.12" y="82" dominant-baseline="ideographic">menerapkan model </tspan><tspan x="22.85" y="106" dominant-baseline="ideographic">pembelajaran mesin.</tspan></text></g></g></g><g id="g-root-4.cu_sy_1cwr7odicw749-stroke" data-item-order="-186618" transform="translate(141, 147)"><g id="4.cu_sy_1cwr7odicw749-stroke" fill="none" stroke-linecap="round" stroke-linejoin="round" stroke-miterlimit="4" stroke="#ffffff" stroke-width="2"><g><path d="M 226 10C 106.7084 10 10.003 106.7035 10 225.9944L 94 225.9782C 94.0048 196.0265 103.9854 168.4057 120.8001 146.2574L 146.5868 172.0441C 153.3947 162.0437 162.0422 153.3961 172.0425 146.5882L 146.2557 120.8013C 168.4097 103.9818 196.0391 94 226 94L 226 10Z"></path></g></g></g><g id="g-root-3.cu_sy_v5h76licw9he-stroke" data-item-order="-186614" transform="translate(141, 362.979736328125)"><g id="3.cu_sy_v5h76licw9he-stroke" fill="none" stroke-linecap="round" stroke-linejoin="round" stroke-miterlimit="4" stroke="#ffffff" stroke-width="2"><g><path d="M 10 10.0207C 10 129.3143 106.7075 226.0207 226.001 226.0207L 226.001 142.0207L 226 142.0207C 196.0397 142.0207 168.4107 132.0393 146.257 115.2204L 172.0431 89.4343C 162.0427 82.6264 153.3951 73.9789 146.5871 63.9785L 120.801 89.7646C 103.9817 67.6107 94 39.9814 94 10.0207L 94 10L 10 10.0162L 10 10.0207Z"></path></g></g></g><g id="g-root-2.cu_sy_hun5wdicw7wj-stroke" data-item-order="-186610" transform="translate(357.0006103515625, 363.0040283203125)"><g id="2.cu_sy_hun5wdicw7wj-stroke" fill="none" stroke-linecap="round" stroke-linejoin="round" stroke-miterlimit="4" stroke="#ffffff" stroke-width="2"><g><path d="M 10 225.9966C 129.2919 225.996 225.997 129.2916 225.9989 10L 141.9989 10.0161C 141.9945 39.9691 132.0136 67.5911 115.1981 89.7402L 89.412 63.9541C 82.604 73.9545 73.9565 82.6019 63.9561 89.4099L 89.7422 115.196C 67.5887 132.0149 39.96 141.9964 10 141.9966L 10 225.9966Z"></path></g></g></g><g id="g-root-1.cu_sy_1uonp99icwa30-stroke" data-item-order="-186606" transform="translate(356.99951171875, 147.00106811523438)"><g id="1.cu_sy_1uonp99icwa30-stroke" fill="none" stroke-linecap="round" stroke-linejoin="round" stroke-miterlimit="4" stroke="#ffffff" stroke-width="2"><g><path d="M 226 226L 226 226.0022L 142 226.0183L 142 226C 142 196.0398 132.0186 168.4108 115.1997 146.2571L 89.4138 172.0431C 82.6059 162.0427 73.9583 153.3951 63.958 146.5871L 89.744 120.8011C 67.5902 103.9818 39.961 94.0001 10.0004 94L 10 10C 129.2935 10 226 106.7065 226 226Z"></path></g></g></g><g id="g-root-0.cu_sy_1hdtnz1icw8i5-stroke" data-item-order="-186602" transform="translate(261, 267)"><g id="0.cu_sy_1hdtnz1icw8i5-stroke" fill="none" stroke-linecap="round" stroke-linejoin="round" stroke-miterlimit="4" stroke="#ffffff" stroke-width="2"><g><path d="M 202 106C 202 159.0193 159.0193 202 106 202C 52.9807 202 10 159.0193 10 106C 10 52.9807 52.9807 10 106 10C 159.0193 10 202 52.9807 202 106Z"></path></g></g></g><g id="g-root-robo_qrj4bhicw8i7-stroke" data-item-order="-9216" transform="translate(309, 315)"></g><g id="g-root-11_m9u6xpicxog1-stroke" data-item-order="-2304" transform="translate(213, 219)"></g><g id="g-root-shut_4goxi5ics1zf-stroke" data-item-order="-2304" transform="translate(453, 219)"></g><g id="g-root-robo_1ly0hp9icxogf-stroke" data-item-order="-2304" transform="translate(213, 459)"></g><g id="g-root-fram_8d199id1vke-stroke" data-item-order="-2304" transform="translate(453, 459)"></g><g id="g-root-tx_computer_142d5lpicwa32-stroke" data-item-order="0" transform="translate(279, 39)"></g><g id="g-root-tx_pytorch_1lrrqu5icxmvi-stroke" data-item-order="0" transform="translate(51, 99)"></g><g id="g-root-tx_opencv_zlapb1icxmv4-stroke" data-item-order="0" transform="translate(579, 99)"></g><g id="g-root-tx_aframewo_i0vwrhicw9hd-stroke" data-item-order="0" transform="translate(21, 135)"></g><g id="g-root-tx_alibrary_qns9sticxong-stroke" data-item-order="0" transform="translate(525, 135)"></g><g id="g-root-tx_keras_18gb8gticxogf-stroke" data-item-order="0" transform="translate(63, 519)"></g><g id="g-root-tx_tensorfl_8x4qe5icxnut-stroke" data-item-order="0" transform="translate(567, 519)"></g><g id="g-root-tx_auserfri_1uljbtpicxn2i-stroke" data-item-order="0" transform="translate(15, 555)"></g><g id="g-root-tx_aplatfor_1cuvsf1icxm9v-stroke" data-item-order="0" transform="translate(513, 555)"></g></g></g></svg>