<?xml version="1.0" standalone="no"?><svg xmlns="http://www.w3.org/2000/svg" viewBox="0 0 1440 320"><path fill="#FFD166" fill-opacity="1" d="M0,288L15,277.3C30,267,60,245,90,240C120,235,150,245,180,224C210,203,240,149,270,133.3C300,117,330,139,360,144C390,149,420,139,450,144C480,149,510,171,540,181.3C570,192,600,192,630,165.3C660,139,690,85,720,69.3C750,53,780,75,810,96C840,117,870,139,900,138.7C930,139,960,117,990,128C1020,139,1050,181,1080,208C1110,235,1140,245,1170,240C1200,235,1230,213,1260,213.3C1290,213,1320,235,1350,240C1380,245,1410,235,1425,229.3L1440,224L1440,320L1425,320C1410,320,1380,320,1350,320C1320,320,1290,320,1260,320C1230,320,1200,320,1170,320C1140,320,1110,320,1080,320C1050,320,1020,320,990,320C960,320,930,320,900,320C870,320,840,320,810,320C780,320,750,320,720,320C690,320,660,320,630,320C600,320,570,320,540,320C510,320,480,320,450,320C420,320,390,320,360,320C330,320,300,320,270,320C240,320,210,320,180,320C150,320,120,320,90,320C60,320,30,320,15,320L0,320Z"></path></svg>