<?xml version="1.0" ?><svg xmlns="http://www.w3.org/2000/svg" xmlns:xlink="http://www.w3.org/1999/xlink" version="1.1" viewBox="0 0 512 512" style="enable-background:new 0 0 512 512;" xml:space="preserve"><style type="text/css">
	.st0{fill:#231A15;}
	.st1{fill:#FFE000;}
	.st2{fill:#BCA100;}
	.st3{fill:#FC0000;}
	.st4{fill:#AA0000;}
	.st5{fill:#F94343;}
	.st6{fill:#FFFFFF;}
	.st7{fill:#A58E07;}
	.st8{opacity:0.44;}
	.st9{fill:#756204;}
	.st10{opacity:0.64;}
	.st11{opacity:0.38;}
	.st12{fill:#5D5004;}
	.st13{fill:#B7A100;}
	.st14{fill:#1D4DFC;}
	.st15{fill:#143CAF;}
	.st16{opacity:0.59;}
	.st17{opacity:0.52;}
	.st18{fill:#FF7F1F;}
	.st19{fill:#C4570C;}
	.st20{fill:#B29904;}
	.st21{fill:#87720A;}
	.st22{fill:#DDDDDD;}
	.st23{opacity:0.51;}
	.st24{fill:#878787;}
	.st25{fill:#727272;}
	.st26{opacity:0.33;}
	.st27{opacity:0.46;}
	.st28{fill:#25CBF2;}
	.st29{fill:#0A8FA5;}
	.st30{opacity:0.58;}
	.st31{fill:#04889E;}
	.st32{fill:#035A63;}
	.st33{opacity:0.65;}
	.st34{opacity:0.39;}
	.st35{fill:#AB0000;}
	.st36{fill:#1987A1;}
	.st37{fill:#3F1F0A;}
	.st38{fill:#4DEEFF;}
	.st39{fill:#21B9C1;}
	.st40{fill:#BBF9FF;}
	.st41{fill:#64ACAF;}
	.st42{fill:#089FB7;}
	.st43{opacity:0.47;}
	.st44{opacity:0.42;}
	.st45{fill:#DBF7FC;}
	.st46{fill:#B2E7ED;}
	.st47{fill:#0FA2BA;}
	.st48{opacity:0.54;}
	.st49{fill:#8E7716;}
	.st50{fill:#191401;}
	.st51{fill:#382E02;}
	.st52{fill:#605106;}
	.st53{fill:#AFACA0;}
	.st54{fill:#BC0404;}
	.st55{fill:#750000;}
	.st56{fill:#A08B0D;}
	.st57{fill:#5B4C05;}
	.st58{opacity:0.4;}
	.st59{opacity:0.5;}
	.st60{fill:#FF8383;}
	.st61{fill:#FFF0A6;}
	.st62{fill:#E2C227;}
	.st63{fill:#AA9205;}
	.st64{fill:#FFEA71;}
	.st65{opacity:0.22;}
	.st66{fill:#B19B00;}
	.st67{fill:#1989A4;}
	.st68{fill:#13A0B7;}
	.st69{fill:#C4A805;}
	.st70{fill:#FFF3A9;}
	.st71{fill:#846E03;}
	.st72{fill:#2D2502;}
	.st73{opacity:0.36;}
	.st74{fill:#4DD307;}
	.st75{fill:#328402;}
	.st76{fill:#97FF5A;}
	.st77{fill:#7A6500;}
	.st78{fill:#246001;}
	.st79{fill:#359100;}
	.st80{fill:#968022;}
	.st81{fill:#4F420B;}
	.st82{fill:#FFED83;}
	.st83{fill:#BAA335;}
	.st84{fill:#8D0991;}
	.st85{fill:#4B044F;}
	.st86{fill:#CE15CE;}
	.st87{fill:#897502;}
	.st88{fill:#493D01;}
	.st89{fill:#C9C9C9;}
	.st90{fill:#2D280E;}
	.st91{fill:#378C06;}
	.st92{fill:#183A03;}
	.st93{fill:#94FF55;}
	.st94{fill:#2E7F04;}
	.st95{fill:#63AB39;}
	.st96{fill:#AA5F04;}
	.st97{fill:#633502;}
	.st98{fill:#EF9014;}
	.st99{fill:#A05A07;}
	.st100{fill:#05616B;}
	.st101{fill:#033335;}
	.st102{fill:#0E94AA;}
	.st103{fill:#035D66;}
	.st104{opacity:0.27;}
	.st105{opacity:0.43;}
	.st106{fill:#FFF203;}
	.st107{fill:#FFA300;}
	.st108{fill:#2B3030;}
	.st109{opacity:0.28;}
	.st110{fill:#FCD17A;}
	.st111{fill:#AF853A;}
	.st112{opacity:0.31;}
	.st113{fill:#B641FF;}
	.st114{fill:#700FBC;}
	.st115{fill:#F2D0B1;}
	.st116{fill:#AF835F;}
	.st117{fill:#C17540;}
	.st118{fill:#F2BA94;}
	.st119{fill:#592909;}
	.st120{fill:#2B1204;}
	.st121{fill:#894818;}
	.st122{fill:#512609;}
	.st123{fill:#FF7F15;}
	.st124{fill:#A04A0A;}
	.st125{fill:#B7865E;}
	.st126{fill:#70350E;}
	.st127{fill:#3A1805;}
	.st128{fill:#C1521B;}
	.st129{fill:#FFC7AE;}
	.st130{fill:#FF717F;}
	.st131{fill:#6E2F0F;}
	.st132{fill:#AC8675;}
	.st133{opacity:0.25;}
	.st134{opacity:0.32;}
	.st135{fill:#FFFCC5;}
	.st136{fill:#D1CA78;}
	.st137{fill:#D37733;}
	.st138{fill:#A04F18;}
	.st139{fill:#0ABFBA;}
	.st140{fill:#057F79;}
	.st141{fill:#15F9F9;}
	.st142{fill:#09B2AD;}
	.st143{fill:#B2B2B2;}
	.st144{fill:#FFF755;}
	.st145{fill:#BCB121;}
	.st146{fill:#F90368;}
	.st147{opacity:0.49;}
	.st148{fill:#B50857;}
	.st149{fill:#FF76B4;}
	.st150{fill:#F23091;}
	.st151{fill:#FFF800;}
	.st152{fill:#C9BF05;}
	.st153{fill:#FF8500;}
	.st154{fill:#A35507;}
	.st155{fill:#AA6E50;}
	.st156{fill:#723C25;}
	.st157{fill:#EAD4B9;}
	.st158{fill:#AA8D6F;}
	.st159{fill:#B7A8A5;}
	.st160{fill:#84726F;}
	.st161{fill:#77645F;}
	.st162{fill:#51403C;}
	.st163{fill:#EABBA7;}
	.st164{fill:#BC7F69;}
	.st165{fill:#7C5039;}
	.st166{fill:#442619;}
	.st167{fill:#B7AE04;}
	.st168{fill:#BAB108;}
	.st169{fill:#7A7105;}
	.st170{fill:#352B23;}
	.st171{fill:#050403;}
	.st172{fill:#706255;}
	.st173{fill:#44382E;}
	.st174{fill:#634319;}
	.st175{fill:#35210A;}
	.st176{fill:#2D1C08;}
	.st177{fill:#0A0601;}
	.st178{fill:#9E7443;}
	.st179{fill:#704D2A;}
	.st180{fill:#D8A73A;}
	.st181{fill:#A0741C;}
	.st182{fill:#3F2F28;}
	.st183{fill:#211410;}
	.st184{fill:#FF326C;}
	.st185{fill:#BC0749;}
	.st186{fill:#68390E;}
	.st187{fill:#A5632D;}
	.st188{fill:#3D1E05;}
	.st189{fill:#331A06;}
	.st190{fill:#110801;}
	.st191{fill:#160A02;}
	.st192{fill:#663514;}
	.st193{opacity:0.29;}
	.st194{fill:#FC001F;}
	.st195{fill:#AF021F;}
	.st196{fill:#C48622;}
	.st197{fill:#8C5910;}
	.st198{fill:#846D64;}
	.st199{fill:#513B35;}
	.st200{fill:#5B4842;}
	.st201{fill:#332522;}
	.st202{fill:#47332C;}
	.st203{fill:#543E38;}
	.st204{fill:#1E1412;}
	.st205{fill:#604C43;}
	.st206{fill:#D3896C;}
	.st207{fill:#FF001F;}
	.st208{fill:#AF0824;}
	.st209{fill:#A37462;}
	.st210{fill:#5E3E34;}
	.st211{fill:#874A38;}
	.st212{fill:#4C2218;}
	.st213{fill:#5B2B20;}
	.st214{fill:#210C09;}
	.st215{fill:#99001A;}
	.st216{fill:#A08A07;}
	.st217{fill:#A08904;}
	.st218{fill:#5B4C02;}
	.st219{fill:#CECAB7;}
	.st220{fill:#727068;}
	.st221{fill:#42403A;}
	.st222{fill:#B2B0A6;}
	.st223{fill:#726F62;}
	.st224{fill:#6B4F45;}
	.st225{fill:#3A261F;}
	.st226{fill:#777468;}
	.st227{fill:#474436;}
	.st228{fill:#B78B7D;}
	.st229{fill:#845A4E;}
	.st230{fill:#3A372D;}
	.st231{fill:#43CFFF;}
	.st232{fill:#13A0BC;}
</style><g id="_x31_4"><g><path class="st0" d="M329.56,433.29c-1.34,0-2.69-0.29-3.96-0.9l-146.23-70.23c-1.86,0.34-3.82,0.11-5.61-0.75L24.29,289.6    c-2.38-1.14-4.15-3.26-4.86-5.81c-0.71-2.55-0.28-5.27,1.18-7.48l40.9-62.09c0.4-0.6,0.87-1.16,1.4-1.65L192.67,91.36    c2.5-2.34,6.1-3.08,9.33-1.93l43.89,15.69l25.63-23.94c2.5-2.34,6.1-3.08,9.33-1.93l97.1,34.71c1.66,0.59,3.11,1.65,4.18,3.05    l35.9,46.79c2.67,3.48,2.5,8.37-0.42,11.65l-5.25,5.91l38.56,13.78c1.66,0.59,3.11,1.65,4.18,3.05l35.9,46.79    c2.67,3.48,2.5,8.37-0.42,11.65L336.41,430.22C334.63,432.22,332.12,433.29,329.56,433.29z M193.31,348.54L327.3,412.9    L471.88,250.1l-29.65-38.65l-48.79-17.44c-2.86-1.02-5.03-3.4-5.79-6.35c-0.75-2.95,0-6.08,2.02-8.35l9.23-10.39l-29.65-38.65    l-89.31-31.92l-25.63,23.94c-2.5,2.34-6.1,3.08-9.33,1.93l-43.89-15.69L76.2,225.21l-34.54,52.43l133.81,64.27l2.47-2.78    c3.19-3.59,8.61-4.11,12.42-1.18C193.65,340.47,194.77,344.82,193.31,348.54z"/></g><g><g><g><g><polyline class="st1" points="177.73,353.15 28.25,281.35 69.15,219.27 193.62,242.95      "/></g><g><path class="st2" d="M121.19,229.17l40.66,21.89c0,0,2.75,43.6-33.65,42.24c-24.57-0.91-61.51-23.32-82.93-37.79l-17.02,25.84       l149.48,71.8l15.89-110.2L121.19,229.17z"/></g></g><g><g><polyline class="st1" points="296.02,132.76 331.92,179.54 177.73,353.15 177.73,265.46      "/></g><g><path class="st2" d="M296.02,187.89c-7.65,22.84-110.05,126.42-110.05,126.42v29.56l145.95-164.33l-35.9-46.79l-8.45,9.48       C292.96,152.21,301.44,171.69,296.02,187.89z"/></g></g><g><g><polygon class="st1" points="69.15,219.27 198.92,98.05 296.02,132.76 178.61,269.58      "/></g><g><path class="st2" d="M169.25,238.31c-14.92-1.93-53.78-24.96-78.49-39.23l-21.6,20.18l109.46,50.32l117.4-136.83l-5.64-2.01       C268.34,154.84,188.27,240.78,169.25,238.31z"/></g><g class="st8"><path class="st6" d="M140.25,251.95l-6.76-3.11l-9.6-80.71l6.21-5.8L140.25,251.95z M178.93,116.72l-16.22,15.15l18.11,135.14       l0.11-0.13l14.22-16.57L178.93,116.72z M103.11,234.87l20.01,9.2l-8.07-67.68l-16.02,14.97L103.11,234.87z M199.69,98.33       l-0.77-0.28l-7.08,6.61l17.99,128.55l4.98-5.8C212.57,206.77,203.86,127.09,199.69,98.33z M266.04,167.69l-8.36-48.64       l-7.18-2.57l11.54,55.87L266.04,167.69L266.04,167.69z M254.82,180.77l-11.33-66.78l-16.79-6l17.92,84.68L254.82,180.77       L254.82,180.77z"/></g></g><g><path class="st6" d="M71.26,217.3L198.92,98.05l91.47,32.69l-92.05-24.67 M185.97,269.58c0.59-2.35,110.05-136.83,110.05-136.83      l-117.4,136.83l-0.88,83.57 M71.26,229.17l107.35,42.77L69.15,219.27l-40.9,62.09"/></g></g><g><g><g><polyline class="st1" points="329.56,424.14 180.08,352.34 220.98,290.25 345.45,313.94      "/></g><g><path class="st2" d="M273.02,300.16l40.66,21.89c0,0,2.75,43.6-33.65,42.24c-24.57-0.91-61.51-23.32-82.93-37.79l-17.02,25.84       l149.48,71.8l15.89-110.2L273.02,300.16z"/></g></g><g><g><polyline class="st1" points="447.85,203.75 483.75,250.53 329.56,424.14 329.56,336.45      "/></g><g><path class="st2" d="M447.85,258.88C440.2,281.72,337.8,385.3,337.8,385.3v29.56l145.95-164.33l-35.9-46.79l-8.45,9.48       C444.79,223.19,453.28,242.68,447.85,258.88z"/></g></g><g><g><polygon class="st1" points="220.98,290.25 350.75,169.04 447.85,203.75 330.44,340.57      "/></g><g><path class="st2" d="M321.08,309.3c-14.92-1.93-53.78-24.96-78.49-39.23l-21.6,20.18l109.46,50.32l117.4-136.83l-5.64-2.01       C420.18,225.83,340.1,311.77,321.08,309.3z"/></g><g class="st8"><path class="st6" d="M292.08,322.94l-6.76-3.11l-9.6-80.71l6.21-5.8L292.08,322.94z M330.76,187.71l-16.22,15.15L332.65,338       l0.11-0.13l14.22-16.57L330.76,187.71z M254.94,305.86l20.01,9.2l-8.07-67.68l-16.02,14.97L254.94,305.86z M351.52,169.31       l-0.77-0.28l-7.08,6.61l17.99,128.55l4.98-5.8C364.4,277.76,355.69,198.07,351.52,169.31z M417.87,238.68l-8.36-48.64       l-7.18-2.57l11.54,55.87L417.87,238.68L417.87,238.68z M406.65,251.75l-11.33-66.78l-16.79-6l17.92,84.68L406.65,251.75       L406.65,251.75z"/></g></g><g><path class="st6" d="M223.09,288.29l127.66-119.25l91.47,32.69l-92.05-24.67 M337.8,340.57      c0.59-2.35,110.05-136.83,110.05-136.83l-117.4,136.83l-0.88,83.57 M223.09,300.16l107.35,42.77l-109.46-52.67l-40.9,62.09"/></g></g><g><g><g><polyline class="st1" points="256.59,342.96 107.11,271.17 148.01,209.08 272.48,232.77      "/></g><g><path class="st2" d="M200.04,218.98l40.66,21.89c0,0,2.75,43.6-33.65,42.24c-24.57-0.91-61.51-23.32-82.93-37.79l-17.02,25.84       l149.48,71.8l15.89-110.2L200.04,218.98z"/></g></g><g><g><polyline class="st1" points="374.88,122.57 410.77,169.36 256.59,342.96 256.59,255.28      "/></g><g><path class="st2" d="M374.88,177.7c-7.65,22.84-110.05,126.42-110.05,126.42v29.56l145.95-164.33l-35.9-46.79l-8.45,9.48       C371.82,142.02,380.3,161.5,374.88,177.7z"/></g></g><g><g><polygon class="st1" points="148.01,209.08 277.77,87.86 374.88,122.57 257.47,259.4      "/></g><g><path class="st2" d="M248.11,228.13c-14.92-1.93-53.78-24.96-78.49-39.23l-21.6,20.18l109.46,50.32l117.4-136.83l-5.64-2.01       C347.2,144.65,267.13,230.59,248.11,228.13z"/></g><g class="st8"><path class="st6" d="M219.11,241.76l-6.76-3.11l-9.6-80.71l6.21-5.8L219.11,241.76z M257.78,106.54l-16.22,15.15l18.11,135.14       l0.11-0.13l14.22-16.57L257.78,106.54z M181.97,224.69l20.01,9.2l-8.07-67.68l-16.02,14.97L181.97,224.69z M278.55,88.14       l-0.77-0.28l-7.08,6.61l17.99,128.55l4.98-5.8C291.43,196.58,282.72,116.9,278.55,88.14z M344.9,157.51l-8.36-48.64l-7.18-2.57       l11.54,55.87L344.9,157.51L344.9,157.51z M333.68,170.58l-11.33-66.78l-16.79-6l17.92,84.68L333.68,170.58L333.68,170.58z"/></g></g><g><path class="st6" d="M150.12,207.11L277.77,87.86l91.47,32.69l-92.05-24.67 M264.83,259.4      c0.59-2.35,110.05-136.83,110.05-136.83L257.47,259.4l-0.88,83.57 M150.12,218.98l107.35,42.77l-109.46-52.67l-40.9,62.09"/></g></g></g></g></svg>