<?xml version="1.0" ?><svg xmlns="http://www.w3.org/2000/svg" xmlns:xlink="http://www.w3.org/1999/xlink" version="1.1" viewBox="0 0 512 512" style="enable-background:new 0 0 512 512;" xml:space="preserve"><style type="text/css">
	.st0{fill:#231A15;}
	.st1{fill:#FFE000;}
	.st2{fill:#BCA100;}
	.st3{fill:#FC0000;}
	.st4{fill:#AA0000;}
	.st5{fill:#F94343;}
	.st6{fill:#FFFFFF;}
	.st7{fill:#A58E07;}
	.st8{opacity:0.44;}
	.st9{fill:#756204;}
	.st10{opacity:0.64;}
	.st11{opacity:0.38;}
	.st12{fill:#5D5004;}
	.st13{fill:#B7A100;}
	.st14{fill:#1D4DFC;}
	.st15{fill:#143CAF;}
	.st16{opacity:0.59;}
	.st17{opacity:0.52;}
	.st18{fill:#FF7F1F;}
	.st19{fill:#C4570C;}
	.st20{fill:#B29904;}
	.st21{fill:#87720A;}
	.st22{fill:#DDDDDD;}
	.st23{opacity:0.51;}
	.st24{fill:#878787;}
	.st25{fill:#727272;}
	.st26{opacity:0.33;}
	.st27{opacity:0.46;}
	.st28{fill:#25CBF2;}
	.st29{fill:#0A8FA5;}
	.st30{opacity:0.58;}
	.st31{fill:#04889E;}
	.st32{fill:#035A63;}
	.st33{opacity:0.65;}
	.st34{opacity:0.39;}
	.st35{fill:#AB0000;}
	.st36{fill:#1987A1;}
	.st37{fill:#3F1F0A;}
	.st38{fill:#4DEEFF;}
	.st39{fill:#21B9C1;}
	.st40{fill:#BBF9FF;}
	.st41{fill:#64ACAF;}
	.st42{fill:#089FB7;}
	.st43{opacity:0.47;}
	.st44{opacity:0.42;}
	.st45{fill:#DBF7FC;}
	.st46{fill:#B2E7ED;}
	.st47{fill:#0FA2BA;}
	.st48{opacity:0.54;}
	.st49{fill:#8E7716;}
	.st50{fill:#191401;}
	.st51{fill:#382E02;}
	.st52{fill:#605106;}
	.st53{fill:#AFACA0;}
	.st54{fill:#BC0404;}
	.st55{fill:#750000;}
	.st56{fill:#A08B0D;}
	.st57{fill:#5B4C05;}
	.st58{opacity:0.4;}
	.st59{opacity:0.5;}
	.st60{fill:#FF8383;}
	.st61{fill:#FFF0A6;}
	.st62{fill:#E2C227;}
	.st63{fill:#AA9205;}
	.st64{fill:#FFEA71;}
	.st65{opacity:0.22;}
	.st66{fill:#B19B00;}
	.st67{fill:#1989A4;}
	.st68{fill:#13A0B7;}
	.st69{fill:#C4A805;}
	.st70{fill:#FFF3A9;}
	.st71{fill:#846E03;}
	.st72{fill:#2D2502;}
	.st73{opacity:0.36;}
	.st74{fill:#4DD307;}
	.st75{fill:#328402;}
	.st76{fill:#97FF5A;}
	.st77{fill:#7A6500;}
	.st78{fill:#246001;}
	.st79{fill:#359100;}
	.st80{fill:#968022;}
	.st81{fill:#4F420B;}
	.st82{fill:#FFED83;}
	.st83{fill:#BAA335;}
	.st84{fill:#8D0991;}
	.st85{fill:#4B044F;}
	.st86{fill:#CE15CE;}
	.st87{fill:#897502;}
	.st88{fill:#493D01;}
	.st89{fill:#C9C9C9;}
	.st90{fill:#2D280E;}
	.st91{fill:#378C06;}
	.st92{fill:#183A03;}
	.st93{fill:#94FF55;}
	.st94{fill:#2E7F04;}
	.st95{fill:#63AB39;}
	.st96{fill:#AA5F04;}
	.st97{fill:#633502;}
	.st98{fill:#EF9014;}
	.st99{fill:#A05A07;}
	.st100{fill:#05616B;}
	.st101{fill:#033335;}
	.st102{fill:#0E94AA;}
	.st103{fill:#035D66;}
	.st104{opacity:0.27;}
	.st105{opacity:0.43;}
	.st106{fill:#FFF203;}
	.st107{fill:#FFA300;}
	.st108{fill:#2B3030;}
	.st109{opacity:0.28;}
	.st110{fill:#FCD17A;}
	.st111{fill:#AF853A;}
	.st112{opacity:0.31;}
	.st113{fill:#B641FF;}
	.st114{fill:#700FBC;}
	.st115{fill:#F2D0B1;}
	.st116{fill:#AF835F;}
	.st117{fill:#C17540;}
	.st118{fill:#F2BA94;}
	.st119{fill:#592909;}
	.st120{fill:#2B1204;}
	.st121{fill:#894818;}
	.st122{fill:#512609;}
	.st123{fill:#FF7F15;}
	.st124{fill:#A04A0A;}
	.st125{fill:#B7865E;}
	.st126{fill:#70350E;}
	.st127{fill:#3A1805;}
	.st128{fill:#C1521B;}
	.st129{fill:#FFC7AE;}
	.st130{fill:#FF717F;}
	.st131{fill:#6E2F0F;}
	.st132{fill:#AC8675;}
	.st133{opacity:0.25;}
	.st134{opacity:0.32;}
	.st135{fill:#FFFCC5;}
	.st136{fill:#D1CA78;}
	.st137{fill:#D37733;}
	.st138{fill:#A04F18;}
	.st139{fill:#0ABFBA;}
	.st140{fill:#057F79;}
	.st141{fill:#15F9F9;}
	.st142{fill:#09B2AD;}
	.st143{fill:#B2B2B2;}
	.st144{fill:#FFF755;}
	.st145{fill:#BCB121;}
	.st146{fill:#F90368;}
	.st147{opacity:0.49;}
	.st148{fill:#B50857;}
	.st149{fill:#FF76B4;}
	.st150{fill:#F23091;}
	.st151{fill:#FFF800;}
	.st152{fill:#C9BF05;}
	.st153{fill:#FF8500;}
	.st154{fill:#A35507;}
	.st155{fill:#AA6E50;}
	.st156{fill:#723C25;}
	.st157{fill:#EAD4B9;}
	.st158{fill:#AA8D6F;}
	.st159{fill:#B7A8A5;}
	.st160{fill:#84726F;}
	.st161{fill:#77645F;}
	.st162{fill:#51403C;}
	.st163{fill:#EABBA7;}
	.st164{fill:#BC7F69;}
	.st165{fill:#7C5039;}
	.st166{fill:#442619;}
	.st167{fill:#B7AE04;}
	.st168{fill:#BAB108;}
	.st169{fill:#7A7105;}
	.st170{fill:#352B23;}
	.st171{fill:#050403;}
	.st172{fill:#706255;}
	.st173{fill:#44382E;}
	.st174{fill:#634319;}
	.st175{fill:#35210A;}
	.st176{fill:#2D1C08;}
	.st177{fill:#0A0601;}
	.st178{fill:#9E7443;}
	.st179{fill:#704D2A;}
	.st180{fill:#D8A73A;}
	.st181{fill:#A0741C;}
	.st182{fill:#3F2F28;}
	.st183{fill:#211410;}
	.st184{fill:#FF326C;}
	.st185{fill:#BC0749;}
	.st186{fill:#68390E;}
	.st187{fill:#A5632D;}
	.st188{fill:#3D1E05;}
	.st189{fill:#331A06;}
	.st190{fill:#110801;}
	.st191{fill:#160A02;}
	.st192{fill:#663514;}
	.st193{opacity:0.29;}
	.st194{fill:#FC001F;}
	.st195{fill:#AF021F;}
	.st196{fill:#C48622;}
	.st197{fill:#8C5910;}
	.st198{fill:#846D64;}
	.st199{fill:#513B35;}
	.st200{fill:#5B4842;}
	.st201{fill:#332522;}
	.st202{fill:#47332C;}
	.st203{fill:#543E38;}
	.st204{fill:#1E1412;}
	.st205{fill:#604C43;}
	.st206{fill:#D3896C;}
	.st207{fill:#FF001F;}
	.st208{fill:#AF0824;}
	.st209{fill:#A37462;}
	.st210{fill:#5E3E34;}
	.st211{fill:#874A38;}
	.st212{fill:#4C2218;}
	.st213{fill:#5B2B20;}
	.st214{fill:#210C09;}
	.st215{fill:#99001A;}
	.st216{fill:#A08A07;}
	.st217{fill:#A08904;}
	.st218{fill:#5B4C02;}
	.st219{fill:#CECAB7;}
	.st220{fill:#727068;}
	.st221{fill:#42403A;}
	.st222{fill:#B2B0A6;}
	.st223{fill:#726F62;}
	.st224{fill:#6B4F45;}
	.st225{fill:#3A261F;}
	.st226{fill:#777468;}
	.st227{fill:#474436;}
	.st228{fill:#B78B7D;}
	.st229{fill:#845A4E;}
	.st230{fill:#3A372D;}
	.st231{fill:#43CFFF;}
	.st232{fill:#13A0BC;}
</style><g id="_x35_4"><g><path class="st0" d="M231.58,486.56c-11.39,0-20.35-1.02-21.8-1.2c-0.17-0.02-0.35-0.05-0.52-0.08c-0.83-0.15-1.65-0.29-2.46-0.45    l-0.81-0.16c-0.53-0.1-1.07-0.21-1.6-0.32l-0.91-0.19c-0.47-0.1-0.96-0.21-1.43-0.31l-0.9-0.21c-0.48-0.11-0.94-0.22-1.39-0.33    l-0.86-0.21c-0.5-0.13-0.98-0.25-1.46-0.38l-0.74-0.2c-0.61-0.17-1.2-0.33-1.78-0.5l-0.31-0.09c-0.71-0.21-1.39-0.42-2.06-0.64    l-0.58-0.19c-0.47-0.15-0.94-0.31-1.4-0.47l-0.72-0.25c-0.41-0.14-0.81-0.29-1.21-0.44l-0.76-0.29c-0.38-0.14-0.76-0.29-1.14-0.44    l-0.72-0.29c-0.38-0.15-0.76-0.31-1.14-0.48l-0.67-0.29c-0.42-0.19-0.86-0.39-1.29-0.59l-0.39-0.18    c-0.58-0.27-1.14-0.55-1.68-0.82l-0.34-0.18c-0.48-0.25-0.89-0.46-1.29-0.68l-0.56-0.31c-0.33-0.18-0.67-0.38-1-0.57l-0.58-0.34    c-0.34-0.21-0.65-0.4-0.96-0.59c-0.15-0.1-0.36-0.23-0.57-0.36c-0.29-0.19-0.59-0.38-0.89-0.58l-0.56-0.38    c-0.32-0.22-0.64-0.45-0.97-0.69l-0.38-0.28c-0.47-0.35-0.91-0.69-1.33-1.03l-0.29-0.24c-0.29-0.23-0.63-0.51-0.96-0.8l-0.44-0.38    c-0.28-0.25-0.54-0.48-0.79-0.71l-0.42-0.4c-0.27-0.26-0.5-0.48-0.73-0.71c-0.15-0.15-0.3-0.3-0.46-0.46    c-0.24-0.25-0.47-0.49-0.69-0.73l-0.38-0.41c-0.26-0.29-0.48-0.54-0.7-0.8l-0.33-0.39c-0.33-0.39-0.64-0.78-0.94-1.16    c-0.04-0.06-0.09-0.11-0.13-0.17c-0.01-0.01-0.02-0.02-0.03-0.04c-0.27-0.35-0.52-0.69-0.77-1.04c-0.08-0.11-0.17-0.24-0.26-0.38    c-0.23-0.33-0.41-0.59-0.58-0.86c-0.12-0.17-0.23-0.36-0.34-0.54c-0.14-0.21-0.29-0.47-0.45-0.73l-0.31-0.53    c-0.16-0.28-0.3-0.53-0.44-0.78l-0.27-0.5c-0.14-0.27-0.28-0.54-0.42-0.81l-0.05-0.09c-0.07-0.15-0.15-0.29-0.22-0.44    c-0.14-0.3-0.3-0.64-0.45-0.98c-0.04-0.08-0.09-0.19-0.14-0.31c-0.18-0.42-0.36-0.85-0.53-1.27l-0.16-0.41    c-0.13-0.34-0.24-0.62-0.33-0.91l-0.18-0.52c-0.09-0.28-0.18-0.53-0.26-0.79l-0.17-0.56c-0.09-0.31-0.17-0.57-0.24-0.83    c-0.04-0.14-0.1-0.36-0.15-0.57c-0.06-0.24-0.13-0.5-0.19-0.76l-0.13-0.55c-0.07-0.29-0.13-0.59-0.19-0.89    c-0.04-0.17-0.07-0.32-0.1-0.47c-0.07-0.37-0.15-0.8-0.23-1.24l-0.07-0.42c-0.05-0.32-0.1-0.61-0.14-0.9l-0.23-1.92    c-0.02-0.2-0.04-0.44-0.06-0.69l-0.13-1.87c-0.01-0.26-0.02-0.52-0.03-0.77l-0.02-0.5c-0.01-0.44-0.02-0.85-0.02-1.25l0.22-6.14    c0-0.02,0.01-0.08,0.01-0.1l0.09-1.11c0.04-0.45,0.08-0.89,0.13-1.33l0.64-5.05c0.41-2.81,0.9-5.6,1.37-8.3    c0.16-0.93,0.32-1.85,0.48-2.76c2.51-14.71,11.21-25.19,24.67-29.88c-0.48-41.45,4.48-110.17,7.17-144.1    c-0.18-0.14-0.35-0.28-0.53-0.42c-3.51,1.92-7.1,3.79-10.67,5.55c-0.71,0.35-1.43,0.7-2.16,1.06c-3.02,1.46-6.1,2.88-9.16,4.22    c-5.98,2.62-12,4.99-17.91,7.05c-3.72,1.3-7.47,2.5-11.14,3.57c-0.96,0.28-1.91,0.55-2.87,0.81c-1.95,0.54-3.92,1.05-5.85,1.52    c-2.66,0.65-5.35,1.24-8.03,1.77c-4.5,5.04-6.78,6.65-8.87,7.92c-2.83,1.73-6.07,2.64-9.38,2.64c-0.62,0-1.23-0.04-1.88-0.11    c-5.16-0.54-9.71-3.19-12.7-7.33c-5.38-0.09-10.66-0.5-15.76-1.23c-1.21-0.17-2.43-0.4-3.63-0.66c-0.34-0.07-0.69-0.17-1.03-0.26    l-0.38-0.1c-0.71-0.18-1.42-0.36-2.11-0.57c-0.38-0.11-0.74-0.24-1.11-0.37l-0.55-0.19c-0.58-0.19-1.17-0.39-1.74-0.61    c-0.4-0.16-0.78-0.32-1.16-0.49l-0.51-0.22c-0.54-0.23-1.09-0.46-1.62-0.71c-0.38-0.18-0.76-0.38-1.13-0.57l-0.56-0.29    c-0.5-0.25-0.99-0.51-1.47-0.79c-0.37-0.21-0.74-0.44-1.11-0.67l-0.48-0.29c-0.47-0.29-0.94-0.58-1.41-0.89    c-0.39-0.26-0.76-0.53-1.13-0.79l-0.37-0.27c-0.46-0.33-0.92-0.65-1.36-1c-0.38-0.3-0.75-0.6-1.12-0.9l-0.29-0.24    c-0.44-0.36-0.88-0.72-1.31-1.1c-0.37-0.32-0.71-0.64-1.06-0.97l-0.18-0.17c-0.48-0.44-0.92-0.86-1.35-1.29    c-0.38-0.38-0.76-0.78-1.15-1.18c-0.45-0.47-0.87-0.91-1.28-1.37c-0.36-0.4-0.7-0.8-1.04-1.2l-0.08-0.1    c-0.41-0.49-0.8-0.95-1.19-1.43c-0.36-0.44-0.71-0.9-1.06-1.36c-0.38-0.5-0.75-0.98-1.11-1.49c-0.34-0.47-0.68-0.96-1.01-1.45    c-0.35-0.5-0.69-1.02-1.03-1.54c-0.31-0.48-0.63-0.98-0.94-1.49c-0.33-0.54-0.65-1.07-0.97-1.6c-0.3-0.5-0.6-1.03-0.9-1.57    s-0.59-1.08-0.89-1.62c-0.29-0.54-0.57-1.08-0.85-1.64c-0.28-0.55-0.55-1.1-0.82-1.65c-0.28-0.58-0.54-1.14-0.8-1.71    c-0.26-0.57-0.51-1.14-0.76-1.71c-0.25-0.58-0.51-1.17-0.75-1.77c-0.23-0.56-0.46-1.14-0.69-1.72c-0.24-0.61-0.48-1.21-0.71-1.83    c-0.22-0.57-0.43-1.16-0.64-1.75c-0.23-0.63-0.45-1.25-0.66-1.88c-0.21-0.62-0.4-1.21-0.59-1.8c-0.2-0.62-0.41-1.27-0.61-1.92    c-0.17-0.54-0.33-1.1-0.49-1.65l-0.1-0.33c-0.17-0.6-0.35-1.21-0.52-1.82c-0.13-0.49-0.26-0.98-0.39-1.47l-0.17-0.64    c-0.15-0.59-0.3-1.17-0.45-1.76c-0.11-0.46-0.22-0.93-0.33-1.4l-0.19-0.83c-0.13-0.57-0.26-1.13-0.39-1.71    c-0.1-0.45-0.19-0.91-0.28-1.37l-0.15-0.71c-0.13-0.64-0.26-1.27-0.38-1.91c-0.08-0.41-0.16-0.85-0.23-1.29l-0.14-0.78    c-0.12-0.65-0.24-1.31-0.35-1.97c-0.06-0.38-0.12-0.78-0.19-1.17l-0.13-0.87c-0.11-0.68-0.21-1.35-0.31-2.04    c-0.05-0.36-0.1-0.71-0.14-1.07l-0.13-1.02c-0.09-0.69-0.18-1.37-0.27-2.07c-0.03-0.28-0.07-0.58-0.1-0.88l-0.08-0.76    c-0.1-0.84-0.19-1.68-0.27-2.53l-0.06-0.72c-0.17-1.75-0.31-3.57-0.44-5.55l0.06,0c-1.1-12.97-6.63-110.31,48.79-130.52    c7.86-6.18,39.34-27.34,91.35-17.29c7.69,1.49,15.45,3.99,23.06,7.45c0.02,0.01,0.04,0.02,0.05,0.02c3.18,1.45,6.37,3.07,9.5,4.84    l13.12,1.54c9.5,1.12,16.46,9.47,15.85,19.01c-0.01,0.3-0.04,0.61-0.07,0.93c0,0.03-0.01,0.07-0.01,0.1    c6.98,6.54,13.71,13.86,20.08,21.86c7.58,1.04,14.98,3.46,21.86,7.13c13.35-10.75,47.98-36.81,78.66-44.49    c5.4-7.49,9.13-11.4,13.53-12.46c4.64-1.63,9.7-1.3,14.13,0.96c0.43,0.22,0.84,0.45,1.24,0.69c0.44,0.26,0.89,0.56,1.32,0.89    c1.43,1.06,2.67,2.31,3.71,3.71c5.59-1.52,16.08-3.79,28.55-3.66c24.85,0.26,45.95,9.83,61.03,27.66c0.5,0.59,1,1.19,1.49,1.8    c0.18,0.22,0.34,0.43,0.5,0.64l0.16,0.21c0.36,0.46,0.73,0.94,1.09,1.43c0.19,0.25,0.36,0.5,0.54,0.74l0.15,0.21    c0.35,0.49,0.69,0.96,1.03,1.44c0.24,0.35,0.47,0.68,0.7,1.02c0.33,0.48,0.65,0.98,0.98,1.48c0.23,0.35,0.45,0.7,0.67,1.05    c0.32,0.52,0.65,1.05,0.97,1.58l0.14,0.23c0.16,0.26,0.32,0.53,0.48,0.8c0.36,0.61,0.7,1.22,1.05,1.84l0.15,0.26    c0.12,0.21,0.24,0.43,0.36,0.65c0.49,0.9,0.99,1.83,1.48,2.8c1.76,3.47,3.46,7.22,5.06,11.13c0.35,0.85,0.69,1.71,1.03,2.57    c4.5,11.58,7.81,23.87,9.83,36.55l0.18,1.14c0,0,0,0,0,0.01c3.63,23.74,2.4,46.58-3.56,66.06c-0.36,1.18-0.74,2.35-1.14,3.51    c-2.89,8.44-6.71,16.2-11.37,23.07c-7.25,10.71-16.56,19.34-27.67,25.66c-2.31,1.32-4.74,2.55-7.21,3.67    c-13.78,6.22-29.97,9.28-48.15,9.07c-0.97,0.2-1.8,0.34-2.62,0.46c-5.09,0.73-10.38,1.14-15.76,1.23    c-3.38,4.69-8.74,7.44-14.59,7.44c-3.31,0-6.55-0.92-9.38-2.65c-2.09-1.28-4.37-2.89-8.86-7.92c-2.9-0.57-5.83-1.23-8.76-1.96    c-1.83-0.46-3.5-0.89-5.11-1.33c-0.96-0.26-1.91-0.54-2.86-0.81c-1.68-0.49-3.34-1-4.98-1.52c-0.53-0.17-1.06-0.34-1.58-0.51    c-1.54-0.5-3.07-1.01-4.58-1.54c-1.76-0.61-3.55-1.26-5.33-1.93c-0.88-0.33-1.75-0.66-2.61-1c-3.62-1.41-7.33-2.95-11.02-4.59    c-2.73-1.21-5.46-2.47-8.11-3.75c-1.09-0.53-2.16-1.05-3.21-1.58c-2.29-1.14-4.57-2.32-6.82-3.52    c2.55,37.77,7.03,108.01,7.8,145.45c0.04,0.02,0.08,0.04,0.12,0.06l0.34,0.19c0.45,0.25,0.88,0.49,1.3,0.75l0.4,0.24    c0.48,0.3,0.92,0.58,1.35,0.88l0.29,0.19c0.57,0.4,1.11,0.8,1.65,1.22c0.03,0.02,0.06,0.05,0.09,0.07    c0.02,0.02,0.05,0.04,0.07,0.06c0.47,0.37,0.93,0.76,1.39,1.17l0.34,0.31c0.45,0.41,0.84,0.78,1.22,1.16    c0.12,0.11,0.27,0.27,0.43,0.43c0.39,0.4,0.78,0.82,1.16,1.25c0.11,0.12,0.21,0.23,0.31,0.35c0.49,0.57,0.97,1.16,1.41,1.76    c0.06,0.07,0.17,0.23,0.28,0.39c0.31,0.42,0.66,0.92,1.01,1.45l0.32,0.5c0,0,0.06,0.09,0.06,0.09c0.3,0.48,0.6,0.97,0.88,1.47    c0.12,0.21,0.22,0.39,0.33,0.58c0.32,0.6,0.62,1.19,0.91,1.8c0.07,0.14,0.14,0.28,0.2,0.43c0.3,0.65,0.62,1.42,0.93,2.21    c0.07,0.18,0.14,0.37,0.21,0.56c0.23,0.63,0.44,1.22,0.63,1.83c0.08,0.26,0.17,0.55,0.25,0.84c0.17,0.56,0.33,1.16,0.48,1.76    l0.04,0.16c0.05,0.21,0.11,0.42,0.16,0.64c0.22,0.93,0.39,1.8,0.53,2.64c0.16,0.92,0.32,1.85,0.48,2.78    c2.19,12.54,4.68,26.76-1.11,40.08c-6.66,15.33-22.44,25.09-48.23,29.83c-0.45,0.08-0.91,0.14-1.38,0.16    c-0.59,0.03-1.28,0.09-2.05,0.19C244.72,486.26,237.79,486.56,231.58,486.56z M212.42,465.54c2.63,0.3,20.24,2.15,36.48-0.01    c1.09-0.15,2.1-0.25,3.07-0.31c39.5-7.43,36.62-23.92,32.64-46.68c-0.17-0.96-0.33-1.91-0.5-2.86c-0.09-0.53-0.2-1.03-0.31-1.52    l-0.11-0.44c-0.08-0.31-0.17-0.64-0.26-0.95c-0.05-0.15-0.09-0.29-0.13-0.42c-0.1-0.32-0.21-0.62-0.31-0.91l-0.11-0.31    c-0.14-0.38-0.29-0.72-0.44-1.05c-0.04-0.09-0.08-0.17-0.13-0.26c-0.12-0.26-0.27-0.55-0.42-0.83l-0.09-0.16    c0,0-0.05-0.08-0.05-0.09c-0.15-0.27-0.28-0.48-0.4-0.68l-0.19-0.29c-0.13-0.19-0.28-0.42-0.44-0.63l-0.14-0.2    c-0.19-0.25-0.36-0.45-0.52-0.64l-0.14-0.15c-0.2-0.23-0.37-0.41-0.54-0.59l-0.14-0.14c-0.21-0.21-0.37-0.36-0.54-0.51l-0.21-0.19    c-0.18-0.16-0.4-0.34-0.63-0.52c-0.03-0.02-0.06-0.04-0.08-0.07c-0.22-0.17-0.44-0.33-0.67-0.49l-0.08-0.05    c-0.26-0.18-0.46-0.31-0.66-0.43l-0.2-0.12c-0.2-0.12-0.4-0.24-0.6-0.35l-0.15-0.08c-0.53-0.29-1.07-0.54-1.61-0.78l-0.23-0.1    c-0.16-0.07-0.37-0.15-0.58-0.23l-0.27-0.1c-0.16-0.06-0.36-0.13-0.56-0.2c-0.03-0.01-0.15-0.05-0.18-0.06l-0.11-0.04    c-4.14-1.3-7-5.12-7.04-9.46c-0.33-37.77-6.07-124.92-8.52-160.64c-0.23-3.28,1.18-6.47,3.75-8.51c1.71-1.36,3.33-2.81,4.82-4.31    c3.22-3.24,8.23-3.89,12.17-1.58c1.3,0.76,2.68,1.56,4.14,2.38c0.52,0.29,1.06,0.59,1.61,0.9c3.21,1.78,6.54,3.52,9.88,5.19    c0.97,0.49,1.96,0.97,2.97,1.46c2.46,1.19,4.99,2.36,7.52,3.48c3.41,1.51,6.83,2.94,10.16,4.24c0.79,0.31,1.6,0.61,2.4,0.92    c1.59,0.6,3.23,1.19,4.88,1.77c1.38,0.48,2.78,0.95,4.19,1.41c0.48,0.16,0.96,0.31,1.44,0.46c1.49,0.47,2.99,0.93,4.51,1.38    c0.86,0.25,1.73,0.5,2.6,0.74c1.52,0.42,3.05,0.82,4.6,1.2c3.7,0.92,7.39,1.7,10.97,2.34c2.3,0.41,4.38,1.61,5.89,3.39    c1.9,2.24,3.24,3.69,4.19,4.64c1.61-3.62,5.28-6.06,9.48-5.93c0.93,0.03,1.86,0.05,2.79,0.06c5.63,0.07,11.16-0.29,16.41-1.04    c0.55-0.08,1.17-0.19,1.94-0.35l0.3-0.06c0.93-0.22,1.88-0.29,2.81-0.25c15.5,0.23,29.06-2.21,40.31-7.29    c1.91-0.86,3.77-1.81,5.54-2.82c8.42-4.79,15.49-11.35,21.01-19.5c3.66-5.4,6.69-11.57,9-18.33c0.33-0.95,0.64-1.91,0.93-2.88    c5.09-16.63,6.09-36.4,2.91-57.19l-0.16-1.03c-1.8-11.28-4.73-22.2-8.72-32.45c-0.29-0.76-0.6-1.51-0.9-2.26    c-1.39-3.41-2.87-6.65-4.38-9.64c-0.39-0.77-0.79-1.53-1.2-2.28l-0.41-0.73c-0.27-0.48-0.54-0.97-0.83-1.45l-0.49-0.82    c-0.25-0.41-0.51-0.84-0.78-1.26c-0.18-0.28-0.35-0.55-0.53-0.82c-0.25-0.39-0.51-0.78-0.77-1.16c-0.18-0.27-0.37-0.54-0.55-0.81    c-0.25-0.36-0.52-0.73-0.78-1.1l-0.54-0.74c-0.27-0.36-0.56-0.73-0.84-1.1l-0.51-0.65c-0.37-0.46-0.75-0.92-1.13-1.37    c-26.42-31.25-67.76-18.16-71.65-16.84c-1.16,0.45-2.4,0.65-3.68,0.67c-1.54-0.01-3.13,0.04-4.73,0.15    c-2.8,0.2-5.57-0.79-7.61-2.74c-0.94-0.89-1.68-1.95-2.21-3.11c-1.03,1.33-2.41,3.18-4.2,5.77c-1.48,2.13-3.73,3.59-6.27,4.1    c-33.82,6.7-78.62,45.16-79.07,45.54c-0.03,0.02-0.05,0.04-0.08,0.07c-0.11,0.09-0.24,0.2-0.35,0.28    c-3.44,2.68-8.23,2.82-11.82,0.35c-7.06-4.86-14.78-7.59-22.96-8.1c-2.89-0.18-5.55-1.6-7.31-3.9    c-7.86-10.26-16.31-19.34-25.13-26.98c-3.22-2.79-4.23-7.21-2.84-11l-12.18-1.43c-1.38-0.16-2.71-0.61-3.91-1.31    c-3.13-1.84-6.33-3.51-9.51-4.96c-0.03-0.01-0.05-0.03-0.08-0.04c-6.21-2.81-12.42-4.81-18.52-5.99    c-48.59-9.37-74.91,13.08-76.01,14.04c-1.02,0.89-2.21,1.57-3.49,1.99c-37.21,12.11-39.3,83.95-36.96,110.61    c0.01,0.07,0.01,0.14,0.02,0.21c0.12,1.79,0.25,3.43,0.4,5l0.06,0.64c0.07,0.76,0.16,1.5,0.24,2.24l0.17,1.51    c0.07,0.61,0.15,1.19,0.23,1.78l0.15,1.11c0.04,0.27,0.07,0.54,0.11,0.8c0.08,0.59,0.18,1.18,0.27,1.77l0.14,0.93    c0.05,0.31,0.09,0.62,0.15,0.92c0.09,0.57,0.2,1.13,0.3,1.68l0.15,0.86c0.06,0.34,0.12,0.69,0.19,1.03    c0.11,0.56,0.22,1.09,0.33,1.62l0.16,0.77c0.08,0.37,0.15,0.74,0.23,1.11c0.1,0.48,0.21,0.96,0.32,1.43l0.19,0.84    c0.09,0.38,0.18,0.77,0.27,1.15c0.12,0.51,0.25,1,0.38,1.49l0.17,0.64c0.1,0.4,0.21,0.81,0.32,1.21c0.14,0.51,0.29,1.02,0.43,1.53    l0.1,0.34c0.13,0.46,0.26,0.92,0.4,1.37c0.17,0.55,0.34,1.1,0.52,1.64c0.17,0.52,0.33,1.02,0.5,1.51    c0.17,0.51,0.36,1.04,0.55,1.57c0.17,0.47,0.34,0.96,0.52,1.44c0.19,0.52,0.39,1.02,0.59,1.52c0.18,0.46,0.37,0.93,0.57,1.4    c0.2,0.49,0.41,0.96,0.61,1.44c0.2,0.46,0.4,0.92,0.61,1.36c0.21,0.46,0.42,0.91,0.64,1.37c0.21,0.43,0.42,0.87,0.65,1.31    c0.22,0.43,0.44,0.86,0.66,1.28c0.23,0.43,0.46,0.85,0.69,1.26c0.23,0.4,0.45,0.8,0.68,1.19c0.25,0.42,0.48,0.81,0.73,1.2    c0.23,0.37,0.46,0.75,0.71,1.12c0.26,0.4,0.51,0.77,0.76,1.13c0.25,0.36,0.49,0.71,0.74,1.05c0.26,0.36,0.52,0.71,0.79,1.06    c0.25,0.32,0.5,0.65,0.76,0.97c0.27,0.34,0.55,0.67,0.83,0.99l0.07,0.08c0.23,0.27,0.46,0.54,0.69,0.8    c0.27,0.3,0.56,0.6,0.85,0.91c0.3,0.31,0.54,0.57,0.78,0.81c0.28,0.28,0.56,0.54,0.83,0.79l0.26,0.24c0.2,0.18,0.39,0.37,0.6,0.55    c0.25,0.22,0.52,0.43,0.78,0.65l0.34,0.28c0.2,0.16,0.39,0.33,0.6,0.48c0.24,0.18,0.5,0.36,0.75,0.54l0.48,0.34    c0.18,0.13,0.35,0.25,0.53,0.38c0.23,0.15,0.48,0.3,0.73,0.45l0.62,0.38c0.15,0.09,0.29,0.18,0.44,0.27    c0.25,0.14,0.49,0.26,0.73,0.38l0.74,0.38c0.13,0.07,0.26,0.14,0.39,0.2c0.26,0.12,0.53,0.23,0.79,0.34l0.79,0.34    c0.11,0.05,0.23,0.1,0.34,0.15c0.27,0.1,0.56,0.2,0.85,0.29l0.33,0.11c0.17,0.06,0.36,0.12,0.55,0.19l0.27,0.09    c0.35,0.1,0.72,0.19,1.1,0.29l0.24,0.06c0.2,0.05,0.4,0.1,0.61,0.16l0.16,0.04c0.64,0.14,1.36,0.27,2.07,0.37    c6.11,0.87,12.58,1.2,19.2,0.98c4.21-0.14,7.86,2.31,9.47,5.93c0.95-0.95,2.29-2.4,4.19-4.64c1.51-1.78,3.59-2.98,5.89-3.39    c3.41-0.61,6.88-1.34,10.31-2.17c1.74-0.42,3.5-0.88,5.26-1.37c0.87-0.24,1.74-0.49,2.61-0.74c3.33-0.97,6.74-2.06,10.13-3.25    c5.42-1.89,10.96-4.08,16.47-6.49c2.84-1.24,5.69-2.56,8.49-3.91c0.68-0.33,1.34-0.65,2-0.98c3.65-1.8,7.3-3.71,10.86-5.68    c0.54-0.3,1.08-0.6,1.6-0.89c1.17-0.66,2.27-1.29,3.33-1.91c3.9-2.28,8.85-1.66,12.07,1.52c2.58,2.54,5.3,4.77,8.1,6.61    c2.81,1.85,4.51,4.99,4.51,8.36c0,0.27-0.01,0.54-0.03,0.81c-2.09,25.8-8.82,113.25-7.39,155.54c0.17,5.13-3.56,9.55-8.64,10.25    c-0.91,0.12-1.77,0.29-2.63,0.5c-0.03,0.01-0.08,0.02-0.08,0.02c-7.9,2-12.37,6.9-13.76,15.03c-0.16,0.94-0.33,1.88-0.49,2.83    c-0.45,2.56-0.91,5.21-1.29,7.78l-0.53,4.19c-0.04,0.36-0.07,0.71-0.1,1.05l-0.24,5.35c0,0.31,0.01,0.58,0.02,0.85l0.29,3.6    l0.13,0.83c0.03,0.18,0.07,0.42,0.12,0.65l0.05,0.23c0.04,0.19,0.07,0.35,0.11,0.51l0.7,2.41c0.04,0.11,0.09,0.25,0.15,0.4    l0.06,0.17c0.1,0.26,0.18,0.46,0.27,0.66l0.08,0.17c0.07,0.15,0.14,0.32,0.22,0.49l0.12,0.25c0.05,0.1,0.12,0.24,0.19,0.37    l0.52,0.92c0.04,0.07,0.12,0.19,0.19,0.31l0.16,0.25c0.09,0.14,0.19,0.28,0.28,0.41l0.11,0.15c0.17,0.24,0.3,0.42,0.44,0.6    c0.02,0.03,0.05,0.07,0.09,0.11c0.14,0.18,0.28,0.35,0.43,0.53l0.18,0.21c0.11,0.13,0.23,0.26,0.34,0.39l0.13,0.14    c0,0,0.07,0.07,0.07,0.08c0.14,0.15,0.25,0.26,0.36,0.38l0.22,0.22c0.13,0.13,0.26,0.25,0.39,0.38l0.23,0.22    c0.16,0.15,0.31,0.28,0.46,0.41l0.26,0.23c0.15,0.13,0.34,0.29,0.54,0.45c0.04,0.03,0.14,0.12,0.19,0.16    c0.25,0.19,0.48,0.38,0.73,0.56l0.22,0.16c0.21,0.15,0.4,0.29,0.6,0.43l0.37,0.25c0.14,0.09,0.33,0.22,0.52,0.34l0.35,0.22    c0.24,0.15,0.43,0.27,0.62,0.38l0.37,0.22c0.23,0.14,0.44,0.25,0.66,0.37l0.38,0.21c0.29,0.16,0.55,0.3,0.83,0.44l0.25,0.13    c0.42,0.21,0.8,0.4,1.2,0.59l0.25,0.12c0.36,0.17,0.67,0.31,0.99,0.45l0.49,0.21c0.25,0.11,0.53,0.23,0.81,0.34l0.54,0.22    c0.29,0.12,0.58,0.23,0.87,0.34l0.58,0.22c0.29,0.11,0.6,0.22,0.91,0.33l0.57,0.2c0.36,0.12,0.72,0.24,1.09,0.36l0.45,0.15    c0.56,0.18,1.1,0.34,1.65,0.51l0.29,0.08c0.47,0.14,0.95,0.27,1.44,0.41l0.59,0.16c0.4,0.11,0.8,0.21,1.21,0.32l0.74,0.18    c0.36,0.09,0.75,0.18,1.16,0.28l0.75,0.17c0.41,0.09,0.83,0.18,1.24,0.27l0.75,0.16c0.47,0.1,0.94,0.19,1.41,0.28l0.7,0.14    C211.15,465.31,211.78,465.42,212.42,465.54z M282.4,409.98c0,0.01,0.01,0.02,0.02,0.03C282.41,410,282.4,409.99,282.4,409.98z     M277.94,391.49l-0.41,1.03l0.42-1.03H277.94z M106.1,255.89c0,0.01,0,0.02,0,0.02C106.1,255.91,106.1,255.9,106.1,255.89z"/></g><g><g><g><path class="st170" d="M72.07,54.37c0,0,29.65-27.05,84.61-16.45s90.67,73.74,90.67,73.74l-16.03,95.39 M392.17,254.88      C496.51,256.81,497.07,145.92,467.18,87s-93.53-35.96-93.53-35.96"/></g><g><path class="st171" d="M247.35,111.65l-16.03,95.39l-102.64-98.4c7.75-0.77,15.37-3.03,21.4-6.92      c11.48-7.4,21.59-18.43,24.72-32.14c0.64-4.77,1.28-9.53,1.92-14.3c-0.01-3.95-0.45-7.79-1.26-11.53      C219.63,62.66,247.35,111.65,247.35,111.65z M467.18,87c-3.27-6.46-6.96-11.93-10.91-16.55c1.75,8.42,2.58,17.1,2.91,25.47      c0.27,6.94-0.62,13.6-1.55,20.49c-0.88,6.54-1.61,12.98-3.72,19.24c-2.67,7.92-5.79,16.03-10.21,23.17      c-4.25,6.87-9.35,13.88-15.4,19.35c-6.13,5.54-13.02,11.12-20.62,14.63c-5.74,2.65-11.77,5.54-17.96,7.15      c-0.82,0.21-1.65,0.41-2.48,0.58l4.94,54.34C496.51,256.81,497.07,145.92,467.18,87z"/></g></g><g><g><path class="st172" d="M258.89,106.53c0,0,92.57-79.21,140.79-48.36s53.04,188.21-10.61,197.29      c-63.64,9.07-130.18-38.56-130.18-38.56 M205.35,106.53c0,0-92.57-79.21-140.79-48.36S11.53,246.38,75.17,255.45      c63.64,9.07,130.18-38.56,130.18-38.56"/></g><g><path class="st173" d="M205.35,106.53v110.37c0,0-66.54,47.63-130.18,38.56c-30.78-4.39-45.55-43.47-47.13-86.15      c1.65,1.15,3.32,2.24,5,3.25c6.41,3.86,13.99,6.88,21,9.11c3.78,1.21,7.74,1.49,11.67,2.02c3.97,0.53,8.15,1.39,12.21,1.23      c7.54-0.31,15.54-1.15,22.78-3.6c7.34-2.48,15.22-5.61,21.66-10.15c6.65-4.68,13.53-9.69,18.83-15.95      c5.24-6.19,10.79-12.84,14.48-20.18c7.44-14.82,12.67-30.78,12.05-47.61c-0.11-2.89-0.42-5.77-0.91-8.6      C189.16,92.68,205.35,106.53,205.35,106.53z M427.2,133.35c-9.21,15.74-21.99,27.44-36.89,37.6      c-10.4,7.1-22.79,12.22-34.82,15.61c-12.38,3.49-26.09,5.59-38.98,4.41c-16.91-1.55-34.19-4.68-48.54-14.52      c-3.23-2.21-6.24-4.43-9.07-6.71v47.15c0,0,66.54,47.63,130.18,38.56c42.11-6,54.24-76.92,43.66-133.17      C431.09,126.15,429.23,129.87,427.2,133.35z"/></g></g><g><g><path class="st174" d="M366.97,260.2c-1.51,2.47-4.14,3.83-6.83,3.83c-1.42,0-2.86-0.38-4.17-1.18      c-2.61-1.6-8.05-4.92-41.55-52.68c-7.68-10.95-15.1-21.77-20.79-30.14c-1.15,0.64-2.47,1.01-3.86,1.01      c-0.26,0-0.52-0.01-0.78-0.04c-4.4-0.42-7.62-4.33-7.19-8.73c0.22-2.28,0.74-4.81,1.5-7.55c-0.11-0.17-0.18-0.26-0.19-0.28      c-2.45-3.67-1.46-8.64,2.21-11.1c0.77-0.51,1.6-0.87,2.44-1.09c16.3-38.46,60.11-98.09,65.97-105.98      c2.63-3.55,7.64-4.29,11.19-1.66c3.55,2.63,4.29,7.64,1.66,11.19c-15.94,21.5-54.34,76.66-65.71,106.39      c27.23,40.49,57.33,82.59,63.52,87.05C368.1,251.56,369.26,256.45,366.97,260.2z M203.14,51.89l-97.6-11.47      c-4.39-0.51-8.36,2.62-8.88,7.01c-0.03,0.27-0.05,0.54-0.05,0.81c-0.91,2.45-0.61,5.3,1.07,7.56      c15.94,21.5,54.34,76.66,65.71,106.39c-27.23,40.49-57.33,82.59-63.52,87.05c-3.72,2.32-4.88,7.21-2.59,10.96      c1.51,2.47,4.14,3.83,6.83,3.83c1.42,0,2.86-0.38,4.17-1.18c2.61-1.6,8.05-4.92,41.55-52.68c7.68-10.95,15.1-21.77,20.79-30.14      c1.15,0.64,2.47,1.01,3.86,1.01c0.26,0,0.52-0.01,0.78-0.04c4.4-0.42,7.62-4.33,7.19-8.73c-0.22-2.28-0.74-4.81-1.5-7.55      c0.11-0.17,0.18-0.26,0.19-0.28c2.45-3.67,1.46-8.64-2.21-11.1c-0.77-0.51-1.6-0.87-2.44-1.09      c-12.73-30.04-42.24-72.99-57.35-94.12l82.13,9.65c0.32,0.04,0.63,0.06,0.94,0.06c4,0,7.46-3,7.94-7.07      C210.67,56.38,207.53,52.41,203.14,51.89z"/></g><g><path class="st175" d="M366.97,260.2c-1.51,2.47-4.14,3.83-6.83,3.83c-1.42,0-2.86-0.38-4.17-1.18      c-2.61-1.6-8.05-4.92-41.55-52.68c-7.68-10.95-15.1-21.77-20.79-30.14c-1.15,0.64-2.47,1.01-3.86,1.01      c-0.26,0-0.52-0.01-0.78-0.04c-4.4-0.42-7.62-4.33-7.19-8.73c0.06-0.67,0.16-1.37,0.28-2.08      c25.63-43.1,51.53-86.17,81.71-126.27c0.39,0.2,0.77,0.43,1.14,0.7c3.55,2.63,4.29,7.64,1.66,11.19      c-15.82,21.33-53.74,75.81-65.43,105.69c-1.9,3.33-1.9,7.57-0.06,11.23c13.5,26.78,32.11,50.89,56.09,68.6      c3.36,4.17,5.86,6.94,7.22,7.92C368.1,251.56,369.26,256.45,366.97,260.2z M202.27,60.81c-32.07-10.52-65.89-12.68-99.22-16.72      c23.62,33.29,41.97,69.89,63.94,104.26c5.64,2.37,9.56,8.72,5.36,15.37c-21.75,34.41-47.06,66.37-69.75,100.15      c0.5,0.1,1,0.16,1.51,0.16c1.42,0,2.86-0.38,4.17-1.18c2.61-1.6,8.05-4.92,41.55-52.68c7.68-10.95,15.1-21.77,20.79-30.14      c1.15,0.64,2.47,1.01,3.86,1.01c0.26,0,0.52-0.01,0.78-0.04c4.4-0.42,7.62-4.33,7.19-8.73c-0.22-2.28-0.74-4.81-1.5-7.55      c0.11-0.17,0.18-0.26,0.19-0.28c2.45-3.67,1.46-8.64-2.21-11.1c-0.77-0.51-1.6-0.87-2.44-1.09      c-12.73-30.04-42.24-72.99-57.35-94.12l82.13,9.65c0.32,0.04,0.63,0.06,0.94,0.06c4,0,7.46-3,7.94-7.07      c0.02-0.15,0.02-0.29,0.03-0.43C208.04,61.49,205.36,61.82,202.27,60.81z"/></g></g><g><g><path class="st176" d="M293.96,413.99c-4.29-25.07-29.46-24.07-29.46-24.07h-28.74h-8.86h-28.74c0,0-25.18-1-29.46,24.07      c-4.08,23.89-11.28,52.16,42.3,61.45c0.07,0.01,20.41,2.51,39.24,0c1.11-0.15,2.08-0.23,2.94-0.27      C305.09,465.62,298,437.66,293.96,413.99z"/></g><g><path class="st177" d="M293.96,413.99c-3.38-19.79-19.78-23.33-26.54-23.95c0.74,2.34,1.13,4.82,1.18,7.32      c7.16,7.38,8.28,19.53,3.39,28.61c-10.05,18.63-34.09,24.9-53.73,24.83c-17.88-0.06-35.81-5.26-47.09-19.86      c-1.71-2.21-3.1-4.51-4.21-6.86c-3.21,21.25-2.18,43.36,44,51.36c0.07,0.01,20.41,2.51,39.24,0c1.11-0.15,2.08-0.23,2.94-0.27      C305.09,465.62,298,437.66,293.96,413.99z"/></g></g><g><g><path class="st178" d="M202,222.51c0,0-15.43,177.02-4.82,191.48c10.61,14.46,72.68,9.64,76.84-4.82      c4.16-14.46-9.13-198.52-9.13-198.52"/></g><g><path class="st179" d="M264.89,210.65l-14.06,2.65c0.16,23.61,2.43,47.25,2.79,70.88c0.44,29.08,1.13,60.21-6.19,88.58      c-3.62,14.05-11.32,28.55-26.24,32.93c-9.51,2.79-18.91,0.74-26.85-4.11c0.59,6.23,1.51,10.59,2.84,12.4      c10.61,14.46,72.68,9.64,76.84-4.82C278.18,394.7,264.89,210.65,264.89,210.65z"/></g></g><g><g><path class="st176" d="M276.94,116.39c-11.93-14.91-28.08-23.13-45.49-23.13c-17.41,0-33.57,8.21-45.49,23.13      c-11.14,13.93-17.28,32.26-17.28,51.61s6.14,37.67,17.28,51.61c11.93,14.91,28.08,23.13,45.49,23.13s33.57-8.21,45.49-23.13      c11.14-13.93,17.28-32.26,17.28-51.61S288.08,130.32,276.94,116.39z"/></g><g><path class="st177" d="M276.94,116.39c-0.53-0.67-1.09-1.31-1.64-1.95c0.17,1.76,0.22,3.55,0.18,5.33      c1.68,5.32,2.86,10.77,3.57,16.63c2.4,19.65-4.08,41.1-18.9,54.69c-11.38,10.42-26.98,18.28-42.75,17.52      c-13.66-0.66-26.93-6.74-35.84-17.26c-3.79-4.47-6.93-9.33-9.43-14.44c-1.19-1.33-2.3-2.75-3.33-4.24      c0.91,17.61,6.9,34.13,17.14,46.93c11.93,14.91,28.08,23.13,45.49,23.13s33.57-8.21,45.49-23.13      c11.14-13.93,17.28-32.26,17.28-51.61S288.08,130.32,276.94,116.39z"/></g></g><g><g><g><ellipse class="st174" cx="231.45" cy="168" rx="47.77" ry="59.73"/></g><g><path class="st175" d="M262.64,122.78c0.44,3.73,0.44,7.53,0.04,11.22c-0.15,1.37-0.34,2.73-0.55,4.08       c0.72,5.48,1.14,10.99,1.04,16.47c-0.16,8.92-1.62,18.58-6.22,26.42c-5.26,8.96-14.17,15.32-24.05,18.37       c-16.03,4.94-33.39-2.85-40.59-17.94c-4.51-9.44-6.56-19.95-6.64-30.42c-1.28,5.4-1.98,11.11-1.98,17.03       c0,32.99,21.39,59.73,47.77,59.73s47.77-26.74,47.77-59.73C279.22,149.92,272.79,133.73,262.64,122.78z"/></g></g><g class="st34"><path class="st6" d="M205.35,236.08c-4.24,28.45-0.14,175.98-7.73,167.3c-7.6-8.68,3.46-169.86,3.46-169.86 M189.99,390.92      c0,0-18.27,4.28-21.17,25.65s-0.95,32.7-0.95,32.7s1.49-28.2,10.74-24.35s41.83,16.48,68.74,5.79c0,0-29.65,2.68-53.89-7.98      S178.68,394.72,189.99,390.92z M163.39,162.19c0,0-68.22,92.37-67.16,95.19 M97.97,43.91c0,0-4.3,6.3,1.65,14.53      s63.76,93.76,63.76,93.76S95.51,56.98,97.97,43.91z M356.84,43.75c-6.93-0.16-62.63,98.31-62.63,98.31 M362.72,252.38      c0.78-3.8-58.56-85.3-58.56-85.3 M193.46,201.4c-4.04-10.01-5.6-56.12,16.75-76s52.74,1.55,52.74,1.55      c-6.55-16.4-44.61-32.08-68.61,3.44s-3.29,69.48-3.29,69.48 M47.07,98.69c13.5-39.51,49.14-46.38,49.14-46.38      c-79.62-9.59-67.85,122.94-67.85,122.94S33.57,138.2,47.07,98.69z M339.9,65.47l7.39-10.19c-36.91,6.93-84.34,47.92-84.34,47.92      C285.85,88.78,339.9,65.47,339.9,65.47z M404.5,55.28l18-3.46c-20.71-6.81-42.63-2.55-44.98-0.63"/></g><g><path class="st6" d="M85.79,69.42c0.04,1.17-0.2,2.26-0.73,3.27c-0.34,1.05-0.93,1.97-1.76,2.74c-0.77,0.83-1.68,1.41-2.74,1.76      c-1.01,0.53-2.1,0.78-3.27,0.73h-0.64c-1.53,0-2.96-0.39-4.29-1.16c-0.57-0.44-1.15-0.89-1.72-1.33      c-1.05-1.06-1.78-2.31-2.19-3.75c-0.1-0.75-0.2-1.51-0.3-2.26c-0.04-1.17,0.2-2.26,0.73-3.27c0.34-1.05,0.93-1.97,1.76-2.74      c0.77-0.83,1.68-1.41,2.74-1.76c1.01-0.53,2.1-0.78,3.27-0.73h0.64c1.53,0,2.96,0.39,4.29,1.16c0.57,0.44,1.15,0.89,1.72,1.33      c1.05,1.06,1.78,2.31,2.19,3.75C85.59,67.91,85.69,68.67,85.79,69.42z M58,82.63c-4.5,0-4.51,7,0,7      C62.51,89.63,62.51,82.63,58,82.63z M221.29,119.35c-13.51,0-13.53,21,0,21C234.8,140.35,234.82,119.35,221.29,119.35z       M203.29,144.7c-3.22,0-3.22,5,0,5C206.5,149.7,206.51,144.7,203.29,144.7z M210.36,253.13c-5.15,0-5.16,8,0,8      C215.51,261.13,215.52,253.13,210.36,253.13z M184,430.49c-7.72,0-7.73,12,0,12C191.72,442.49,191.74,430.49,184,430.49z       M176.93,447.85c-1.93,0-1.93,3,0,3C178.86,450.85,178.86,447.85,176.93,447.85z"/></g><g class="st26"><path class="st6" d="M452.72,229.85c-7.09,0-7.08-11,0-11C459.81,218.85,459.79,229.85,452.72,229.85z M436,234.06      c-3.22,0-3.22,5,0,5C439.22,239.06,439.22,234.06,436,234.06z M261.14,196.35c-7.08,0-7.09,11,0,11      C268.22,207.35,268.23,196.35,261.14,196.35z M247,213.2c-1.93,0-1.93,3,0,3C248.93,216.2,248.94,213.2,247,213.2z       M167.29,216.99c-4.5,0-4.51,7,0,7C171.79,223.99,171.8,216.99,167.29,216.99z M265.64,389.35c-7.72,0-7.73,12,0,12      C273.37,401.35,273.38,389.35,265.64,389.35z M259.94,410.2c-0.06-0.19-0.16-0.35-0.31-0.48l-0.3-0.23      c-0.23-0.14-0.49-0.2-0.76-0.2c-0.13,0.02-0.27,0.04-0.4,0.05c-0.25,0.07-0.47,0.2-0.66,0.39c-0.21,0.21-0.43,0.43-0.64,0.64      c-0.15,0.14-0.25,0.3-0.31,0.48c-0.09,0.18-0.14,0.37-0.13,0.58c-0.01,0.21,0.04,0.4,0.13,0.58c0.06,0.19,0.16,0.35,0.31,0.48      l0.3,0.23c0.23,0.14,0.49,0.2,0.76,0.2c0.13-0.02,0.27-0.04,0.4-0.05c0.25-0.07,0.47-0.2,0.66-0.39      c0.21-0.21,0.43-0.43,0.64-0.64c0.15-0.14,0.25-0.3,0.31-0.48c0.09-0.18,0.14-0.37,0.13-0.58      C260.08,410.57,260.04,410.38,259.94,410.2z"/></g></g></g></g></svg>