<?xml version="1.0" encoding="utf-8" standalone="yes"?>
<!DOCTYPE svg PUBLIC "-//W3C//DTD SVG 1.1//EN" "http://www.w3.org/Graphics/SVG/1.1/DTD/svg11.dtd">
<svg width="938" height="741" viewBox="0 0 938 741" style="fill:none;stroke:none;fill-rule:evenodd;clip-rule:evenodd;stroke-linecap:round;stroke-linejoin:round;stroke-miterlimit:1.5;" version="1.1" xmlns="http://www.w3.org/2000/svg" xmlns:xlink="http://www.w3.org/1999/xlink"><style class="text-font-style fontImports" data-font-family="Roboto">@import url('https://fonts.googleapis.com/css2?family=Roboto:wght@400;700&amp;display=block');</style><g id="items" style="isolation: isolate"><g id="blend" style="mix-blend-mode: normal"><g id="g-root-0.g-0_fr_zoetccd3i0w9-fill" data-item-order="-554990" transform="translate(357, 154)"><g id="0.g-0_fr_zoetccd3i0w9-fill" stroke="none" fill="#666666"><g><path d="M 460 64L 550 10L 550 25.2042L 472 72.0089L 472 126L 382 180.012L 382 233.982L 292 288.009L 292 342L 202 396.009L 202 450.109L 100 511.609L 10 457.609L 10 442L 100 496L 190 442L 190 388L 280 334L 280 280L 370 226L 370 172.003L 460 118L 460 64Z"></path></g></g><g id="0.g-0_fr_zoetccd3i0w9-fill" stroke="none" fill="#666666"><g><path d="M 460 64L 370 10L 370 64L 460 118L 460 64Z"></path></g></g><g id="0.g-0_fr_zoetccd3i0w9-fill" stroke="none" fill="#666666"><g><path d="M 370 172L 280 118L 280 172L 370 226L 370 172Z"></path></g></g><g id="0.g-0_fr_zoetccd3i0w9-fill" stroke="none" fill="#666666"><g><path d="M 280 280L 190 226L 190 280L 280 334L 280 280Z"></path></g></g><g id="0.g-0_fr_zoetccd3i0w9-fill" stroke="none" fill="#666666"><g><path d="M 190 388L 100 334L 100 389L 190 442L 190 388Z"></path></g></g></g><g id="g-root-1.g-1_fr_mdks24d3hzbj-fill" data-item-order="-554978" transform="translate(357, 532)"><g id="1.g-1_fr_mdks24d3hzbj-fill" stroke="none" fill="#e0cb15"><g><path d="M 100 10L 10 64L 100 118L 190 64L 100 10ZM 29 64L 100 22L 171 64L 100 106L 29 64Z"></path></g></g></g><g id="g-root-2.g-2_fr_hxr9xod3i03t-fill" data-item-order="-554974" transform="translate(447, 424)"><g id="2.g-2_fr_hxr9xod3i03t-fill" stroke="none" fill="#de8431"><g><path d="M 100 10L 10 64L 100 118L 190 64L 100 10ZM 29 64L 100 22L 171 64L 100 106L 29 64Z"></path></g></g></g><g id="g-root-3.g-3_fr_dhxrt8d3i0w3-fill" data-item-order="-554970" transform="translate(537, 316)"><g id="3.g-3_fr_dhxrt8d3i0w3-fill" stroke="none" fill="#e55753"><g><path d="M 100 10L 10 64L 100 118L 190 64L 100 10ZM 29 64L 100 22L 171 64L 100 106L 29 64Z"></path></g></g></g><g id="g-root-4.g-4_fr_dhxrt8d3i0w5-fill" data-item-order="-554966" transform="translate(627, 208)"><g id="4.g-4_fr_dhxrt8d3i0w5-fill" stroke="none" fill="#de58a9"><g><path d="M 100 10L 10 64L 100 118L 190 64L 100 10ZM 29 64L 100 22L 171 64L 100 106L 29 64Z"></path></g></g></g><g id="g-root-5.g-5_fr_4mx8ngd3hyj3-fill" data-item-order="-554962" transform="translate(717, 100)"><g id="5.g-5_fr_4mx8ngd3hyj3-fill" stroke="none" fill="#ba5de5"><g><path d="M 100 10L 10 64L 100 118L 190 64L 100 10ZM 29 64L 100 22L 171 64L 100 106L 29 64Z"></path></g></g></g><g id="g-root-2.text-2_fr_73qj0d3hzbd-fill" data-item-order="-554948" transform="translate(171, 448)"><g id="2.text-2_fr_73qj0d3hzbd-fill" stroke="none" fill="#de8431"><g><path d="M 10 10L 16 10L 16 70L 10 70Z"></path></g></g></g><g id="g-root-3.text-3_fr_1useadod3hzwi-fill" data-item-order="-554934" transform="translate(261, 316)"><g id="3.text-3_fr_1useadod3hzwi-fill" stroke="none" fill="#e55753"><g><path d="M 10 10L 16 10L 16 118L 10 118Z"></path></g></g></g><g id="g-root-1.text-1_fr_1lwra4sd3i0p7-fill" data-item-order="-554920" transform="translate(81, 556)"><g id="1.text-1_fr_1lwra4sd3i0p7-fill" stroke="none" fill="#e0cb15"><g><path d="M 10 10L 16 10L 16 70L 10 70Z"></path></g></g></g><g id="g-root-4.text-4_fr_1hgxs0cd3i1hg-fill" data-item-order="-554904" transform="translate(351, 220)"><g id="4.text-4_fr_1hgxs0cd3i1hg-fill" stroke="none" fill="#de58a9"><g><path d="M 10 10L 16 10L 16 94L 10 94Z"></path></g></g></g><g id="g-root-5.text-5_fr_18lx8ukd3hz4d-fill" data-item-order="-554892" transform="translate(441, 112)"><g id="5.text-5_fr_18lx8ukd3hz4d-fill" stroke="none" fill="#ba5de5"><g><path d="M 10 10L 16 10L 16 94L 10 94Z"></path></g></g></g><g id="g-root-sync_mgp5hod3ruoa-fill" data-item-order="0" transform="translate(693, 238)"></g><g id="g-root-tx_memperol_1cvi39od3ce12-fill" data-item-order="0" transform="translate(369, 280)"><g id="tx_memperol_1cvi39od3ce12-fill" stroke="none" fill="#573e4d"><g><text style="font: bold 20px Roboto, sans-serif; white-space: pre;" font-weight="bold" font-size="20px" font-family="Roboto, sans-serif"><tspan x="12" y="34" dominant-baseline="ideographic">Rp 900.000</tspan></text></g></g></g><g id="g-root-tx_3_m7c4csd3cf0p-fill" data-item-order="0" transform="translate(207, 316)"><g id="tx_3_m7c4csd3cf0p-fill" stroke="none" fill="#e55753"><g><text style="font: bold 30px Roboto, sans-serif; white-space: pre;" font-weight="bold" font-size="30px" font-family="Roboto, sans-serif"><tspan x="13.39" y="46" dominant-baseline="ideographic">3</tspan></text></g></g></g><g id="g-root-tx_manipula_1hbble4d3cd8t-fill" data-item-order="0" transform="translate(369, 220)"><g id="tx_manipula_1hbble4d3cd8t-fill" stroke="none" fill="#de58a9"><g><text style="font: bold 20px Roboto, sans-serif; white-space: pre;" font-weight="bold" font-size="20px" font-family="Roboto, sans-serif"><tspan x="12" y="34" dominant-baseline="ideographic">Database dan Manipulasi </tspan><tspan x="12" y="58" dominant-baseline="ideographic">Data</tspan></text></g></g></g><g id="g-root-tx_pemrogra_13ym4ukd3ccnj-fill" data-item-order="0" transform="translate(279, 316)"><g id="tx_pemrogra_13ym4ukd3ccnj-fill" stroke="none" fill="#e55753"><g><text style="font: bold 20px Roboto, sans-serif; white-space: pre;" font-weight="bold" font-size="20px" font-family="Roboto, sans-serif"><tspan x="12" y="34" dominant-baseline="ideographic">Pemrograman </tspan><tspan x="12" y="58" dominant-baseline="ideographic">Berorientasi Objek (OOP) </tspan><tspan x="12" y="82" dominant-baseline="ideographic">&amp; Advanced Python</tspan></text></g></g></g><g id="g-root-tx_4_zko1zgd3ccg7-fill" data-item-order="0" transform="translate(297, 220)"><g id="tx_4_zko1zgd3ccg7-fill" stroke="none" fill="#de58a9"><g><text style="font: bold 30px Roboto, sans-serif; white-space: pre;" font-weight="bold" font-size="30px" font-family="Roboto, sans-serif"><tspan x="13.39" y="46" dominant-baseline="ideographic">4</tspan></text></g></g></g><g id="g-root-code_4jsv7wd3qex5-fill" data-item-order="0" transform="translate(603, 346)"></g><g id="g-root-tx_memperke_zismq4d3cdfs-fill" data-item-order="0" transform="translate(279, 400)"><g id="tx_memperke_zismq4d3cdfs-fill" stroke="none" fill="#543a3a"><g><text style="font: bold 20px Roboto, sans-serif; white-space: pre;" font-weight="bold" font-size="20px" font-family="Roboto, sans-serif"><tspan x="12" y="34" dominant-baseline="ideographic">Rp 800.000</tspan></text></g></g></g><g id="g-root-tx_menggabu_m97jm4d3ce15-fill" data-item-order="0" transform="translate(459, 172)"><g id="tx_menggabu_m97jm4d3ce15-fill" stroke="none" fill="#4f3d58"><g><text style="font: bold 20px Roboto, sans-serif; white-space: pre;" font-weight="bold" font-size="20px" font-family="Roboto, sans-serif"><tspan x="12" y="34" dominant-baseline="ideographic">Rp 1.000.000</tspan></text></g></g></g><g id="g-root-tx_2_1hjfocsd3xgr2-fill" data-item-order="0" transform="translate(117, 448)"><g id="tx_2_1hjfocsd3xgr2-fill" stroke="none" fill="#de8431"><g><text style="font: bold 30px Roboto, sans-serif; white-space: pre;" font-weight="bold" font-size="30px" font-family="Roboto, sans-serif"><tspan x="13.39" y="46" dominant-baseline="ideographic">2</tspan></text></g></g></g><g id="g-root-clou_mg2oekd3uoln-fill" data-item-order="0" transform="translate(783, 130)"></g><g id="g-root-tx_dasarlan_94m618d3xgy4-fill" data-item-order="0" transform="translate(189, 448)"><g id="tx_dasarlan_94m618d3xgy4-fill" stroke="none" fill="#de8431"><g><text style="font: bold 20px Roboto, sans-serif; white-space: pre;" font-weight="bold" font-size="20px" font-family="Roboto, sans-serif"><tspan x="12" y="34" dominant-baseline="ideographic">Dasar Lanjutan</tspan></text></g></g></g><g id="g-root-1_1utn8jwd3ksu8-fill" data-item-order="0" transform="translate(513, 454)"></g><g id="g-root-tx_memperda_1uuw6q4d3xf65-fill" data-item-order="0" transform="translate(189, 484)"><g id="tx_memperda_1uuw6q4d3xf65-fill" stroke="none" fill="#4c4034"><g><text style="font: bold 20px Roboto, sans-serif; white-space: pre;" font-weight="bold" font-size="20px" font-family="Roboto, sans-serif"><tspan x="12" y="34" dominant-baseline="ideographic">Rp 700.000</tspan></text></g></g></g><g id="g-root-tx_integras_v4ujv0d3cd8g-fill" data-item-order="0" transform="translate(459, 112)"><g id="tx_integras_v4ujv0d3cd8g-fill" stroke="none" fill="#ba5de5"><g><text style="font: bold 20px Roboto, sans-serif; white-space: pre;" font-weight="bold" font-size="20px" font-family="Roboto, sans-serif"><tspan x="12" y="34" dominant-baseline="ideographic">Web Development &amp; </tspan><tspan x="12" y="58" dominant-baseline="ideographic">Machine Learning</tspan></text></g></g></g><g id="g-root-tx_1_1q6yln0d3ccg4-fill" data-item-order="0" transform="translate(27, 556)"><g id="tx_1_1q6yln0d3ccg4-fill" stroke="none" fill="#e0cb15"><g><text style="font: bold 30px Roboto, sans-serif; white-space: pre;" font-weight="bold" font-size="30px" font-family="Roboto, sans-serif"><tspan x="13.39" y="46" dominant-baseline="ideographic">1</tspan></text></g></g></g><g id="g-root-tx_memperke_4goky4d3ce83-fill" data-item-order="0" transform="translate(99, 592)"><g id="tx_memperke_4goky4d3ce83-fill" stroke="none" fill="#46432d"><g><text style="font: bold 20px Roboto, sans-serif; white-space: pre;" font-weight="bold" font-size="20px" font-family="Roboto, sans-serif"><tspan x="12" y="34" dominant-baseline="ideographic">Rp 500.000</tspan></text></g></g></g><g id="g-root-tx_memulaid_8wi32kd3cdfu-fill" data-item-order="0" transform="translate(99, 556)"><g id="tx_memulaid_8wi32kd3cdfu-fill" stroke="none" fill="#e0cb15"><g><text style="font: bold 20px Roboto, sans-serif; white-space: pre;" font-weight="bold" font-size="20px" font-family="Roboto, sans-serif"><tspan x="12" y="34" dominant-baseline="ideographic">Ayo Mulai</tspan></text></g></g></g><g id="g-root-huma_hzmp70d3hz4f-fill" data-item-order="0" transform="translate(423, 562)"></g><g id="g-root-tx_5_4ik07gd3cd8i-fill" data-item-order="0" transform="translate(387, 112)"><g id="tx_5_4ik07gd3cd8i-fill" stroke="none" fill="#ba5de5"><g><text style="font: bold 30px Roboto, sans-serif; white-space: pre;" font-weight="bold" font-size="30px" font-family="Roboto, sans-serif"><tspan x="13.39" y="46" dominant-baseline="ideographic">5</tspan></text></g></g></g><g id="g-root-0.g-0_fr_zoetccd3i0w9-stroke" data-item-order="-554990" transform="translate(357, 154)"><g id="0.g-0_fr_zoetccd3i0w9-stroke" fill="none" stroke-linecap="round" stroke-linejoin="round" stroke-miterlimit="4" stroke="#ffffff" stroke-width="2"><g><path d="M 460 64L 550 10L 550 25.2042L 472 72.0089L 472 125.9996L 382 180.0119L 382 233.9815L 292 288.009L 292 342L 202 396.009L 202 450.1089L 100 511.6089L 10 457.6089L 10 442L 100 496L 190 442L 190 388L 280 334L 280 280L 370 226L 370 172.0029L 460 118L 460 64Z"></path></g></g><g id="0.g-0_fr_zoetccd3i0w9-stroke" fill="none" stroke-linecap="round" stroke-linejoin="round" stroke-miterlimit="4" stroke="#ffffff" stroke-width="2"><g><path d="M 460 64L 370 10L 370 64L 460 118L 460 64Z"></path></g></g><g id="0.g-0_fr_zoetccd3i0w9-stroke" fill="none" stroke-linecap="round" stroke-linejoin="round" stroke-miterlimit="4" stroke="#ffffff" stroke-width="2"><g><path d="M 370 172L 280 118L 280 172L 370 226L 370 172Z"></path></g></g><g id="0.g-0_fr_zoetccd3i0w9-stroke" fill="none" stroke-linecap="round" stroke-linejoin="round" stroke-miterlimit="4" stroke="#ffffff" stroke-width="2"><g><path d="M 280 280L 190 226L 190 280L 280 334L 280 280Z"></path></g></g><g id="0.g-0_fr_zoetccd3i0w9-stroke" fill="none" stroke-linecap="round" stroke-linejoin="round" stroke-miterlimit="4" stroke="#ffffff" stroke-width="2"><g><path d="M 190 388L 100 334L 100 389L 190 442L 190 388Z"></path></g></g></g><g id="g-root-1.g-1_fr_mdks24d3hzbj-stroke" data-item-order="-554978" transform="translate(357, 532)"><g id="1.g-1_fr_mdks24d3hzbj-stroke" fill="none" stroke-linecap="round" stroke-linejoin="round" stroke-miterlimit="4" stroke="#ffffff" stroke-width="2"><g><path d="M 100 10L 10 64L 100 118L 190 64L 100 10ZM 29 64L 100 22L 171 64L 100 106L 29 64Z"></path></g></g></g><g id="g-root-2.g-2_fr_hxr9xod3i03t-stroke" data-item-order="-554974" transform="translate(447, 424)"><g id="2.g-2_fr_hxr9xod3i03t-stroke" fill="none" stroke-linecap="round" stroke-linejoin="round" stroke-miterlimit="4" stroke="#ffffff" stroke-width="2"><g><path d="M 100 10L 10 64L 100 118L 190 64L 100 10ZM 29 64L 100 22L 171 64L 100 106L 29 64Z"></path></g></g></g><g id="g-root-3.g-3_fr_dhxrt8d3i0w3-stroke" data-item-order="-554970" transform="translate(537, 316)"><g id="3.g-3_fr_dhxrt8d3i0w3-stroke" fill="none" stroke-linecap="round" stroke-linejoin="round" stroke-miterlimit="4" stroke="#ffffff" stroke-width="2"><g><path d="M 100 10L 10 64L 100 118L 190 64L 100 10ZM 29 64L 100 22L 171 64L 100 106L 29 64Z"></path></g></g></g><g id="g-root-4.g-4_fr_dhxrt8d3i0w5-stroke" data-item-order="-554966" transform="translate(627, 208)"><g id="4.g-4_fr_dhxrt8d3i0w5-stroke" fill="none" stroke-linecap="round" stroke-linejoin="round" stroke-miterlimit="4" stroke="#ffffff" stroke-width="2"><g><path d="M 100 10L 10 64L 100 118L 190 64L 100 10ZM 29 64L 100 22L 171 64L 100 106L 29 64Z"></path></g></g></g><g id="g-root-5.g-5_fr_4mx8ngd3hyj3-stroke" data-item-order="-554962" transform="translate(717, 100)"><g id="5.g-5_fr_4mx8ngd3hyj3-stroke" fill="none" stroke-linecap="round" stroke-linejoin="round" stroke-miterlimit="4" stroke="#ffffff" stroke-width="2"><g><path d="M 100 10L 10 64L 100 118L 190 64L 100 10ZM 29 64L 100 22L 171 64L 100 106L 29 64Z"></path></g></g></g><g id="g-root-2.text-2_fr_73qj0d3hzbd-stroke" data-item-order="-554948" transform="translate(171, 448)"><g id="2.text-2_fr_73qj0d3hzbd-stroke" fill="none" stroke-linecap="round" stroke-linejoin="round" stroke-miterlimit="4" stroke="#ffffff" stroke-width="2"><g><path d="M 10 10L 16 10L 16 70L 10 70Z"></path></g></g></g><g id="g-root-3.text-3_fr_1useadod3hzwi-stroke" data-item-order="-554934" transform="translate(261, 316)"><g id="3.text-3_fr_1useadod3hzwi-stroke" fill="none" stroke-linecap="round" stroke-linejoin="round" stroke-miterlimit="4" stroke="#ffffff" stroke-width="2"><g><path d="M 10 10L 16 10L 16 118L 10 118Z"></path></g></g></g><g id="g-root-1.text-1_fr_1lwra4sd3i0p7-stroke" data-item-order="-554920" transform="translate(81, 556)"><g id="1.text-1_fr_1lwra4sd3i0p7-stroke" fill="none" stroke-linecap="round" stroke-linejoin="round" stroke-miterlimit="4" stroke="#ffffff" stroke-width="2"><g><path d="M 10 10L 16 10L 16 70L 10 70Z"></path></g></g></g><g id="g-root-4.text-4_fr_1hgxs0cd3i1hg-stroke" data-item-order="-554904" transform="translate(351, 220)"><g id="4.text-4_fr_1hgxs0cd3i1hg-stroke" fill="none" stroke-linecap="round" stroke-linejoin="round" stroke-miterlimit="4" stroke="#ffffff" stroke-width="2"><g><path d="M 10 10L 16 10L 16 94L 10 94Z"></path></g></g></g><g id="g-root-5.text-5_fr_18lx8ukd3hz4d-stroke" data-item-order="-554892" transform="translate(441, 112)"><g id="5.text-5_fr_18lx8ukd3hz4d-stroke" fill="none" stroke-linecap="round" stroke-linejoin="round" stroke-miterlimit="4" stroke="#ffffff" stroke-width="2"><g><path d="M 10 10L 16 10L 16 94L 10 94Z"></path></g></g></g><g id="g-root-sync_mgp5hod3ruoa-stroke" data-item-order="0" transform="translate(693, 238)"><g id="sync_mgp5hod3ruoa-stroke" fill="none" stroke-linecap="round" stroke-linejoin="round" stroke-miterlimit="4" stroke="#de58a9" stroke-width="2"><g><path d="M 41.042 47.897999L 33.788002 47.897999L 33.788002 55.456001M 55.872002 49.375999C 54.399643 54.110519 49.889694 57.231838 44.939999 56.942001C 39.984215 56.515766 35.939758 52.799995 35.096001 47.897999M 49.745998 41.854L 57 41.854L 57 34.298M 34.916 40.372002C 36.390583 35.63987 40.899967 32.521416 45.848 32.812C 50.801655 33.239838 54.844662 36.952637 55.692001 41.852001M 11 19.172001L 50.672001 19.172001M 11 36.501999L 30.148001 36.501999M 11 27.85L 50.661999 27.85M 27.204 19.172001L 27.204 45.470001M 38.821999 19.172001L 38.821999 30.056M 28.636 45.464001L 15.184 45.464001C 12.878763 45.463997 11.01 43.595234 11.01 41.289997L 11.01 15.2C 11.01331 12.897106 12.881104 11.031998 15.184 11.032L 46.487999 11.032C 48.790894 11.031998 50.658688 12.897106 50.661999 15.2L 50.661999 30.200001"></path></g></g></g><g id="g-root-tx_memperol_1cvi39od3ce12-stroke" data-item-order="0" transform="translate(369, 280)"></g><g id="g-root-tx_3_m7c4csd3cf0p-stroke" data-item-order="0" transform="translate(207, 316)"></g><g id="g-root-tx_manipula_1hbble4d3cd8t-stroke" data-item-order="0" transform="translate(369, 220)"></g><g id="g-root-tx_pemrogra_13ym4ukd3ccnj-stroke" data-item-order="0" transform="translate(279, 316)"></g><g id="g-root-tx_4_zko1zgd3ccg7-stroke" data-item-order="0" transform="translate(297, 220)"></g><g id="g-root-code_4jsv7wd3qex5-stroke" data-item-order="0" transform="translate(603, 346)"><g id="code_4jsv7wd3qex5-stroke" fill="none" stroke-linecap="round" stroke-linejoin="round" stroke-miterlimit="4" stroke="#e55753" stroke-width="2"><g><path d="M 28.300039 18.17502L 28.300039 13.57502C 28.300039 12.37502 29.10004 11.575012 30.299999 11.575012L 49.5 11.575012C 49.900002 11.575012 50.5 11.775012 50.700001 11.975012L 55.5 15.975019C 55.900002 16.375019 56.299999 16.975019 56.299999 17.57502L 56.299999 42.575001C 56.299999 43.775002 55.5 44.575001 54.299999 44.575001L 39.299999 44.575001M 10 10M 36.299999 19.974979L 33.299999 22.974979L 36.299999 25.974979M 10 10M 48.299999 19.974979L 51.299999 22.974979L 48.299999 25.974979M 10 10M 40.299999 26.97504L 44.299999 17.97504M 37.099998 56.424999C 35.299999 51.224998 30.299999 47.424999 24.49996 47.424999C 18.699959 47.424999 13.49996 51.224998 11.699952 56.424999M 24.299999 29.42498L 24.299999 23.42498M 13.2998 35.224998L 35.299801 35.224998M 16.0998 37.424999C 16.299801 41.825001 19.899799 45.424999 24.299801 45.424999C 28.899799 45.424999 32.499802 41.825001 32.499802 37.224998L 32.499802 33.625C 32.499802 29.024981 28.899799 25.42498 24.299801 25.42498C 19.899799 25.42498 16.299801 29.024981 16.0998 33.424999L 16.0998 37.424999Z"></path></g></g></g><g id="g-root-tx_memperke_zismq4d3cdfs-stroke" data-item-order="0" transform="translate(279, 400)"></g><g id="g-root-tx_menggabu_m97jm4d3ce15-stroke" data-item-order="0" transform="translate(459, 172)"></g><g id="g-root-tx_2_1hjfocsd3xgr2-stroke" data-item-order="0" transform="translate(117, 448)"></g><g id="g-root-clou_mg2oekd3uoln-stroke" data-item-order="0" transform="translate(783, 130)"><g id="clou_mg2oekd3uoln-stroke" fill="none" stroke-linecap="round" stroke-linejoin="round" stroke-miterlimit="4" stroke="#ba5de5" stroke-width="2"><g><path d="M 35.071999 54.858002C 35.070896 56.041317 34.11132 57 32.928001 57L 13.642 57C 12.459463 56.998898 11.501102 56.040539 11.5 54.858002L 11.5 49.5C 11.5 42.990772 16.776772 37.714001 23.285999 37.714001C 29.795229 37.714001 35.071999 42.990772 35.071999 49.5ZM 18.785999 45C 18.785999 45.276142 19.009857 45.5 19.285999 45.5C 19.562141 45.5 19.785999 45.276142 19.785999 45C 19.785999 44.723858 19.562141 44.5 19.285999 44.5C 19.009857 44.5 18.785999 44.723858 18.785999 45M 26.785999 44.987999C 26.785999 45.264141 27.009857 45.487999 27.285999 45.487999C 27.562143 45.487999 27.785999 45.264141 27.785999 44.987999C 27.785999 44.711857 27.562143 44.487999 27.285999 44.487999C 27.009857 44.487999 26.785999 44.711857 26.785999 44.987999M 23.285999 37.714001L 23.285999 33.428001M 20.071999 30.214001C 20.072001 31.989044 21.510956 33.428001 23.285999 33.428001C 25.061043 33.428001 26.5 31.989044 26.5 30.214001C 26.5 28.438957 25.061043 27 23.285999 27C 21.510956 27 20.072001 28.438957 20.072001 30.214001M 11.5 51.630001L 35.071999 51.630001M 48.5 12L 56.5 20L 48.5 28M 32.5 12L 24.5 20L 32.5 28M 42.5 11L 38.5 29"></path></g></g></g><g id="g-root-tx_dasarlan_94m618d3xgy4-stroke" data-item-order="0" transform="translate(189, 448)"></g><g id="g-root-1_1utn8jwd3ksu8-stroke" data-item-order="0" transform="translate(513, 454)"><g id="1_1utn8jwd3ksu8-stroke" fill="none" stroke-linecap="round" stroke-linejoin="round" stroke-miterlimit="4" stroke="#de8431" stroke-width="2"><g><path d="M 11.5 56.5L 56.5 56.5M 45.6394 56.500198L 22.0394 56.500198L 19.0394 42.500198C 18.839401 41.9002 19.0394 41.300201 19.4394 40.700199C 19.839401 40.100201 20.239399 39.9002 20.839401 39.9002L 47.239399 39.9002C 47.839401 39.9002 48.239399 40.100201 48.6394 40.700199C 49.039398 41.300201 49.039398 41.9002 49.039398 42.500198L 45.6394 56.500198ZM 34 51.5C 35.656799 51.5 37 50.156799 37 48.5C 37 46.843201 35.656799 45.5 34 45.5C 32.343201 45.5 31 46.843201 31 48.5C 31 50.156799 32.343201 51.5 34 51.5ZM 26.71484 26.453119C 29.143101 29.08214 32.7854 30.700001 36.630199 30.700001C 38.653801 30.700001 40.521797 30.2854 42.140598 29.476561M 26.5998 34.0998C 25.9998 32.899799 25.799801 31.6998 25.799801 30.299801C 25.799801 25.69986 29.399799 22.099861 33.999802 22.099861C 38.5998 22.099861 42.199799 25.69986 42.199799 30.299801C 42.199799 31.6998 41.799801 32.899799 41.399799 34.0998M 10 10M 53.5 27.9L 34.099998 11.5L 14.5 27.9M 44.599998 12.8999L 50.599998 12.8999L 50.599998 18.8999"></path></g></g></g><g id="g-root-tx_memperda_1uuw6q4d3xf65-stroke" data-item-order="0" transform="translate(189, 484)"></g><g id="g-root-tx_integras_v4ujv0d3cd8g-stroke" data-item-order="0" transform="translate(459, 112)"></g><g id="g-root-tx_1_1q6yln0d3ccg4-stroke" data-item-order="0" transform="translate(27, 556)"></g><g id="g-root-tx_memperke_4goky4d3ce83-stroke" data-item-order="0" transform="translate(99, 592)"></g><g id="g-root-tx_memulaid_8wi32kd3cdfu-stroke" data-item-order="0" transform="translate(99, 556)"></g><g id="g-root-huma_hzmp70d3hz4f-stroke" data-item-order="0" transform="translate(423, 562)"><g id="huma_hzmp70d3hz4f-stroke" fill="none" stroke-linecap="round" stroke-linejoin="round" stroke-miterlimit="4" stroke="#e0cb15" stroke-width="2"><g><path d="M 16 37L 16 31.634001C 16.000261 31.009022 16.292664 30.420097 16.790375 30.042103C 17.288088 29.664108 17.933884 29.540506 18.535999 29.708L 34 34L 34 57L 17.464001 52.400002C 16.601864 52.160183 16.003956 51.376858 16 50.481998L 16 43M 34 57L 50.535999 52.400002C 51.398136 52.160183 51.996044 51.376858 52 50.481998L 52 43M 52 37L 52 31.634001C 51.999737 31.009022 51.707336 30.420097 51.209625 30.042103C 50.711914 29.664108 50.066116 29.540506 49.464001 29.708L 34 34M 27.5 17.501999C 27.5 21.09185 30.410151 24.001999 34 24.001999C 37.589851 24.001999 40.5 21.09185 40.5 17.502001C 40.5 13.912149 37.589851 11.002001 34 11.002001C 30.410151 11.002001 27.5 13.912149 27.5 17.502001ZM 25.493999 31.639999C 27.562222 28.98171 30.644537 27.305389 34 27.014C 37.355965 27.307392 40.438774 28.983192 42.509998 31.639999M 46 36.599998L 38.711998 38.799999C 38.289921 38.926937 38.000717 39.315247 38 39.756001L 38 42.667999C 37.999886 42.984291 38.149406 43.28199 38.403194 43.470757C 38.656982 43.659519 38.985107 43.717091 39.288002 43.625999L 46 41.599998M 16 43C 14.343145 43 13 41.656853 13 40C 13 38.343147 14.343145 37 16 37L 18 37C 18.552284 37 19 37.447716 19 38L 19 42C 19 42.552284 18.552284 43 18 43ZM 52 43C 53.656857 43 55 41.656853 55 40C 55 38.343147 53.656857 37 52 37L 50 37C 49.447716 37 49 37.447716 49 38L 49 42C 49 42.552284 49.447716 43 50 43Z"></path></g></g></g><g id="g-root-tx_5_4ik07gd3cd8i-stroke" data-item-order="0" transform="translate(387, 112)"></g></g></g></svg>