<?xml version="1.0" encoding="utf-8" standalone="yes"?>
<!DOCTYPE svg PUBLIC "-//W3C//DTD SVG 1.1//EN" "http://www.w3.org/Graphics/SVG/1.1/DTD/svg11.dtd">
<svg width="722" height="485" viewBox="0 0 722 485" style="fill:none;stroke:none;fill-rule:evenodd;clip-rule:evenodd;stroke-linecap:round;stroke-linejoin:round;stroke-miterlimit:1.5;" version="1.1" xmlns="http://www.w3.org/2000/svg" xmlns:xlink="http://www.w3.org/1999/xlink"><style class="text-font-style fontImports" data-font-family="Roboto">@import url('https://fonts.googleapis.com/css2?family=Roboto:wght@400;700&amp;display=block');</style><g id="items" style="isolation: isolate"><g id="blend" style="mix-blend-mode: normal"><g id="g-root-0.cu_sy_1ly0o3abewiru-fill" data-item-order="-105834" transform="translate(321.011962890625, 360.410888671875)"><g id="0.cu_sy_1ly0o3abewiru-fill" stroke="none" fill="#666666"><g><path d="M 39.429932 68.531983C 41.176932 72.624483 46.388132 75.588983 52.557632 75.588983C 58.727132 75.588983 63.938132 72.624483 65.685132 68.531983C 61.841732 69.560083 57.349432 70.158983 52.557632 70.158983C 47.765732 70.158983 43.273432 69.560083 39.429932 68.531983ZM 26.851318 59.329102C 27.799718 65.387902 38.940718 70.159202 52.557518 70.159202C 66.174418 70.159202 77.325418 65.378002 78.263818 59.329102C 72.224118 61.045902 62.959818 62.143902 52.557518 62.143902C 42.155318 62.143902 32.881018 61.045902 26.851318 59.329102ZM 14.8417 10C 11.747 13.5834 10 16.7176 10 18.3446C 10 19.4925 10.8785 20.5905 12.4758 21.6186C 14.5722 22.9561 15.271 25.6612 14.0331 27.8172C 13.2743 29.1348 12.8751 30.2327 12.8751 30.9814C 12.8751 32.1392 13.8334 33.2472 15.5705 34.2653C 17.7268 35.523 18.5754 38.258 17.3375 40.434C 16.6586 41.6218 16.2992 42.6199 16.2992 43.2987C 16.2992 44.3467 17.1578 45.3449 18.7152 46.2732C 20.8415 47.5309 21.4505 50.2858 20.3124 52.4718C 19.8532 53.3601 19.6037 54.0988 19.6037 54.6278C 19.6037 58.7802 34.3585 62.144 52.5476 62.144C 70.7366 62.144 85.4915 58.7802 85.4915 54.6278C 85.4915 54.0988 85.2518 53.3601 84.7826 52.4718C 83.6446 50.2858 84.2636 47.5309 86.38 46.2732C 87.9374 45.3549 88.7958 44.3467 88.7958 43.2987C 88.7958 42.6199 88.4365 41.6317 87.7577 40.434C 86.5198 38.2679 87.3682 35.533 89.5246 34.2653C 91.2716 33.2472 92.22 32.1392 92.22 30.9814C 92.22 30.2327 91.8207 29.1348 91.062 27.8172C 89.8241 25.6612 90.5229 22.9461 92.6194 21.6186C 94.2266 20.6005 95.0952 19.4925 95.0952 18.3446C 95.0952 16.7176 93.3282 13.5834 90.2334 10C 83.1255 13.0943 68.9197 15.2104 52.5376 15.2104C 36.1555 15.2104 21.9496 13.0943 14.8417 10Z"></path></g></g></g><g id="g-root-3.cu_sy_18mk5pybewkcr-fill" data-item-order="-105830" transform="translate(265.755859375, 259.237060546875)"><g id="3.cu_sy_18mk5pybewkcr-fill" stroke="none" fill="#92bd39"><g><path d="M 38.5714 48.4791C 26.3322 38.0783 16.4989 24.9325 10 10.01L 204.439 10C 197.9 25.0024 187.997 38.2081 175.668 48.6388C 159.785 62.0841 150.701 81.8676 150.171 102.6294C 150.132 104.1965 149.802 105.7337 149.113 107.1311C 148.394 108.5885 147.326 110.245 145.949 110.894C 139.07 114.148 124.435 116.394 107.5839 116.394C 90.7326 116.394 76.1574 114.158 69.2691 110.914C 68.3607 110.485 67.572 109.6964 66.9431 108.828C 65.6752 107.1012 65.0663 104.9851 64.9964 102.839C 64.3275 81.8277 54.644 62.154 38.5714 48.4791Z"></path></g></g></g><g id="g-root-3.line_sy_146qnlibewl50-fill" data-item-order="-105825" transform="translate(195, 303)"></g><g id="g-root-2.cu_sy_vbq4fqbewirx-fill" data-item-order="-105822" transform="translate(363.3597412109375, 111)"><g id="2.cu_sy_vbq4fqbewirx-fill" stroke="none" fill="#3cc583"><g><path d="M 115.64 115.965C 115.64 130.987 112.506 145.281 106.8651 158.227L 10.01 158.237L 10 10L 10.02 10C 68.3906 10.1996 115.64 57.5624 115.64 115.965Z"></path></g></g></g><g id="g-root-2.line_sy_qvwmbabewjk6-fill" data-item-order="-105817" transform="translate(476.9998779296875, 159)"></g><g id="g-root-1.cu_sy_i09m2ebewkcv-fill" data-item-order="-105814" transform="translate(257, 111)"><g id="1.cu_sy_i09m2ebewkcv-fill" stroke="none" fill="#1eabda"><g><path d="M 114.473 10L 116.35 10L 116.36 158.227L 18.7759 158.227C 12.866 144.672 9.7113 129.65 10.0208 113.849C 11.1289 57.0134 57.6198 10.7885 114.473 10Z"></path></g></g></g><g id="g-root-1.line_sy_mg346ubewkcg-fill" data-item-order="-105809" transform="translate(195, 159)"></g><g id="g-root-1_1lz9m9ibewky2-fill" data-item-order="-1296" transform="translate(298, 177)"><g id="1_1lz9m9ibewky2-fill" stroke="none" fill="#484848"><g><path d="M 39.625 17.5L 35.860001 17.5C 37.848709 15.833997 38.956017 13.342547 38.860001 10.75C 38.909637 10.335822 38.614159 9.959811 38.199989 9.91011C 37.785812 9.86041 37.40976 10.155837 37.360001 10.57C 36.805 12.82 34.900002 13 32.860001 13L 24.130001 13C 21.275215 12.965435 18.87578 15.136041 18.625 17.980001C 18.545267 19.484501 19.119469 20.950081 20.199999 22L 17.5 22C 13.979185 22 11.125 24.854185 11.125 28.375C 11.125 31.895815 13.979185 34.75 17.5 34.75C 17.5 34.75 20.380001 34.75 21.190001 34.75C 28.690001 34.510002 27.085001 36.145 26.710001 36.91C 25.755945 38.828735 26.02669 41.13007 27.400002 42.775002L 29.5 45.220001C 29.928911 45.717018 30.553503 46.001923 31.210001 46L 32.830002 46C 33.481697 45.999557 34.100742 45.714687 34.525002 45.220001L 36.625 42.775002C 37.98251 41.158302 38.25341 38.891014 37.314999 37C 36.782158 36.05201 36.503147 34.982479 36.505001 33.895C 36.386864 31.896387 34.741997 30.330158 32.739998 30.309999L 27.25 30.309999C 26.628681 30.309999 26.125 29.80632 26.125 29.184999C 26.125 28.563681 26.628681 28.059999 27.25 28.059999L 39.625 28.059999C 42.524494 28.059999 44.875 25.709496 44.875 22.809999C 44.875 19.910505 42.524494 17.560001 39.625 17.560001ZM 29.02 37.75C 29.848427 37.75 30.52 38.421574 30.52 39.25C 30.52 40.078426 29.848427 40.75 29.02 40.75C 28.191572 40.75 27.52 40.078426 27.52 39.25C 27.52 38.421574 28.191572 37.75 29.02 37.75ZM 35.02 40.75C 34.191574 40.75 33.52 40.078426 33.52 39.25C 33.52 38.421574 34.191574 37.75 35.02 37.75C 35.848427 37.75 36.52 38.421574 36.52 39.25C 36.52 40.078426 35.848427 40.75 35.02 40.75Z"></path></g></g></g><g id="g-root-sql_qssf7abeze30-fill" data-item-order="-1296" transform="translate(393, 177)"><g id="sql_qssf7abeze30-fill" stroke="none" fill="#484848"><g><path d="M 28 24.445C 27.276802 24.444954 26.688217 25.026848 26.68 25.75L 26.68 29.5C 26.680099 30.228945 27.271055 30.819817 28 30.819817C 28.728945 30.819817 29.319899 30.228945 29.32 29.5L 29.32 25.75C 29.311783 25.026848 28.723198 24.444954 28 24.445ZM 43.75 16.75L 12.25 16.75C 11.00736 16.75 10 17.75736 10 19L 10 37C 10 38.242641 11.00736 39.25 12.25 39.25L 43.75 39.25C 44.992641 39.25 46 38.242641 46 37L 46 19C 46 17.75736 44.992641 16.75 43.75 16.75ZM 19.645 26.305L 22.405001 28.135C 23.450888 28.851883 23.91218 30.163475 23.545311 31.377234C 23.17844 32.590992 22.067871 33.427471 20.799999 33.445L 18.25 33.445C 17.777811 33.385155 17.423822 32.983467 17.423822 32.5075C 17.423822 32.031532 17.777811 31.629847 18.25 31.57L 20.799999 31.57C 21.251377 31.569462 21.648726 31.27232 21.776838 30.839504C 21.904953 30.406689 21.73336 29.941139 21.355 29.695L 18.594999 27.865C 17.795206 27.321787 17.317429 26.416821 17.32 25.450001C 17.32 23.859419 18.609419 22.57 20.199999 22.57L 22.75 22.57C 23.222191 22.629847 23.576178 23.031532 23.576178 23.5075C 23.576178 23.983467 23.222191 24.385153 22.75 24.445L 20.200001 24.445C 19.642475 24.444941 19.188198 24.892536 19.18 25.450001C 19.182972 25.794647 19.357309 26.1152 19.645 26.305ZM 31.18 29.5C 31.173105 30.584934 30.605734 31.589182 29.679998 32.154999C 29.642231 32.183331 29.619999 32.227787 29.619999 32.275002C 29.619999 32.322216 29.642231 32.366673 29.68 32.395L 30.775002 33.264999C 31.17053 33.593773 31.236675 34.175861 30.924999 34.584999C 30.600309 34.988022 30.011841 35.054897 29.605 34.735001L 26.77 32.5C 25.568499 31.991873 24.796589 30.804321 24.82 29.5L 24.82 25.75C 24.82032 23.993959 26.243959 22.57058 27.999998 22.57058C 29.756037 22.57058 31.179678 23.993959 31.179998 25.749998ZM 37.75 33.445L 34.75 33.445C 34.102917 33.445011 33.482552 33.186935 33.026405 32.727974C 32.570259 32.269012 32.316006 31.64707 32.32 31L 32.32 23.5C 32.32 22.986374 32.736374 22.57 33.25 22.57C 33.763626 22.57 34.18 22.986374 34.18 23.5L 34.18 31C 34.18 31.3148 34.435196 31.57 34.75 31.57L 37.75 31.57C 38.222191 31.629847 38.57618 32.031532 38.57618 32.5075C 38.57618 32.983467 38.222191 33.385155 37.75 33.445Z"></path></g></g></g><g id="g-root-net_18n6pyubf7rpr-fill" data-item-order="-1296" transform="translate(345, 291)"><g id="net_18n6pyubf7rpr-fill" stroke="none" fill="#484848"><g><path d="M 44.5 40.75L 44.5 15.25C 44.5 12.764719 42.485283 10.75 40 10.75L 16 10.75C 13.514719 10.75 11.5 12.764719 11.5 15.25L 11.5 40.75C 11.5 43.235283 13.514719 45.25 16 45.25L 40 45.25C 42.485283 45.25 44.5 43.235283 44.5 40.75ZM 41.5 32.125C 41.5 32.332108 41.332108 32.5 41.125 32.5L 35.125 32.5C 34.917892 32.5 34.75 32.332108 34.75 32.125L 34.75 23.77C 34.755188 23.665062 34.804161 23.567114 34.885002 23.5C 36.766811 21.848566 38.772717 20.344139 40.885002 19C 41.001343 18.93634 41.142662 18.938869 41.256657 19.006649C 41.370647 19.074429 41.440361 19.197378 41.439999 19.33ZM 22 41.875C 22 42.082108 21.832108 42.25 21.625 42.25L 16 42.25C 15.171573 42.25 14.5 41.578426 14.5 40.75L 14.5 35.875C 14.5 35.667892 14.667893 35.5 14.875 35.5L 21.625 35.5C 21.832108 35.5 22 35.667892 22 35.875ZM 22 32.125C 22 32.332108 21.832108 32.5 21.625 32.5L 14.62 32.5C 14.556716 32.493282 14.506716 32.443283 14.5 32.380001C 14.493496 32.350353 14.493496 32.319649 14.5 32.290001L 19.555 26.724998C 20.104446 26.204428 20.838404 25.923798 21.594999 25.945C 21.802107 25.945 21.969999 26.112894 21.969999 26.32ZM 17.365 24.715L 15.145 27.145C 15.049046 27.267204 14.883242 27.310192 14.74 27.25C 14.59702 27.194843 14.501989 27.058237 14.5 26.905001L 14.5 15.25C 14.5 14.421573 15.171573 13.75 16 13.75L 40 13.75C 40.828426 13.75 41.5 14.421573 41.5 15.25C 41.500927 15.392582 41.410175 15.519635 41.275002 15.565001C 38.275002 16.6 34.869999 19.674999 29.41 24.055C 28.386627 24.739325 27.094887 24.884716 25.945 24.445L 23.860001 23.5C 21.652678 22.517599 19.067936 23.00112 17.365 24.715ZM 31.75 41.875C 31.75 42.082108 31.582108 42.25 31.375 42.25L 25.375 42.25C 25.167892 42.25 25 42.082108 25 41.875L 25 35.875C 25 35.667892 25.167892 35.5 25.375 35.5L 31.375 35.5C 31.582108 35.5 31.75 35.667892 31.75 35.875ZM 31.75 32.125C 31.75 32.332108 31.582108 32.5 31.375 32.5L 25.375 32.5C 25.167892 32.5 25 32.332108 25 32.125L 25 27.82C 25.002249 27.702507 25.057354 27.592293 25.15 27.519999C 25.253523 27.466614 25.376476 27.466614 25.48 27.519999C 27.476494 28.061012 29.610575 27.669487 31.285 26.454998C 31.372681 26.3848 31.49732 26.3848 31.584999 26.454998C 31.687128 26.498074 31.752556 26.59919 31.75 26.710001ZM 34.75 41.875L 34.75 35.875C 34.75 35.667892 34.917892 35.5 35.125 35.5L 41.125 35.5C 41.332108 35.5 41.5 35.667892 41.5 35.875L 41.5 40.75C 41.5 41.578426 40.828426 42.25 40 42.25L 35.125 42.25C 34.917892 42.25 34.75 42.082108 34.75 41.875Z"></path></g></g></g><g id="g-root-tx_keyskill_dkg3xybewl55-fill" data-item-order="0" transform="translate(231, 15)"><g id="tx_keyskill_dkg3xybewl55-fill" stroke="none" fill="#484848"><g><text style="font: 20px Roboto, sans-serif; white-space: pre;" font-size="20px" font-family="Roboto, sans-serif"><tspan x="16.87" y="34" dominant-baseline="ideographic">Data Analysis dan Business </tspan><tspan x="98.77" y="58" dominant-baseline="ideographic">Analytics</tspan></text></g></g></g><g id="g-root-tx_pythonpr_1hapn92bfam8e-fill" data-item-order="0" transform="translate(111, 147)"><g id="tx_pythonpr_1hapn92bfam8e-fill" stroke="none" fill="#32444a"><g><text style="font: 20px Roboto, sans-serif; white-space: pre;" font-size="20px" font-family="Roboto, sans-serif"><tspan x="17.75" y="34" dominant-baseline="ideographic">Python</tspan></text></g></g></g><g id="g-root-tx_sqlprofi_deu0hibfamtr-fill" data-item-order="0" transform="translate(543, 147)"><g id="tx_sqlprofi_deu0hibfamtr-fill" stroke="none" fill="#374840"><g><text style="font: 20px Roboto, sans-serif; white-space: pre;" font-size="20px" font-family="Roboto, sans-serif"><tspan x="12" y="34" dominant-baseline="ideographic">SQL</tspan></text></g></g></g><g id="g-root-tx_datavisu_1q882rabfakg4-fill" data-item-order="0" transform="translate(99, 279)"><g id="tx_datavisu_1q882rabfakg4-fill" stroke="none" fill="#424736"><g><text style="font: 20px Roboto, sans-serif; white-space: pre;" font-size="20px" font-family="Roboto, sans-serif"><tspan x="12.83" y="34" dominant-baseline="ideographic">Power BI</tspan><tspan x="21.69" y="58" dominant-baseline="ideographic">Tableau</tspan></text></g></g></g><g id="g-root-0.cu_sy_1ly0o3abewiru-stroke" data-item-order="-105834" transform="translate(321.011962890625, 360.410888671875)"><g id="0.cu_sy_1ly0o3abewiru-stroke" fill="none" stroke-linecap="round" stroke-linejoin="round" stroke-miterlimit="4" stroke="#ffffff" stroke-width="2"><g><path d="M 39.429932 68.531983C 41.176932 72.624483 46.388132 75.588983 52.557632 75.588983C 58.727132 75.588983 63.938132 72.624483 65.685132 68.531983C 61.841732 69.560083 57.349432 70.158983 52.557632 70.158983C 47.765732 70.158983 43.273432 69.560083 39.429932 68.531983ZM 26.851318 59.329102C 27.799718 65.387902 38.940718 70.159202 52.557518 70.159202C 66.174418 70.159202 77.325418 65.378002 78.263818 59.329102C 72.224118 61.045902 62.959818 62.143902 52.557518 62.143902C 42.155318 62.143902 32.881018 61.045902 26.851318 59.329102ZM 14.8417 10C 11.747 13.5834 10 16.7176 10 18.3446C 10 19.4925 10.8785 20.5905 12.4758 21.6186C 14.5722 22.9561 15.2709 25.6612 14.0331 27.8172C 13.2743 29.1348 12.8751 30.2327 12.8751 30.9814C 12.8751 32.1392 13.8334 33.2472 15.5705 34.2653C 17.7268 35.523 18.5754 38.258 17.3375 40.434C 16.6586 41.6218 16.2992 42.6199 16.2992 43.2987C 16.2992 44.3467 17.1578 45.3449 18.7151 46.2732C 20.8415 47.5309 21.4505 50.2858 20.3124 52.4718C 19.8532 53.3602 19.6036 54.0988 19.6036 54.6278C 19.6036 58.7802 34.3585 62.144 52.5476 62.144C 70.7366 62.144 85.4915 58.7802 85.4915 54.6278C 85.4915 54.0988 85.2518 53.3602 84.7826 52.4718C 83.6446 50.2858 84.2636 47.5309 86.38 46.2732C 87.9374 45.3549 88.7958 44.3467 88.7958 43.2987C 88.7958 42.6199 88.4365 41.6317 87.7577 40.434C 86.5198 38.2679 87.3682 35.533 89.5246 34.2653C 91.2716 33.2472 92.22 32.1392 92.22 30.9814C 92.22 30.2327 91.8207 29.1348 91.062 27.8172C 89.8241 25.6612 90.523 22.9461 92.6194 21.6186C 94.2266 20.6005 95.0952 19.4925 95.0952 18.3446C 95.0952 16.7176 93.3282 13.5834 90.2334 10C 83.1255 13.0943 68.9197 15.2104 52.5376 15.2104C 36.1555 15.2104 21.9496 13.0943 14.8417 10ZM 16.299072 43.298584C 16.299072 47.870184 32.531472 51.573384 52.557472 51.573384C 72.583372 51.573384 88.815672 47.870184 88.815672 43.298584M 12.875244 30.991455C 12.875244 35.992255 30.645044 40.044755 52.557744 40.044755C 74.470444 40.044755 92.240144 35.992255 92.240144 30.991455M 10 18.344483C 10 23.704583 29.0576 28.056583 52.5576 28.056583C 76.0576 28.056583 95.1151 23.704583 95.1151 18.344483"></path></g></g></g><g id="g-root-3.cu_sy_18mk5pybewkcr-stroke" data-item-order="-105830" transform="translate(265.755859375, 259.237060546875)"><g id="3.cu_sy_18mk5pybewkcr-stroke" fill="none" stroke-linecap="round" stroke-linejoin="round" stroke-miterlimit="4" stroke="#ffffff" stroke-width="2"><g><path d="M 10 10.01C 16.4989 24.9325 26.3322 38.0783 38.5714 48.4791C 54.644 62.154 64.3275 81.8277 64.9964 102.839C 65.0663 104.9851 65.6752 107.1012 66.9431 108.828C 67.572 109.6964 68.3607 110.485 69.2691 110.9142C 76.1574 114.1582 90.7326 116.3941 107.5839 116.3941C 124.4352 116.3941 139.0703 114.1482 145.9486 110.8942C 147.3263 110.2454 148.3945 108.5885 149.1132 107.1311C 149.8021 105.7337 150.1315 104.1965 150.1714 102.6294C 150.7005 81.8676 159.7851 62.0841 175.668 48.6388C 187.9971 38.2081 197.9002 25.0024 204.439 10L 10 10.01Z"></path></g></g></g><g id="g-root-3.line_sy_146qnlibewl50-stroke" data-item-order="-105825" transform="translate(195, 303)"><g id="3.line_sy_146qnlibewl50-stroke" fill="none" stroke-linecap="round" stroke-linejoin="round" stroke-miterlimit="4" stroke="#484848" stroke-width="2"><g><path d="M 10 10L 80 10"></path><path d="M 74 16.5L 80.5 10L 74 3.5" stroke-dasharray="none"></path></g></g></g><g id="g-root-2.cu_sy_vbq4fqbewirx-stroke" data-item-order="-105822" transform="translate(363.3597412109375, 111)"><g id="2.cu_sy_vbq4fqbewirx-stroke" fill="none" stroke-linecap="round" stroke-linejoin="round" stroke-miterlimit="4" stroke="#ffffff" stroke-width="2"><g><path d="M 10.01 158.2371L 10 10L 10.02 10M 10.01 158.2371L 10.02 10M 10.01 158.2371L 106.8651 158.2271C 112.5055 145.2809 115.6402 130.9872 115.6402 115.9649C 115.6402 57.5624 68.3906 10.1996 10.02 10"></path></g></g></g><g id="g-root-2.line_sy_qvwmbabewjk6-stroke" data-item-order="-105817" transform="translate(476.9998779296875, 159)"><g id="2.line_sy_qvwmbabewjk6-stroke" fill="none" stroke-linecap="round" stroke-linejoin="round" stroke-miterlimit="4" stroke="#484848" stroke-width="2"><g><path d="M 64.000122 10L 12.000122 10"></path><path d="M 18.000122 3.5L 11.500122 10L 18.000122 16.5" stroke-dasharray="none"></path></g></g></g><g id="g-root-1.cu_sy_i09m2ebewkcv-stroke" data-item-order="-105814" transform="translate(257, 111)"><g id="1.cu_sy_i09m2ebewkcv-stroke" fill="none" stroke-linecap="round" stroke-linejoin="round" stroke-miterlimit="4" stroke="#ffffff" stroke-width="2"><g><path d="M 116.3498 10C 115.7209 10 115.102 10 114.473 10M 116.3498 10L 116.3598 158.2271L 18.7759 158.2271C 12.8659 144.672 9.7113 129.6497 10.0208 113.8488C 11.1289 57.0134 57.6198 10.7885 114.473 10M 116.3498 10L 114.473 10"></path></g></g></g><g id="g-root-1.line_sy_mg346ubewkcg-stroke" data-item-order="-105809" transform="translate(195, 159)"><g id="1.line_sy_mg346ubewkcg-stroke" fill="none" stroke-linecap="round" stroke-linejoin="round" stroke-miterlimit="4" stroke="#484848" stroke-width="2"><g><path d="M 10 10L 74 10"></path><path d="M 68 16.5L 74.5 10L 68 3.5" stroke-dasharray="none"></path></g></g></g><g id="g-root-1_1lz9m9ibewky2-stroke" data-item-order="-1296" transform="translate(298, 177)"></g><g id="g-root-sql_qssf7abeze30-stroke" data-item-order="-1296" transform="translate(393, 177)"></g><g id="g-root-net_18n6pyubf7rpr-stroke" data-item-order="-1296" transform="translate(345, 291)"></g><g id="g-root-tx_keyskill_dkg3xybewl55-stroke" data-item-order="0" transform="translate(231, 15)"></g><g id="g-root-tx_pythonpr_1hapn92bfam8e-stroke" data-item-order="0" transform="translate(111, 147)"></g><g id="g-root-tx_sqlprofi_deu0hibfamtr-stroke" data-item-order="0" transform="translate(543, 147)"></g><g id="g-root-tx_datavisu_1q882rabfakg4-stroke" data-item-order="0" transform="translate(99, 279)"></g></g></g></svg>