<?xml version="1.0" encoding="utf-8" standalone="yes"?>
<!DOCTYPE svg PUBLIC "-//W3C//DTD SVG 1.1//EN" "http://www.w3.org/Graphics/SVG/1.1/DTD/svg11.dtd">
<svg width="689" height="566" viewBox="0 0 689 566" style="fill:none;stroke:none;fill-rule:evenodd;clip-rule:evenodd;stroke-linecap:round;stroke-linejoin:round;stroke-miterlimit:1.5;" version="1.1" xmlns="http://www.w3.org/2000/svg" xmlns:xlink="http://www.w3.org/1999/xlink"><style class="text-font-style fontImports" data-font-family="Roboto">@import url('https://fonts.googleapis.com/css2?family=Roboto:wght@400;700&amp;display=block');</style><g id="items" style="isolation: isolate"><g id="blend" style="mix-blend-mode: normal"><g id="g-root--1.cu_sy_1d1r09296zs3q-fill" data-item-order="-91004" transform="translate(110, 447)"><g id="-1.cu_sy_1d1r09296zs3q-fill" stroke="none" fill="url(#gradient-ffed4b-499785973)"><g><path d="M 64 31.7778C 64 46.8122 51.9117 59 37 59C 22.0883 59 9.999999 46.8122 10 31.7778C 10.000001 22.8728 14.2409 14.9666 20.7974 10L 53.2026 10.000003C 59.7592 14.9666 64 22.8729 64 31.7778Z"></path></g></g></g><g id="g-root--1.cu_1_sy_zqahvq96zton-fill" data-item-order="-91000" transform="translate(41, 123)"><g id="-1.cu_1_sy_zqahvq96zton-fill" stroke="none" fill="url(#gradient-cbcbcb-248399021)"><g><path d="M 130 94C 130 77.4315 143.4315 64 160 64C 176.5685 64 190 77.4315 190 94C 190 103.8136 185.2879 112.5266 178.0029 118L 141.9971 118C 134.7121 112.5266 130 103.8136 130 94ZM 130 34C 130 47.2548 119.2548 58 106 58C 92.7452 58 82 47.2548 82 34C 82 20.7452 92.7452 10 106 10C 119.2548 10 130 20.7452 130 34ZM 82 88C 82 68.1177 65.8823 52 46 52C 26.1177 52 10 68.1177 10 88C 10 100.5218 16.3931 111.5505 26.0932 118L 65.9068 118C 75.6069 111.5505 82 100.5218 82 88Z"></path></g></g></g><g id="g-root-3.cu_sy_mfggli96zs3s-fill" data-item-order="-90996" transform="translate(85.33203125, 375)"><g id="3.cu_sy_mfggli96zs3s-fill" stroke="none" fill="url(#gradient-bceb57-497517668)"><g><path d="M 82.6074 82C 85.9211 82 88.6074 79.3137 88.6074 76L 88.6074 55L 113.055 10L 10 10L 34.4478 55L 34.4478 76C 34.4478 79.3137 37.1341 82 40.4478 82L 82.6074 82Z"></path></g></g></g><g id="g-root-2.cu_sy_93zy8696ztop-fill" data-item-order="-90992" transform="translate(46.21484375, 303)"><g id="2.cu_sy_93zy8696ztop-fill" stroke="none" fill="url(#gradient-64edab-240055791)"><g><path d="M 49.1165 82L 152.172 82L 191.288 10L 10 10L 49.1165 82Z"></path></g></g></g><g id="g-root-1.cu_sy_4o6g3q96zugy-fill" data-item-order="-90988" transform="translate(15, 231)"><defs><linearGradient id="gradient-ffed4b-499785973" x2="0" y2="1"><stop offset="0" stop-color="#fff282"></stop><stop offset="1" stop-color="#ffe714"></stop></linearGradient><linearGradient id="gradient-cbcbcb-248399021" x2="0" y2="1"><stop offset="0" stop-color="#d9d9d9"></stop><stop offset="1" stop-color="#bcbcbc"></stop></linearGradient><linearGradient id="gradient-bceb57-497517668" x2="0" y2="1"><stop offset="0" stop-color="#cff976"></stop><stop offset="1" stop-color="#a8dd38"></stop></linearGradient><linearGradient id="gradient-64edab-240055791" x2="0" y2="1"><stop offset="0" stop-color="#83fac1"></stop><stop offset="1" stop-color="#44e095"></stop></linearGradient><linearGradient id="gradient-4dd3ff-378786070" x2="0" y2="1"><stop offset="0" stop-color="#7fdfff"></stop><stop offset="1" stop-color="#1ac6ff"></stop></linearGradient></defs><g id="1.cu_sy_4o6g3q96zugy-fill" stroke="none" fill="url(#gradient-4dd3ff-378786070)"><g><path d="M 254 16C 254 12.6863 251.314 10 248 10L 16 10C 12.6863 10 10 12.6863 10 16L 10 31.0055C 10 34.3192 12.6863 37.0055 16 37.0055L 16.7699 37.0055L 41.2148 82L 222.503 82L 246.948 37.0055L 248 37.0055C 251.314 37.0055 254 34.3192 254 31.0055L 254 16Z"></path></g></g></g><g id="g-root-tx_datascie_1uu9yx296zrwr-fill" data-item-order="0" transform="translate(173, 3)"><g id="tx_datascie_1uu9yx296zrwr-fill" stroke="none" fill="#484848"><g><text style="font: bold 20px Roboto, sans-serif; white-space: pre;" font-weight="bold" font-size="20px" font-family="Roboto, sans-serif"><tspan x="16.95" y="52" dominant-baseline="ideographic">Data Science, Machine Learning, </tspan><tspan x="39.41" y="76" dominant-baseline="ideographic">Deep Learning dan Transfer </tspan><tspan x="124.1" y="100" dominant-baseline="ideographic">Learning</tspan></text></g></g></g><g id="g-root-netw_1hf2scm97gmiz-fill" data-item-order="0" transform="translate(125, 135)"></g><g id="g-root-netw_meu8zq9788b0-fill" data-item-order="0" transform="translate(59, 183)"></g><g id="g-root-netw_1hitgjq96ztho-fill" data-item-order="0" transform="translate(176, 192)"></g><g id="g-root-jour_1uo1kp297f9qg-fill" data-item-order="0" transform="translate(293, 195)"></g><g id="g-root-tx_machinel_1uo1hja97f9xi-fill" data-item-order="0" transform="translate(353, 207)"><g id="tx_machinel_1uo1hja97f9xi-fill" stroke="none" fill="#484848"><g><text style="font: bold 20px Roboto, sans-serif; white-space: pre;" font-weight="bold" font-size="20px" font-family="Roboto, sans-serif"><tspan x="12" y="34" dominant-baseline="ideographic">Machine Learning</tspan></text></g></g></g><g id="g-root-tx_algorith_m97z7q97fa4l-fill" data-item-order="0" transform="translate(353.23828125, 242.82025146484375)"><g id="tx_algorith_m97z7q97fa4l-fill" stroke="none" fill="#484848"><g><text style="font: 15px Roboto, sans-serif; white-space: pre;" font-size="15px" font-family="Roboto, sans-serif"><tspan x="12" y="28" dominant-baseline="ideographic">Algoritma yang memungkinkan </tspan><tspan x="12" y="46" dominant-baseline="ideographic">komputer untuk belajar</tspan></text></g></g></g><g id="g-root-codi_8zmz9i9716o8-fill" data-item-order="0" transform="translate(293, 315)"></g><g id="g-root-tx_deeplear_1cxdy4m97f94w-fill" data-item-order="0" transform="translate(353, 327)"><g id="tx_deeplear_1cxdy4m97f94w-fill" stroke="none" fill="#484848"><g><text style="font: bold 20px Roboto, sans-serif; white-space: pre;" font-weight="bold" font-size="20px" font-family="Roboto, sans-serif"><tspan x="12" y="34" dominant-baseline="ideographic">Deep Learning</tspan></text></g></g></g><g id="g-root-tx_neuralne_1lsehae97faq7-fill" data-item-order="0" transform="translate(353.23828125, 362.818359375)"><g id="tx_neuralne_1lsehae97faq7-fill" stroke="none" fill="#484848"><g><text style="font: 15px Roboto, sans-serif; white-space: pre;" font-size="15px" font-family="Roboto, sans-serif"><tspan x="12" y="28" dominant-baseline="ideographic">Neural Network untuk menganalisa pola </tspan><tspan x="12" y="46" dominant-baseline="ideographic">kompleks</tspan></text></g></g></g><g id="g-root-shar_qqwwli97f8cr-fill" data-item-order="0" transform="translate(293, 435)"></g><g id="g-root-grap_18f2dc697f952-fill" data-item-order="0" transform="translate(124, 455)"></g><g id="g-root-tx_transfer_zlxfra97fapu-fill" data-item-order="0" transform="translate(353, 447)"><g id="tx_transfer_zlxfra97fapu-fill" stroke="none" fill="#484848"><g><text style="font: bold 20px Roboto, sans-serif; white-space: pre;" font-weight="bold" font-size="20px" font-family="Roboto, sans-serif"><tspan x="12" y="34" dominant-baseline="ideographic">Transfer Learning</tspan></text></g></g></g><g id="g-root-tx_adapting_141qxvq97f9xl-fill" data-item-order="0" transform="translate(353.23828125, 482.818359375)"><g id="tx_adapting_141qxvq97f9xl-fill" stroke="none" fill="#484848"><g><text style="font: 15px Roboto, sans-serif; white-space: pre;" font-size="15px" font-family="Roboto, sans-serif"><tspan x="12" y="28" dominant-baseline="ideographic">Mengadaptasi model untuk </tspan><tspan x="12" y="46" dominant-baseline="ideographic">efisiensi</tspan></text></g></g></g><g id="g-root--1.cu_sy_1d1r09296zs3q-stroke" data-item-order="-91004" transform="translate(110, 447)"><g id="-1.cu_sy_1d1r09296zs3q-stroke" fill="none" stroke-linecap="round" stroke-linejoin="round" stroke-miterlimit="4" stroke="#484848" stroke-width="2"><g><path d="M 64 31.7778C 64 46.8122 51.9117 59 37 59C 22.0883 59 10 46.8122 10 31.7778C 10.000001 22.8728 14.2409 14.9666 20.7974 10L 53.2026 10C 59.7592 14.9666 64 22.8729 64 31.7778Z"></path></g></g></g><g id="g-root--1.cu_1_sy_zqahvq96zton-stroke" data-item-order="-91000" transform="translate(41, 123)"><g id="-1.cu_1_sy_zqahvq96zton-stroke" fill="none" stroke-linecap="round" stroke-linejoin="round" stroke-miterlimit="4" stroke="#484848" stroke-width="2"><g><path d="M 130 94C 130 77.4315 143.4315 64 160 64C 176.5685 64 190 77.4315 190 94C 190 103.8136 185.2879 112.5266 178.0029 118L 141.9971 118C 134.7121 112.5266 130 103.8136 130 94ZM 130 34C 130 47.2548 119.2548 58 106 58C 92.7452 58 82 47.2548 82 34C 82 20.7452 92.7452 10 106 10C 119.2548 10 130 20.7452 130 34ZM 82 88C 82 68.1177 65.8823 52 46 52C 26.1177 52 10 68.1177 10 88C 10 100.5218 16.3931 111.5505 26.0932 118L 65.9068 118C 75.6069 111.5505 82 100.5218 82 88Z"></path></g></g></g><g id="g-root-3.cu_sy_mfggli96zs3s-stroke" data-item-order="-90996" transform="translate(85.33203125, 375)"><g id="3.cu_sy_mfggli96zs3s-stroke" fill="none" stroke-linecap="round" stroke-linejoin="round" stroke-miterlimit="4" stroke="#484848" stroke-width="2"><g><path d="M 82.6074 82C 85.9211 82 88.6074 79.3137 88.6074 76L 88.6074 55L 113.0552 10L 10 10L 34.4478 55L 34.4478 76C 34.4478 79.3137 37.1341 82 40.4478 82L 82.6074 82Z"></path></g></g></g><g id="g-root-2.cu_sy_93zy8696ztop-stroke" data-item-order="-90992" transform="translate(46.21484375, 303)"><g id="2.cu_sy_93zy8696ztop-stroke" fill="none" stroke-linecap="round" stroke-linejoin="round" stroke-miterlimit="4" stroke="#484848" stroke-width="2"><g><path d="M 49.1165 82L 152.1718 82L 191.2883 10L 10 10L 49.1165 82Z"></path></g></g></g><g id="g-root-1.cu_sy_4o6g3q96zugy-stroke" data-item-order="-90988" transform="translate(15, 231)"><g id="1.cu_sy_4o6g3q96zugy-stroke" fill="none" stroke-linecap="round" stroke-linejoin="round" stroke-miterlimit="4" stroke="#484848" stroke-width="2"><g><path d="M 254 16C 254 12.6863 251.3137 10 248 10L 16 10C 12.6863 10 10 12.6863 10 16L 10 31.0055C 10 34.3192 12.6863 37.0055 16 37.0055L 16.7699 37.0055L 41.2148 82L 222.5031 82L 246.948 37.0055L 248 37.0055C 251.3137 37.0055 254 34.3192 254 31.0055L 254 16Z"></path></g></g></g><g id="g-root-tx_datascie_1uu9yx296zrwr-stroke" data-item-order="0" transform="translate(173, 3)"></g><g id="g-root-netw_1hf2scm97gmiz-stroke" data-item-order="0" transform="translate(125, 135)"><g id="netw_1hf2scm97gmiz-stroke" fill="none" stroke-linecap="round" stroke-linejoin="round" stroke-miterlimit="4" stroke="#484848" stroke-width="2"><g><path d="M 13.914 13.914L 15.019 15.782M 10.5 12.5C 10.5 13.604569 11.395431 14.5 12.5 14.5C 13.604569 14.5 14.5 13.604569 14.5 12.5C 14.5 11.395431 13.604569 10.5 12.5 10.5C 11.395431 10.5 10.5 11.395431 10.5 12.5M 20.5 12.5C 20.5 13.604569 21.395431 14.5 22.5 14.5C 23.604569 14.5 24.5 13.604569 24.5 12.5C 24.5 11.395431 23.604569 10.5 22.5 10.5C 21.395431 10.5 20.5 11.395431 20.5 12.5M 20.5 31.5C 20.5 32.604569 21.395431 33.5 22.5 33.5C 23.604569 33.5 24.5 32.604569 24.5 31.5C 24.5 30.395431 23.604569 29.5 22.5 29.5C 21.395431 29.5 20.5 30.395431 20.5 31.5M 29.5 12.5C 29.5 13.604569 30.395431 14.5 31.5 14.5C 32.604569 14.5 33.5 13.604569 33.5 12.5C 33.5 11.395431 32.604569 10.5 31.5 10.5C 30.395431 10.5 29.5 11.395431 29.5 12.5M 29.5 31.5C 29.5 32.604569 30.395431 33.5 31.5 33.5C 32.604569 33.5 33.5 32.604569 33.5 31.5C 33.5 30.395431 32.604569 29.5 31.5 29.5C 30.395431 29.5 29.5 30.395431 29.5 31.5M 10.5 31.5C 10.5 32.604569 11.395431 33.5 12.5 33.5C 13.604569 33.5 14.5 32.604569 14.5 31.5C 14.5 30.395431 13.604569 29.5 12.5 29.5C 11.395431 29.5 10.5 30.395431 10.5 31.5M 13.914 30.086L 15.019 28.282M 29.019 15.782L 30.087 13.913M 29.019 28.282L 30.086 30.086M 22.477 29.282L 22.477 28.282M 22.477 15.782L 22.477 14.782M 18.666 26L 17.739 26C 16.19456 25.809759 15.026221 24.510893 15 22.955001C 14.99968 22.129119 15.335611 21.338701 15.930436 20.765759C 16.525262 20.192818 17.327711 19.886737 18.153 19.918C 18.979291 18.153012 20.899247 17.175217 22.812691 17.544913C 24.726134 17.914609 26.143662 19.537239 26.253 21.483C 26.92531 21.343446 27.624727 21.513901 28.157444 21.947133C 28.69016 22.380365 28.999593 23.030358 29 23.717C 28.992992 24.34705 28.72914 24.946945 28.269485 25.377908C 27.80983 25.80887 27.194195 26.033561 26.565001 26.000001L 18.665 26Z"></path></g></g></g><g id="g-root-netw_meu8zq9788b0-stroke" data-item-order="0" transform="translate(59, 183)"><g id="netw_meu8zq9788b0-stroke" fill="none" stroke-linecap="round" stroke-linejoin="round" stroke-miterlimit="4" stroke="#484848" stroke-width="2"><g><path d="M 15.871 15.871L 17.5285 18.673M 10.75 13.75C 10.75 15.406855 12.093145 16.75 13.75 16.75C 15.406855 16.75 16.75 15.406855 16.75 13.75C 16.75 12.093145 15.406855 10.75 13.75 10.75C 12.093145 10.75 10.75 12.093145 10.75 13.75M 25.75 13.75C 25.75 15.406855 27.093145 16.75 28.75 16.75C 30.406855 16.75 31.75 15.406855 31.75 13.75C 31.75 12.093145 30.406855 10.75 28.75 10.75C 27.093145 10.75 25.75 12.093145 25.75 13.75M 25.75 42.25C 25.75 43.906857 27.093145 45.25 28.75 45.25C 30.406855 45.25 31.75 43.906857 31.75 42.25C 31.75 40.593143 30.406855 39.25 28.75 39.25C 27.093145 39.25 25.75 40.593143 25.75 42.25M 39.25 13.75C 39.25 15.406855 40.593143 16.75 42.25 16.75C 43.906857 16.75 45.25 15.406855 45.25 13.75C 45.25 12.093145 43.906857 10.75 42.25 10.75C 40.593143 10.75 39.25 12.093145 39.25 13.75M 39.25 42.25C 39.25 43.906857 40.593143 45.25 42.25 45.25C 43.906857 45.25 45.25 43.906857 45.25 42.25C 45.25 40.593143 43.906857 39.25 42.25 39.25C 40.593143 39.25 39.25 40.593143 39.25 42.25M 10.75 42.25C 10.75 43.906857 12.093145 45.25 13.75 45.25C 15.406855 45.25 16.75 43.906857 16.75 42.25C 16.75 40.593143 15.406855 39.25 13.75 39.25C 12.093145 39.25 10.75 40.593143 10.75 42.25M 15.871 40.129002L 17.5285 37.423M 38.5285 18.673L 40.130501 15.8695M 38.5285 37.423L 40.129002 40.129002M 28.7155 38.923L 28.7155 37.423M 28.7155 18.673L 28.7155 17.173M 22.999001 34L 21.6085 34C 19.29184 33.714638 17.539331 31.766338 17.5 29.432501C 17.499519 28.193678 18.003416 27.008053 18.895655 26.14864C 19.787891 25.289227 20.991566 24.830105 22.2295 24.877001C 23.468937 22.229519 26.348871 20.762825 29.219036 21.317369C 32.089203 21.871914 34.215496 24.305859 34.379501 27.224499C 35.387966 27.015169 36.437092 27.270851 37.236168 27.9207C 38.03524 28.570549 38.49939 29.545538 38.5 30.5755C 38.489487 31.520575 38.093708 32.420418 37.404228 33.06686C 36.714745 33.713306 35.79129 34.050343 34.8475 34L 22.997499 34Z"></path></g></g></g><g id="g-root-netw_1hitgjq96ztho-stroke" data-item-order="0" transform="translate(176, 192)"><g id="netw_1hitgjq96ztho-stroke" fill="none" stroke-linecap="round" stroke-linejoin="round" stroke-miterlimit="4" stroke="#484848" stroke-width="2"><g><path d="M 14.8925 14.8925L 16.27375 17.227501M 10.625 13.125C 10.625 14.505712 11.744288 15.625 13.125 15.625C 14.505712 15.625 15.625 14.505712 15.625 13.125C 15.625 11.744288 14.505712 10.625 13.125 10.625C 11.744288 10.625 10.625 11.744288 10.625 13.125M 23.125 13.125C 23.125 14.505712 24.244287 15.625 25.625 15.625C 27.005713 15.625 28.125 14.505712 28.125 13.125C 28.125 11.744288 27.005713 10.625 25.625 10.625C 24.244287 10.625 23.125 11.744288 23.125 13.125M 23.125 36.875C 23.125 38.255714 24.244287 39.375 25.625 39.375C 27.005713 39.375 28.125 38.255714 28.125 36.875C 28.125 35.494286 27.005713 34.375 25.625 34.375C 24.244287 34.375 23.125 35.494286 23.125 36.875M 34.375 13.125C 34.375 14.505712 35.494286 15.625 36.875 15.625C 38.255714 15.625 39.375 14.505712 39.375 13.125C 39.375 11.744288 38.255714 10.625 36.875 10.625C 35.494286 10.625 34.375 11.744288 34.375 13.125M 34.375 36.875C 34.375 38.255714 35.494286 39.375 36.875 39.375C 38.255714 39.375 39.375 38.255714 39.375 36.875C 39.375 35.494286 38.255714 34.375 36.875 34.375C 35.494286 34.375 34.375 35.494286 34.375 36.875M 10.625 36.875C 10.625 38.255714 11.744288 39.375 13.125 39.375C 14.505712 39.375 15.625 38.255714 15.625 36.875C 15.625 35.494286 14.505712 34.375 13.125 34.375C 11.744288 34.375 10.625 35.494286 10.625 36.875M 14.8925 35.107502L 16.27375 32.852501M 33.77375 17.227501L 35.108749 14.891251M 33.77375 32.852501L 35.107502 35.107502M 25.596251 34.102501L 25.596251 32.852501M 25.596251 17.227501L 25.596251 15.9775M 20.8325 30L 19.67375 30C 17.7432 29.762197 16.282776 28.138617 16.25 26.19375C 16.249599 25.161398 16.669514 24.173376 17.413046 23.457199C 18.156576 22.741022 19.159639 22.358421 20.19125 22.397501C 21.224113 20.191265 23.62406 18.969021 26.015863 19.431141C 28.407667 19.893261 30.179579 21.921549 30.31625 24.35375C 31.156637 24.179308 32.03091 24.392376 32.696804 24.933916C 33.362701 25.475456 33.749493 26.287949 33.75 27.14625C 33.741241 27.933811 33.411423 28.683681 32.836857 29.222385C 32.262287 29.761087 31.492744 30.041952 30.706251 30L 20.831249 30Z"></path></g></g></g><g id="g-root-jour_1uo1kp297f9qg-stroke" data-item-order="0" transform="translate(293, 195)"><g id="jour_1uo1kp297f9qg-stroke" fill="none" stroke-linecap="round" stroke-linejoin="round" stroke-miterlimit="4" stroke="#484848" stroke-width="2"><g><path d="M 27.900141 45.700001C 31.434799 45.700001 34.300201 42.834599 34.300201 39.299801C 34.300201 35.765198 31.434799 32.900002 27.900141 32.900002C 24.365501 32.900002 21.50012 35.765198 21.50012 39.299801C 21.50012 42.834599 24.365501 45.700001 27.900141 45.700001ZM 10 10M 32.680801 35.054802L 43.164001 27.654779M 10 10M 34.300201 39.299801L 49.300201 39.299801M 46.299999 29.499821C 48.2882 29.499821 49.900002 27.888041 49.900002 25.89982C 49.900002 23.911579 48.2882 22.299801 46.299999 22.299801C 44.311798 22.299801 42.700001 23.911579 42.700001 25.89982C 42.700001 27.888041 44.311798 29.499821 46.299999 29.499821ZM 52.900002 42.899601C 54.888199 42.899601 56.5 41.288002 56.5 39.299801C 56.5 37.311401 54.888199 35.699799 52.900002 35.699799C 50.9118 35.699799 49.299999 37.311401 49.299999 39.299801C 49.299999 41.288002 50.9118 42.899601 52.900002 42.899601ZM 10 10M 32.568001 43.671799L 43.242199 50.9972M 46.299999 56.499802C 48.2882 56.499802 49.900002 54.888 49.900002 52.899799C 49.900002 50.911598 48.2882 49.299801 46.299999 49.299801C 44.311798 49.299801 42.700001 50.911598 42.700001 52.899799C 42.700001 54.888 44.311798 56.499802 46.299999 56.499802ZM 10 10M 47.911598 49.6796L 51.896999 42.757801M 10 10M 47.909801 29.11622L 51.805801 35.883202M 17.100121 33.099998L 11.500122 28.5L 11.500122 11.5L 21.50012 16.5L 31.5002 11.5L 31.5002 27.5M 21.50012 16.5L 21.50012 28.5"></path></g></g></g><g id="g-root-tx_machinel_1uo1hja97f9xi-stroke" data-item-order="0" transform="translate(353, 207)"></g><g id="g-root-tx_algorith_m97z7q97fa4l-stroke" data-item-order="0" transform="translate(353.23828125, 242.82025146484375)"></g><g id="g-root-codi_8zmz9i9716o8-stroke" data-item-order="0" transform="translate(293, 315)"><g id="codi_8zmz9i9716o8-stroke" fill="none" stroke-linecap="round" stroke-linejoin="round" stroke-miterlimit="4" stroke="#484848" stroke-width="2"><g><path d="M 41.026001 23.568001L 42.068001 23.568001C 42.643482 23.568001 43.110001 24.034519 43.110001 24.610001L 43.110001 31.903999M 41.026001 31.903999L 45.194 31.903999M 52.158001 10.978L 53.200001 10.978C 53.775482 10.978 54.242001 11.444519 54.242001 12.02L 54.242001 19.313999M 52.158001 19.313999L 56.326 19.313999M 52.158001 36.155998L 53.200001 36.155998C 53.775482 36.156002 54.242001 36.62252 54.242001 37.198002L 54.242001 44.492001M 52.158001 44.492001L 56.326 44.492001M 56.848 29.298C 56.84811 30.73678 55.681782 31.903202 54.243 31.903202C 52.804218 31.903202 51.63789 30.73678 51.638 29.298L 51.638 26.172001C 51.638111 24.733376 52.804379 23.567202 54.243 23.567202C 55.681622 23.567202 56.847889 24.733376 56.848 26.172001ZM 45.714001 41.888C 45.714001 43.32394 44.549938 44.487999 43.113998 44.487999C 41.678059 44.487999 40.514 43.32394 40.514 41.888L 40.514 38.762001C 40.514 37.326057 41.678059 36.161999 43.113998 36.161999C 44.549938 36.161999 45.714001 37.326057 45.714001 38.762001ZM 52.158001 48.641998L 53.200001 48.641998C 53.775482 48.642002 54.242001 49.108521 54.242001 49.684002L 54.242001 56.978001M 52.158001 56.978001L 56.326 56.978001M 45.714001 54.374001C 45.714001 55.80994 44.549938 56.973999 43.113998 56.973999C 41.678059 56.973999 40.514 55.80994 40.514 54.374001L 40.514 51.248001C 40.514 49.812057 41.678059 48.647999 43.113998 48.647999C 44.549938 48.647999 45.714001 49.812057 45.714001 51.248001ZM 45.714001 16.902C 45.714001 18.33794 44.549938 19.501999 43.113998 19.501999C 41.678059 19.501999 40.514 18.33794 40.514 16.902L 40.514 13.774C 40.514 12.338059 41.678059 11.174 43.113998 11.174C 44.549938 11.174 45.714001 12.338059 45.714001 13.774ZM 29.106001 44.521999C 29.106001 40.932152 26.195852 38.022003 22.606001 38.022003C 22.501999 38.021999 22.406 38.048 22.299999 38.052002M 28.43 18.799999C 30.366119 18.147182 31.499022 16.140135 31.057453 14.145205C 30.615887 12.150274 28.741808 10.808806 26.711044 11.034039C 24.680281 11.259271 23.145699 12.978794 23.152 15.021999C 23.157642 15.383017 23.212135 15.741607 23.313999 16.087999C 23.091999 16.068001 22.878 16.021999 22.652 16.021999C 19.79525 16.008055 17.181129 17.625923 15.919224 20.188892C 14.657316 22.751862 14.969008 25.810287 16.722 28.066C 13.590808 28.280815 11.16061 30.883448 11.16061 34.021999C 11.16061 37.160553 13.590808 39.763184 16.722 39.977997C 14.969008 42.233711 14.657316 45.292137 15.919224 47.855106C 17.181129 50.418076 19.79525 52.035946 22.652 52.021999C 22.878 52.021999 23.091999 51.973999 23.313999 51.953999C 22.718632 54.056328 23.920441 56.247406 26.013304 56.875237C 28.106165 57.503067 30.31558 56.335308 30.975721 54.252411C 31.635862 52.169514 30.502432 49.942295 28.43 49.25M 22.299999 30C 22.403999 30 22.5 30.030001 22.605999 30.030001C 26.195852 30.030001 29.106001 27.119852 29.106001 23.530001M 31.148001 14.828C 32.059685 14.300792 33.094856 14.024745 34.148003 14.028M 30.969999 54.216C 31.947201 54.744247 33.041161 55.019283 34.152 55.015999M 34.152 24.021999L 34.152 45.021999"></path></g></g></g><g id="g-root-tx_deeplear_1cxdy4m97f94w-stroke" data-item-order="0" transform="translate(353, 327)"></g><g id="g-root-tx_neuralne_1lsehae97faq7-stroke" data-item-order="0" transform="translate(353.23828125, 362.818359375)"></g><g id="g-root-shar_qqwwli97f8cr-stroke" data-item-order="0" transform="translate(293, 435)"><g id="shar_qqwwli97f8cr-stroke" fill="none" stroke-linecap="round" stroke-linejoin="round" stroke-miterlimit="4" stroke="#484848" stroke-width="2"><g><path d="M 37.578003 11L 54.956001 11C 54.956001 11 57 11 57 13.044L 57 29.4C 57 29.4 57 31.444 54.956001 31.444L 37.578003 31.444C 37.578003 31.444 35.534 31.444 35.534 29.4L 35.534 13.044C 35.534 13.044 35.534 11 37.578003 11M 35.534 17.962L 57 17.962M 35.534 24.704L 57 24.704M 45.242001 17.962L 45.242001 31.444M 50.998001 17.962L 50.998001 31.444M 20.200001 23.6L 15.6 28L 15.6 23.6C 15.665619 20.278273 18.4123 17.639059 21.734001 17.706001L 29.4 17.705999M 11 23.6L 15.6 28.01M 24.799999 13.29L 29.4 17.705999L 24.799999 22.122M 13.044 33.487999L 24.290001 33.487999C 24.290001 33.487999 26.334 33.487999 26.334 35.532001L 26.334 54.956001C 26.334 54.956001 26.334 57 24.290001 57L 13.044 57C 13.044 57 11 57 11 54.956001L 11 35.532001C 11 35.532001 11 33.487999 13.044 33.487999M 11 50.866001L 26.334 50.866001"></path></g></g></g><g id="g-root-grap_18f2dc697f952-stroke" data-item-order="0" transform="translate(124, 455)"><g id="grap_18f2dc697f952-stroke" fill="none" stroke-linecap="round" stroke-linejoin="round" stroke-miterlimit="4" stroke="#484848" stroke-width="2"><g><path d="M 12.708333 10.5625L 12.708333 34.187504L 35.458336 34.187504M 19.208334 28.567001C 19.208334 29.809643 20.178383 30.817001 21.375 30.817001C 22.571617 30.817001 23.541668 29.809643 23.541668 28.567001C 23.541668 27.324362 22.571617 26.317001 21.375 26.317001C 20.178383 26.317001 19.208334 27.324362 19.208334 28.567001ZM 26.791668 15.067C 26.791668 16.309641 27.761717 17.317001 28.958334 17.317001C 30.154951 17.317001 31.125 16.309641 31.125 15.067C 31.125 13.82436 30.154951 12.817 28.958334 12.817C 27.761717 12.817 26.791668 13.82436 26.791668 15.067ZM 30.607166 13.609C 31.956755 12.396771 33.67416 11.716522 35.458336 11.6875M 22.942583 27.016752C 23.876656 25.577421 24.624426 24.016796 25.166668 22.375002C 25.790253 20.447321 26.647169 18.60973 27.716837 16.906376M 12.708333 34.187504C 12.708333 34.187504 16.027666 33.937752 20.066334 30.362503M 10.541667 12.8125L 12.708333 10.5625L 14.875 12.8125M 33.291668 31.937502L 35.458336 34.187504L 33.291668 36.437504"></path></g></g></g><g id="g-root-tx_transfer_zlxfra97fapu-stroke" data-item-order="0" transform="translate(353, 447)"></g><g id="g-root-tx_adapting_141qxvq97f9xl-stroke" data-item-order="0" transform="translate(353.23828125, 482.818359375)"></g></g></g></svg>